<svg width="49" height="46" viewBox="0 0 49 46" fill="none" xmlns="http://www.w3.org/2000/svg">
<path d="M10.2885 6.32878C10.2885 2.85193 8.50075 0.0703125 5.06467 0.0703125C1.96422 0.0703125 0 2.89284 0 6.32878" fill="#82B4ED"/>
<path d="M5.06494 0.0722656C8.49777 0.0722656 10.283 2.84909 10.2886 6.32086C10.2915 6.34596 10.2928 6.37121 10.2926 6.39647V39.6419C10.2886 40.4662 10.4476 41.2832 10.7604 42.0459C11.0731 42.8087 11.5335 43.5021 12.115 44.0864C12.6965 44.6707 13.3878 45.1343 14.149 45.4507C14.9102 45.7671 15.7265 45.9299 16.5508 45.9299C17.3752 45.9299 18.1914 45.7671 18.9526 45.4507C19.7139 45.1343 20.4051 44.6707 20.9866 44.0864C21.5681 43.5021 22.0285 42.8087 22.3412 42.0459C22.654 41.2832 22.813 40.4662 22.8091 39.6419H42.7419V7.02554C42.7419 3.30293 40.5928 0.234787 36.8704 0.0722656H5.06494Z" fill="#9BCAFF"/>
<path d="M16.551 45.897H42.7417C43.5636 45.897 44.3774 45.7352 45.1367 45.4206C45.896 45.1061 46.586 44.6452 47.1671 44.064C47.7483 43.4829 48.2093 42.793 48.5238 42.0337C48.8383 41.2744 49.0002 40.4605 49.0002 39.6387H22.8094C22.8128 40.4615 22.6533 41.2768 22.34 42.0377C22.0267 42.7985 21.5658 43.4898 20.984 44.0716C20.4022 44.6535 19.7109 45.1143 18.95 45.4276C18.1892 45.7409 17.3738 45.9004 16.551 45.897Z" fill="#82B4ED"/>
<path d="M19.8622 13.5215L33.2973 13.5215C33.9031 13.5215 34.3943 13.0304 34.3943 12.4245C34.3943 11.8187 33.9031 11.3276 33.2973 11.3276L19.8622 11.3276C19.2563 11.3276 18.7652 11.8187 18.7652 12.4245C18.7652 13.0304 19.2563 13.5215 19.8622 13.5215Z" fill="#FAFBFC"/>
<path d="M37.1356 18.8613H16.0243C15.7661 18.8613 15.5569 19.0706 15.5569 19.3287V19.3289C15.5569 19.587 15.7661 19.7962 16.0243 19.7962H37.1356C37.3938 19.7962 37.603 19.587 37.603 19.3289V19.3287C37.603 19.0706 37.3938 18.8613 37.1356 18.8613Z" fill="#FAFBFC"/>
<path d="M37.1356 16.6191H16.0243C15.7661 16.6191 15.5569 16.8284 15.5569 17.0865V17.0867C15.5569 17.3448 15.7661 17.5541 16.0243 17.5541H37.1356C37.3938 17.5541 37.603 17.3448 37.603 17.0867V17.0865C37.603 16.8284 37.3938 16.6191 37.1356 16.6191Z" fill="#FAFBFC"/>
<path d="M37.1356 21.1074H16.0243C15.7661 21.1074 15.5569 21.3167 15.5569 21.5748V21.575C15.5569 21.8331 15.7661 22.0423 16.0243 22.0423H37.1356C37.3938 22.0423 37.603 21.8331 37.603 21.575V21.5748C37.603 21.3167 37.3938 21.1074 37.1356 21.1074Z" fill="#FAFBFC"/>
<path d="M37.1356 23.3516H16.0243C15.7661 23.3516 15.5569 23.5608 15.5569 23.819V23.8191C15.5569 24.0772 15.7661 24.2865 16.0243 24.2865H37.1356C37.3938 24.2865 37.603 24.0772 37.603 23.8191V23.819C37.603 23.5608 37.3938 23.3516 37.1356 23.3516Z" fill="#FAFBFC"/>
<path d="M37.1356 25.5996H16.0243C15.7661 25.5996 15.5569 25.8089 15.5569 26.067V26.0671C15.5569 26.3253 15.7661 26.5345 16.0243 26.5345H37.1356C37.3938 26.5345 37.603 26.3253 37.603 26.0671V26.067C37.603 25.8089 37.3938 25.5996 37.1356 25.5996Z" fill="#FAFBFC"/>
<path d="M37.1356 30.0879H16.0243C15.7661 30.0879 15.5569 30.2971 15.5569 30.5553V30.5554C15.5569 30.8136 15.7661 31.0228 16.0243 31.0228H37.1356C37.3938 31.0228 37.603 30.8136 37.603 30.5554V30.5553C37.603 30.2971 37.3938 30.0879 37.1356 30.0879Z" fill="#FAFBFC"/>
<path d="M37.1356 27.8438H16.0243C15.7661 27.8438 15.5569 28.053 15.5569 28.3111V28.3113C15.5569 28.5694 15.7661 28.7787 16.0243 28.7787H37.1356C37.3938 28.7787 37.603 28.5694 37.603 28.3113V28.3111C37.603 28.053 37.3938 27.8438 37.1356 27.8438Z" fill="#FAFBFC"/>
<path d="M30.7872 32.332H22.3734C22.1153 32.332 21.906 32.5413 21.906 32.7994V32.7996C21.906 33.0577 22.1153 33.2669 22.3734 33.2669H30.7872C31.0454 33.2669 31.2546 33.0577 31.2546 32.7996V32.7994C31.2546 32.5413 31.0454 32.332 30.7872 32.332Z" fill="#FAFBFC"/>
</svg>
