<svg width="16" height="16" viewBox="0 0 16 16" fill="none" xmlns="http://www.w3.org/2000/svg">
<path d="M7.48748 13.426C7.45983 13.5345 7.39698 13.6308 7.30877 13.6997C7.22056 13.7687 7.11196 13.8065 6.99998 13.8072C6.95967 13.8071 6.91962 13.8007 6.88123 13.7885L4.99373 13.3197C4.84063 13.281 4.69912 13.206 4.58123 13.101L3.17498 11.876C3.12573 11.8333 3.08538 11.7813 3.05621 11.723C3.02705 11.6648 3.00965 11.6013 3.005 11.5363C3.00036 11.4713 3.00857 11.406 3.02915 11.3442C3.04974 11.2824 3.0823 11.2252 3.12498 11.176C3.16766 11.1267 3.21962 11.0864 3.2779 11.0572C3.33617 11.028 3.39962 11.0106 3.46462 11.006C3.52962 11.0013 3.5949 11.0095 3.65673 11.0301C3.71856 11.0507 3.77573 11.0833 3.82498 11.126L5.23748 12.351L7.11873 12.8197C7.24739 12.8523 7.35813 12.934 7.42709 13.0474C7.49606 13.1608 7.51775 13.2967 7.48748 13.426ZM15.775 7.47595C15.7339 7.60183 15.6679 7.71816 15.5809 7.81801C15.4939 7.91787 15.3878 7.99921 15.2687 8.0572L13.8125 8.78845L12.8812 9.8822H12.8687C12.8687 9.88845 12.8625 9.88845 12.8625 9.8947H12.8562L10.5562 12.1947C10.3656 12.381 10.1103 12.4863 9.84373 12.4885C9.76359 12.4877 9.68383 12.4772 9.60623 12.4572L5.98123 11.5635C5.84436 11.5315 5.71628 11.4696 5.60623 11.3822L2.23123 8.7447L0.731228 7.9947C0.491623 7.87327 0.309674 7.66212 0.224978 7.4072C0.184937 7.2809 0.170396 7.1479 0.182198 7.01593C0.194 6.88396 0.231911 6.75565 0.293728 6.63845L1.83123 3.6947C1.95273 3.46305 2.15967 3.28781 2.40818 3.20614C2.65669 3.12447 2.92724 3.14278 3.16248 3.2572L4.56248 3.9572L7.60623 3.0697C7.8344 3.00753 8.07696 3.02517 8.29373 3.1197L10.3562 4.0572H11.3812L12.8375 3.32595C13.0717 3.20942 13.3422 3.18931 13.5911 3.26993C13.84 3.35055 14.0473 3.52548 14.1687 3.7572L15.7062 6.70095C15.7682 6.81922 15.8062 6.94858 15.818 7.08159C15.8298 7.21459 15.8152 7.34862 15.775 7.47595ZM11.7312 9.61345L9.75623 8.17595L9.24998 8.5572C8.81643 8.87985 8.29041 9.0541 7.74998 9.0541C7.20955 9.0541 6.68353 8.87985 6.24998 8.5572L5.91248 8.30095C5.79718 8.21556 5.70173 8.10622 5.63271 7.98043C5.56369 7.85465 5.52272 7.71541 5.51262 7.57229C5.50253 7.42916 5.52354 7.28555 5.57423 7.15132C5.62491 7.0171 5.70406 6.89543 5.80623 6.7947L8.24998 4.3447L8.36248 4.25095L7.88123 4.0322L4.83748 4.9197L3.13748 8.1822L6.22498 10.5947L9.84373 11.501L11.7312 9.61345ZM12.9 8.3197L11.2 5.0572H8.95623L6.51248 7.50095L6.84998 7.7572C7.11082 7.9491 7.42616 8.0526 7.74998 8.0526C8.0738 8.0526 8.38914 7.9491 8.64998 7.7572L9.44998 7.1572C9.53529 7.09285 9.63897 7.05752 9.74582 7.0564C9.85268 7.05527 9.95708 7.08841 10.0437 7.15095L12.4187 8.87595L12.9 8.3197Z" fill="url(#paint0_linear_4958_19509)"/>
<defs>
<linearGradient id="paint0_linear_4958_19509" x1="0.178222" y1="2.60138" x2="9.43314" y2="17.7356" gradientUnits="userSpaceOnUse">
<stop stop-color="#2A56D8"/>
<stop offset="0.970218" stop-color="#119BF7"/>
</linearGradient>
</defs>
</svg>
