<svg width="16" height="16" viewBox="0 0 16 16" fill="none" xmlns="http://www.w3.org/2000/svg">
<path d="M7.57525 9.86969C8.24609 9.42406 8.75564 8.77429 9.02849 8.01655C9.30134 7.2588 9.32299 6.43335 9.09024 5.66235C8.85749 4.89135 8.3827 4.21576 7.73615 3.73557C7.08959 3.25538 6.30562 2.99609 5.50025 2.99609C4.69488 2.99609 3.91091 3.25538 3.26435 3.73557C2.6178 4.21576 2.14302 4.89135 1.91026 5.66235C1.67751 6.43335 1.69917 7.2588 1.97201 8.01655C2.24486 8.77429 2.75441 9.42406 3.42525 9.86969C2.28086 10.2905 1.2928 11.0517 0.594001 12.0509C0.539417 12.1251 0.506929 12.2131 0.500292 12.3049C0.493656 12.3967 0.513144 12.4885 0.556501 12.5697C0.599346 12.6504 0.663213 12.7179 0.741334 12.7652C0.819455 12.8125 0.908921 12.8378 1.00025 12.8384H10.0003C10.0916 12.8378 10.181 12.8125 10.2592 12.7652C10.3373 12.7179 10.4012 12.6504 10.444 12.5697C10.4874 12.4885 10.5068 12.3967 10.5002 12.3049C10.4936 12.2131 10.4611 12.1251 10.4065 12.0509C9.7077 11.0517 8.71964 10.2905 7.57525 9.86969Z" fill="url(#paint0_linear_4958_21222)"/>
<path d="M15.5067 12.05C14.8039 11.052 13.8143 10.2913 12.6692 9.86877C13.3421 9.42483 13.8538 8.77551 14.1281 8.01739C14.4024 7.25927 14.4246 6.43287 14.1914 5.66111C13.9583 4.88935 13.4822 4.21347 12.8341 3.73401C12.186 3.25455 11.4004 2.99712 10.5942 3.00002C10.2501 3.00185 9.90767 3.04806 9.57542 3.13752C9.49738 3.16096 9.42605 3.20268 9.36735 3.2592C9.30866 3.31572 9.26429 3.38542 9.23792 3.46252C9.21277 3.53899 9.20645 3.62041 9.21951 3.69984C9.23257 3.77927 9.26461 3.85438 9.31292 3.91877C9.87818 4.67826 10.2029 5.58968 10.2453 6.53548C10.2876 7.48129 10.0456 8.41808 9.55042 9.22503C9.48692 9.33225 9.46521 9.45912 9.48942 9.58136C9.51364 9.7036 9.58209 9.81261 9.68167 9.88753C9.86917 10.0334 10.0504 10.1834 10.2254 10.3375L10.2567 10.3688C10.9238 10.9861 11.465 11.7268 11.8504 12.55C11.89 12.636 11.9534 12.7089 12.0332 12.7599C12.113 12.8108 12.2057 12.8378 12.3004 12.8375H15.0942C15.1855 12.8369 15.275 12.8116 15.3531 12.7643C15.4312 12.717 15.4951 12.6494 15.5379 12.5688C15.5808 12.4877 15.6005 12.3965 15.595 12.305C15.5895 12.2135 15.5589 12.1253 15.5067 12.05Z" fill="url(#paint1_linear_4958_21222)"/>
<defs>
<linearGradient id="paint0_linear_4958_21222" x1="0.499023" y1="2.60161" x2="9.91099" y2="13.374" gradientUnits="userSpaceOnUse">
<stop stop-color="#2A56D8"/>
<stop offset="0.970218" stop-color="#119BF7"/>
</linearGradient>
<linearGradient id="paint1_linear_4958_21222" x1="9.21289" y1="2.60571" x2="18.2574" y2="9.21492" gradientUnits="userSpaceOnUse">
<stop stop-color="#2A56D8"/>
<stop offset="0.970218" stop-color="#119BF7"/>
</linearGradient>
</defs>
</svg>
