<svg width="326" height="112" viewBox="0 0 326 112" fill="none" xmlns="http://www.w3.org/2000/svg">
<g clip-path="url(#clip0_4958_18299)">
<circle opacity="0.1" cx="13" cy="14" r="27" fill="#F9D949"/>
<circle opacity="0.2" cx="13" cy="14" r="19" fill="#F9D949"/>
<path d="M162.513 87.4336H161.006V114.684H162.513V87.4336Z" fill="#DEE8F5"/>
<path d="M160.915 69.0447C165.77 69.0447 169.706 65.1194 169.706 60.2772C169.706 55.4351 165.77 51.5098 160.915 51.5098C156.059 51.5098 152.123 55.4351 152.123 60.2772C152.123 65.1194 156.059 69.0447 160.915 69.0447Z" fill="#8DDBE0"/>
<path d="M166.049 93.4967C170.385 93.4967 173.9 89.9914 173.9 85.6673C173.9 81.3432 170.385 77.8379 166.049 77.8379C161.713 77.8379 158.198 81.3432 158.198 85.6673C158.198 89.9914 161.713 93.4967 166.049 93.4967Z" fill="#8DDBE0"/>
<path d="M156.692 94.0265C161.322 94.0265 165.074 90.2841 165.074 85.6676C165.074 81.051 161.322 77.3086 156.692 77.3086C152.063 77.3086 148.311 81.051 148.311 85.6676C148.311 90.2841 152.063 94.0265 156.692 94.0265Z" fill="#8DDBE0"/>
<path d="M167.139 76.0715C171.031 76.0715 174.185 72.9254 174.185 69.0446C174.185 65.1637 171.031 62.0176 167.139 62.0176C163.247 62.0176 160.093 65.1637 160.093 69.0446C160.093 72.9254 163.247 76.0715 167.139 76.0715Z" fill="#8DDBE0"/>
<path d="M161.76 80.2922C165.652 80.2922 168.806 77.1462 168.806 73.2653C168.806 69.3844 165.652 66.2383 161.76 66.2383C157.869 66.2383 154.714 69.3844 154.714 73.2653C154.714 77.1462 157.869 80.2922 161.76 80.2922Z" fill="#8DDBE0"/>
<path d="M170.154 83.0989C174.045 83.0989 177.2 79.9528 177.2 76.0719C177.2 72.191 174.045 69.0449 170.154 69.0449C166.262 69.0449 163.107 72.191 163.107 76.0719C163.107 79.9528 166.262 83.0989 170.154 83.0989Z" fill="#8DDBE0"/>
<path d="M153.046 75.8215C156.938 75.8215 160.093 72.6754 160.093 68.7946C160.093 64.9137 156.938 61.7676 153.046 61.7676C149.155 61.7676 146 64.9137 146 68.7946C146 72.6754 149.155 75.8215 153.046 75.8215Z" fill="#8DDBE0"/>
<path d="M153.046 84.5403C156.938 84.5403 160.093 81.3942 160.093 77.5133C160.093 73.6324 156.938 70.4863 153.046 70.4863C149.155 70.4863 146 73.6324 146 77.5133C146 81.3942 149.155 84.5403 153.046 84.5403Z" fill="#8DDBE0"/>
<path d="M187.78 114.683H156.823C154.552 112.876 154.395 108.804 156.75 106.985C158.564 105.584 161.307 105.959 163.012 107.417C162.693 106.332 162.687 105.179 162.994 104.09C163.548 102.129 164.781 100.138 166.663 99.3453C171.465 97.3244 174.878 101.559 175.561 103.926C176.791 102.123 179.541 101.17 181.268 102.384C183.455 103.921 183.356 106.345 181.611 108.084C183.936 107.652 185.686 107.985 187.299 109.711C188.525 111.025 188.713 113.264 187.78 114.683Z" fill="#8DDBE0"/>
<path d="M292.832 87.4336H291.325V114.684H292.832V87.4336Z" fill="#DEE8F5"/>
<path d="M291.234 69.0447C296.089 69.0447 300.025 65.1194 300.025 60.2772C300.025 55.4351 296.089 51.5098 291.234 51.5098C286.378 51.5098 282.442 55.4351 282.442 60.2772C282.442 65.1194 286.378 69.0447 291.234 69.0447Z" fill="#8DDBE0"/>
<path d="M296.368 93.4967C300.704 93.4967 304.219 89.9914 304.219 85.6673C304.219 81.3432 300.704 77.8379 296.368 77.8379C292.033 77.8379 288.518 81.3432 288.518 85.6673C288.518 89.9914 292.033 93.4967 296.368 93.4967Z" fill="#8DDBE0"/>
<path d="M287.012 94.0265C291.641 94.0265 295.394 90.2841 295.394 85.6676C295.394 81.051 291.641 77.3086 287.012 77.3086C282.383 77.3086 278.63 81.051 278.63 85.6676C278.63 90.2841 282.383 94.0265 287.012 94.0265Z" fill="#8DDBE0"/>
<path d="M297.458 76.0715C301.35 76.0715 304.504 72.9254 304.504 69.0446C304.504 65.1637 301.35 62.0176 297.458 62.0176C293.567 62.0176 290.412 65.1637 290.412 69.0446C290.412 72.9254 293.567 76.0715 297.458 76.0715Z" fill="#8DDBE0"/>
<path d="M292.078 80.2922C295.97 80.2922 299.125 77.1462 299.125 73.2653C299.125 69.3844 295.97 66.2383 292.078 66.2383C288.187 66.2383 285.032 69.3844 285.032 73.2653C285.032 77.1462 288.187 80.2922 292.078 80.2922Z" fill="#8DDBE0"/>
<path d="M300.472 83.0989C304.364 83.0989 307.518 79.9528 307.518 76.0719C307.518 72.191 304.364 69.0449 300.472 69.0449C296.581 69.0449 293.426 72.191 293.426 76.0719C293.426 79.9528 296.581 83.0989 300.472 83.0989Z" fill="#8DDBE0"/>
<path d="M283.366 75.8215C287.257 75.8215 290.412 72.6754 290.412 68.7946C290.412 64.9137 287.257 61.7676 283.366 61.7676C279.474 61.7676 276.319 64.9137 276.319 68.7946C276.319 72.6754 279.474 75.8215 283.366 75.8215Z" fill="#8DDBE0"/>
<path d="M283.366 84.5403C287.257 84.5403 290.412 81.3942 290.412 77.5133C290.412 73.6324 287.257 70.4863 283.366 70.4863C279.474 70.4863 276.319 73.6324 276.319 77.5133C276.319 81.3942 279.474 84.5403 283.366 84.5403Z" fill="#8DDBE0"/>
<path d="M39.513 87.4336H38.0059V114.684H39.513V87.4336Z" fill="#DEE8F5"/>
<path d="M37.9146 69.0447C42.77 69.0447 46.7061 65.1194 46.7061 60.2772C46.7061 55.4351 42.77 51.5098 37.9146 51.5098C33.0592 51.5098 29.123 55.4351 29.123 60.2772C29.123 65.1194 33.0592 69.0447 37.9146 69.0447Z" fill="#8DDBE0"/>
<path d="M43.0492 93.4967C47.3851 93.4967 50.9001 89.9914 50.9001 85.6673C50.9001 81.3432 47.3851 77.8379 43.0492 77.8379C38.7132 77.8379 35.1982 81.3432 35.1982 85.6673C35.1982 89.9914 38.7132 93.4967 43.0492 93.4967Z" fill="#8DDBE0"/>
<path d="M33.6925 94.0265C38.3217 94.0265 42.0744 90.2841 42.0744 85.6676C42.0744 81.051 38.3217 77.3086 33.6925 77.3086C29.0633 77.3086 25.3105 81.051 25.3105 85.6676C25.3105 90.2841 29.0633 94.0265 33.6925 94.0265Z" fill="#8DDBE0"/>
<path d="M44.1388 76.0715C48.0303 76.0715 51.1851 72.9254 51.1851 69.0446C51.1851 65.1637 48.0303 62.0176 44.1388 62.0176C40.2473 62.0176 37.0925 65.1637 37.0925 69.0446C37.0925 72.9254 40.2473 76.0715 44.1388 76.0715Z" fill="#8DDBE0"/>
<path d="M38.7591 80.2922C42.6507 80.2922 45.8054 77.1462 45.8054 73.2653C45.8054 69.3844 42.6507 66.2383 38.7591 66.2383C34.8676 66.2383 31.7129 69.3844 31.7129 73.2653C31.7129 77.1462 34.8676 80.2922 38.7591 80.2922Z" fill="#8DDBE0"/>
<path d="M47.1527 83.0989C51.0443 83.0989 54.199 79.9528 54.199 76.0719C54.199 72.191 51.0443 69.0449 47.1527 69.0449C43.2612 69.0449 40.1064 72.191 40.1064 76.0719C40.1064 79.9528 43.2612 83.0989 47.1527 83.0989Z" fill="#8DDBE0"/>
<path d="M30.0463 75.8215C33.9378 75.8215 37.0925 72.6754 37.0925 68.7946C37.0925 64.9137 33.9378 61.7676 30.0463 61.7676C26.1547 61.7676 23 64.9137 23 68.7946C23 72.6754 26.1547 75.8215 30.0463 75.8215Z" fill="#8DDBE0"/>
<path d="M30.0463 84.5403C33.9378 84.5403 37.0925 81.3942 37.0925 77.5133C37.0925 73.6324 33.9378 70.4863 30.0463 70.4863C26.1547 70.4863 23 73.6324 23 77.5133C23 81.3942 26.1547 84.5403 30.0463 84.5403Z" fill="#8DDBE0"/>
<path d="M318.099 114.683H287.142C284.871 112.876 284.715 108.804 287.069 106.985C288.884 105.584 291.626 105.959 293.331 107.417C293.013 106.332 293.006 105.179 293.313 104.09C293.868 102.129 295.1 100.138 296.982 99.3453C301.784 97.3244 305.197 101.559 305.881 103.926C307.11 102.123 309.861 101.17 311.587 102.384C313.774 103.921 313.675 106.345 311.931 108.084C314.255 107.652 316.006 107.985 317.618 109.711C318.845 111.025 319.033 113.264 318.099 114.683Z" fill="#8DDBE0"/>
<path d="M64.7799 114.683H33.8228C31.5519 112.876 31.3955 108.804 33.7498 106.985C35.5642 105.584 38.3068 105.959 40.0119 107.417C39.6932 106.332 39.6869 105.179 39.9936 104.09C40.5482 102.129 41.7808 100.138 43.6627 99.3453C48.4651 97.3244 51.878 101.559 52.5613 103.926C53.7909 102.123 56.5415 101.17 58.2678 102.384C60.4548 103.921 60.3558 106.345 58.6112 108.084C60.9357 107.652 62.6863 107.985 64.2987 109.711C65.5252 111.025 65.7132 113.264 64.7799 114.683Z" fill="#8DDBE0"/>
<path d="M287.96 41.4473H190.947V98.9284H287.96V41.4473Z" fill="#F3F5FD"/>
<path d="M237.226 49.9277H205.276V82.3945H237.226V49.9277Z" fill="#DEE8F5"/>
<path d="M237.226 49.9277H205.276V82.3945H237.226V49.9277Z" stroke="#FAFAFA" stroke-width="3.4" stroke-miterlimit="10"/>
<path d="M221.252 50.2305V82.0927" stroke="#FAFAFA" stroke-width="3.827" stroke-miterlimit="10"/>
<path d="M237.226 66.1621H205.276" stroke="#FAFAFA" stroke-width="3.827" stroke-miterlimit="10"/>
<path d="M251.428 49.9277V98.8143H278.767V49.9277H251.428ZM276.081 96.1365H252.773V52.6053H276.081V96.1365Z" fill="#FAFAFA"/>
<path d="M252.265 97.8945H277.845V50.8496H252.265V97.8945Z" fill="#DEE8F5"/>
<path d="M254.034 77.4322C254.034 77.8116 254.343 78.1191 254.723 78.1191C255.104 78.1191 255.412 77.8116 255.412 77.4322V72.9222C255.412 72.5428 255.104 72.2352 254.723 72.2352C254.343 72.2352 254.034 72.5428 254.034 72.9222V77.4322Z" fill="#FAFAFA"/>
<path d="M188.214 42.9791L239.474 6.28906L290.512 42.827" fill="#F3F5FD"/>
<path d="M294.305 43.4971V47.1312C294.305 47.2081 294.284 47.2836 294.244 47.3492C294.204 47.4148 294.146 47.4681 294.077 47.5032C294.009 47.5383 293.932 47.5539 293.855 47.5482C293.778 47.5424 293.704 47.5157 293.641 47.4708L239.473 8.69215L185.084 47.6219C185.021 47.6667 184.947 47.6934 184.871 47.6991C184.794 47.7048 184.717 47.6893 184.648 47.6542C184.579 47.6191 184.522 47.5658 184.482 47.5002C184.441 47.4346 184.42 47.3592 184.42 47.2823V43.6478C184.42 43.537 184.446 43.4278 184.497 43.3293C184.548 43.2307 184.622 43.1457 184.712 43.0811L238.332 4.702C238.665 4.46396 239.064 4.33594 239.474 4.33594C239.883 4.33594 240.283 4.46396 240.616 4.702L294.014 42.9305C294.104 42.9951 294.178 43.0802 294.228 43.1787C294.279 43.2772 294.305 43.3864 294.305 43.4971Z" fill="#9EBCEA"/>
<path d="M293.814 98.9277H184.911C184.64 98.9277 184.42 99.147 184.42 99.4175V114.193C184.42 114.464 184.64 114.683 184.911 114.683H293.814C294.086 114.683 294.305 114.464 294.305 114.193V99.4175C294.305 99.147 294.086 98.9277 293.814 98.9277Z" fill="#9EBCEA"/>
<path d="M286.176 104.18H244.16V109.431H286.176V104.18Z" fill="#DEE8F5"/>
<path opacity="0.39" d="M286.176 104.18H244.16V109.431H286.176V104.18Z" fill="#FAFAFA"/>
<path d="M282.494 98.9277H247.842V104.18H282.494V98.9277Z" fill="#DEE8F5"/>
<path d="M289.695 109.432H240.78V114.683H289.695V109.432Z" fill="#DEE8F5"/>
<path d="M83.0574 32.7155C83.0266 29.735 84.2078 27.8879 85.8095 26.8736C87.3898 25.8729 92.3454 25.0019 94.2245 28.6347C95.4507 31.0051 94.9665 31.8525 95.3138 35.6491C95.6612 39.4457 96.9955 39.8442 98.3491 44.4458C99.4105 48.0558 93.4655 49.972 88.3163 49.8064C83.1671 49.6409 79.9039 48.5034 79.605 45.2385C79.1756 40.5516 83.1179 38.5572 83.0574 32.7155Z" fill="#0F1011"/>
<path d="M86.125 40.9562C86.125 40.9562 87.6728 40.1203 87.2859 35.9025L90.4918 35.2793C90.4918 35.2793 90.1658 39.0669 91.8014 40.2536L86.125 40.9562Z" fill="#E98862"/>
<g opacity="0.2">
<path d="M91.1358 39.4711L88.4492 37.46L90.5444 37.4199C90.6117 38.1344 90.8123 38.83 91.1358 39.4711Z" fill="black"/>
</g>
<path d="M85.4494 34.2845C85.6836 35.5631 86.3953 36.7703 87.5319 37.1728C88.7711 37.6502 90.1086 37.8179 91.4277 37.6614C94.9407 37.3418 94.1718 29.3764 92.4885 27.8432C90.8052 26.3101 85.9153 27.3355 85.3438 29.9309C85.048 31.2732 85.2267 33.0677 85.4494 34.2845Z" fill="#E98862"/>
<path d="M90.4651 33.2489C90.626 33.2489 90.7564 33.1189 90.7564 32.9584C90.7564 32.798 90.626 32.668 90.4651 32.668C90.3042 32.668 90.1738 32.798 90.1738 32.9584C90.1738 33.1189 90.3042 33.2489 90.4651 33.2489Z" fill="#0F1011"/>
<path d="M92.761 33.0419C92.9219 33.0419 93.0523 32.9118 93.0523 32.7514C93.0523 32.591 92.9219 32.4609 92.761 32.4609C92.6001 32.4609 92.4697 32.591 92.4697 32.7514C92.4697 32.9118 92.6001 33.0419 92.761 33.0419Z" fill="#0F1011"/>
<path d="M93.2591 32.127L92.4874 32.1244C92.452 32.123 92.4185 32.1081 92.394 32.0826C92.3694 32.0572 92.3557 32.0233 92.3557 31.988C92.3557 31.9527 92.3694 31.9187 92.394 31.8933C92.4185 31.8679 92.452 31.8529 92.4874 31.8516L93.2591 31.8542C93.2944 31.8555 93.3279 31.8705 93.3524 31.8959C93.377 31.9214 93.3907 31.9553 93.3907 31.9906C93.3907 32.0259 93.377 32.0598 93.3524 32.0852C93.3279 32.1107 93.2944 32.1256 93.2591 32.127Z" fill="#0F1011"/>
<path d="M89.8305 32.4381C89.797 32.4382 89.7647 32.426 89.7396 32.404C89.7146 32.3819 89.6985 32.3514 89.6944 32.3183C89.6903 32.2852 89.6985 32.2517 89.7175 32.2242C89.7364 32.1967 89.7648 32.1771 89.7973 32.1691L90.5559 31.9807C90.5912 31.9719 90.6284 31.9773 90.6596 31.9959C90.6908 32.0145 90.7132 32.0447 90.7221 32.0798C90.7309 32.1149 90.7254 32.1521 90.7068 32.1832C90.6882 32.2143 90.6579 32.2367 90.6227 32.2455L89.8637 32.4349C89.8528 32.4373 89.8416 32.4384 89.8305 32.4381Z" fill="#0F1011"/>
<path d="M90.6211 35.2463C90.6211 35.2463 91.6973 35.3495 92.4483 35.0801C92.4483 35.0801 92.4483 35.7863 91.5988 35.8637C90.7493 35.9411 90.6211 35.2463 90.6211 35.2463Z" fill="#F8FCFF"/>
<path d="M87.7841 30.9432C87.7078 36.7274 87.1487 38.9742 87.1487 38.9742C87.1487 38.9742 84.4025 35.6645 83.988 32.1594C83.5994 28.8734 86.012 26.9093 87.6507 26.528C93.8783 25.0793 94.3107 29.6093 94.3107 29.6093C93.9086 31.1547 87.1097 32.1133 87.1097 32.1133" fill="#0F1011"/>
<path d="M89.0063 34.2238C89.0361 34.549 88.9351 34.8727 88.7255 35.1236C88.5159 35.3746 88.215 35.5322 87.8889 35.5619C87.7274 35.5766 87.5646 35.5594 87.4098 35.5114C87.255 35.4633 87.1112 35.3853 86.9866 35.2818C86.7349 35.0728 86.5769 34.7727 86.5471 34.4475C86.5295 34.286 86.5448 34.1226 86.5918 33.967C86.6389 33.8114 86.7169 33.6669 86.8212 33.5421C86.9255 33.4172 87.0539 33.3146 87.1988 33.2402C87.3437 33.1659 87.5021 33.1214 87.6646 33.1094C88.5442 33.0727 88.9444 33.5466 89.0063 34.2238Z" fill="#E98862"/>
<g opacity="0.2">
<path d="M91.7716 34.559C91.7476 34.559 91.7243 34.5505 91.7061 34.5349C91.6878 34.5193 91.6757 34.4977 91.6721 34.474C91.6684 34.4504 91.6734 34.4261 91.6861 34.4058C91.6988 34.3854 91.7183 34.3703 91.7413 34.3631L92.3319 34.1763L91.9097 33.26C91.9038 33.2479 91.9003 33.2349 91.8995 33.2215C91.8987 33.2081 91.9005 33.1947 91.905 33.1821C91.9095 33.1694 91.9165 33.1578 91.9255 33.1479C91.9346 33.138 91.9455 33.13 91.9578 33.1244C91.97 33.1188 91.9832 33.1157 91.9966 33.1153C92.01 33.1149 92.0234 33.1171 92.036 33.122C92.0485 33.1268 92.0599 33.1341 92.0696 33.1434C92.0793 33.1527 92.087 33.1638 92.0922 33.1762L92.5626 34.1955C92.5684 34.2085 92.5714 34.2226 92.5714 34.2368C92.5714 34.251 92.5684 34.2651 92.5626 34.2781C92.5568 34.2911 92.5484 34.3027 92.5378 34.3122C92.5272 34.3216 92.5147 34.3288 92.5011 34.333L91.802 34.5536C91.7922 34.5569 91.782 34.5587 91.7716 34.559Z" fill="black"/>
</g>
<path d="M97.3959 68.3125C101.406 85.9309 105.037 103.667 107.903 121.509L103.875 122.335C99.4462 104.815 95.7622 87.0885 92.4736 69.3222L97.3959 68.3125Z" fill="#E98862"/>
<path d="M89.1051 69.4023C89.4733 86.9054 89.4468 104.448 88.6486 121.939H84.536C83.7382 104.448 83.7119 86.9052 84.0797 69.4023H89.1051Z" fill="#E98862"/>
<path d="M81.5317 61.8457C81.5317 61.8457 79.2482 72.0435 79.2482 80.6197C79.2482 89.196 76.627 102.479 76.627 102.479C76.627 102.479 84.0578 101.28 89.0987 102.479C97.7843 104.544 105.573 100.047 105.573 100.047L96.8248 62.7869L81.5317 61.8457Z" fill="#262626"/>
<path d="M113.249 52.2935C113.249 52.2935 114.899 51.4938 116.138 51.8005C117.377 52.1072 116.797 52.6393 115.895 52.8285C114.993 53.0177 113.012 53.3257 113.012 53.3257" fill="#E98862"/>
<path d="M114.212 52.2553C114.212 52.2553 117.271 51.9346 117.303 52.6687C117.303 52.6687 117.437 54.9339 117.022 55.2833C116.394 55.8117 113.287 55.3978 113.287 55.3978L114.212 52.2553Z" fill="#E98862"/>
<path d="M113.939 55.9972H101.983C101.629 55.9972 101.281 55.9083 100.97 55.7389C100.66 55.5695 100.397 55.3248 100.206 55.0276L92.6514 43.2661L96.2067 40.9961L103.138 51.7875H113.94L113.939 55.9972Z" fill="#367CFF"/>
<path d="M97.7948 63.1718C96.9526 65.1023 80.4031 65.9041 80.182 62.5083C80.0413 60.3473 81.9509 58.4609 81.9509 54.2492C81.9509 50.0374 78.0653 44.659 81.2313 41.5017C82.1499 40.5856 83.7359 39.9942 85.6697 39.9922C85.8144 41.1168 92.6609 41.1208 92.7132 40.0182C92.9745 40.0223 93.1776 40.0263 93.3042 40.0323C99.9738 40.3189 97.0431 47.8885 96.9787 53.4493C96.9007 59.9556 98.6636 61.1824 97.7948 63.1718Z" fill="#367CFF"/>
<path d="M92.7135 40.0183C92.6612 41.1209 92.0602 42.7426 90.2048 42.8649C87.7323 43.0273 85.8147 41.1169 85.6699 39.9923H85.676C88.1102 39.9915 91.2943 39.9955 92.7135 40.0183Z" fill="#E98862"/>
<path d="M117.02 55.2854C116.963 55.3301 116.9 55.3658 116.833 55.3912C116.472 55.4654 115.563 55.2485 115.418 54.9971C115.18 54.588 115.328 53.1097 115.537 52.5735C115.733 52.0723 116.711 52.282 116.84 52.3059C116.844 52.3073 116.848 52.3084 116.852 52.3091C117.119 52.3821 117.294 52.4959 117.302 52.6709C117.302 52.6709 117.436 54.9344 117.02 55.2854Z" fill="#E98862"/>
<path d="M98.2031 56.6534C98.2031 56.6534 98.6874 54.0165 100.558 54.4755C101.738 54.765 105.168 54.2482 105.22 55.7595C105.265 57.071 102.044 57.4206 100.979 57.3113C100.023 57.2133 98.2031 56.6534 98.2031 56.6534Z" fill="#E98862"/>
<path d="M99.873 54.4452C99.873 54.4452 102.656 54.0358 103.277 54.2994C103.828 54.5328 102.473 55.2617 102.473 55.2617L99.873 54.4452Z" fill="#E98862"/>
<path d="M100.764 58.1147L88.3248 57.7362C87.9366 57.7244 87.5584 57.6099 87.2292 57.4045C86.8999 57.199 86.6313 56.9099 86.451 56.5669L80.3096 44.8895L84.1912 42.8594L89.7379 53.4068L100.897 53.7464L100.764 58.1147Z" fill="#367CFF"/>
<path d="M152.659 120.534L145.245 120.408C145.553 112.621 145.606 103.715 145.689 95.6566C145.712 93.6591 145.863 91.6651 146.141 89.6868C147.334 81.1491 148.111 72.6594 149.718 64.1714L149.772 64.1872L149.928 63.122L165.173 62.1836L165.967 72.1168C165.967 72.1168 167.953 106.479 168.858 120.295L161.47 120.918C160.139 107.372 158.079 87.6333 156.813 73.4025C155.358 80.3308 154.369 87.5048 153.103 94.3739C152.849 102.972 152.635 111.961 152.659 120.534Z" fill="#262626"/>
<path d="M160.722 41.2521C160.722 41.2521 159.133 40.4115 159.488 36.0937L156.203 35.4863C156.203 35.4863 156.572 39.3575 154.91 40.5865L160.722 41.2521Z" fill="#E98862"/>
<g opacity="0.2">
<path d="M155.583 39.7792L158.312 37.6972L156.168 37.6758C156.106 38.4072 155.908 39.1206 155.583 39.7792Z" fill="black"/>
</g>
<path d="M161.352 34.4204C161.124 35.7302 160.407 36.9707 159.249 37.3938C157.986 37.8938 156.619 38.0779 155.269 37.9301C151.673 37.636 152.384 29.4817 154.091 27.8977C155.798 26.3136 160.809 27.3163 161.419 29.966C161.734 31.3362 161.568 33.1735 161.352 34.4204Z" fill="#E98862"/>
<path d="M156.208 33.4106C156.372 33.4106 156.505 33.2776 156.505 33.1135C156.505 32.9494 156.372 32.8164 156.208 32.8164C156.043 32.8164 155.91 32.9494 155.91 33.1135C155.91 33.2776 156.043 33.4106 156.208 33.4106Z" fill="#0F1011"/>
<path d="M153.857 33.2192C154.022 33.2192 154.155 33.0862 154.155 32.9221C154.155 32.758 154.022 32.625 153.857 32.625C153.692 32.625 153.559 32.758 153.559 32.9221C153.559 33.0862 153.692 33.2192 153.857 33.2192Z" fill="#0F1011"/>
<path d="M153.341 32.2891H153.343L154.132 32.2792C154.167 32.2756 154.199 32.2591 154.222 32.2332C154.245 32.2072 154.258 32.1736 154.258 32.1388C154.258 32.104 154.244 32.0705 154.221 32.0449C154.197 32.0192 154.165 32.0032 154.13 32H154.128L153.339 32.0098C153.304 32.0135 153.272 32.0299 153.249 32.0559C153.226 32.0818 153.213 32.1155 153.213 32.1503C153.214 32.1851 153.227 32.2185 153.25 32.2442C153.274 32.2698 153.306 32.2858 153.341 32.2891Z" fill="#0F1011"/>
<path d="M156.851 32.5765C156.885 32.5753 156.917 32.5622 156.942 32.5395C156.966 32.5168 156.982 32.486 156.986 32.4527C156.99 32.4195 156.982 32.3859 156.963 32.3581C156.944 32.3303 156.916 32.3101 156.884 32.3011L156.106 32.1145C156.071 32.11 156.036 32.1183 156.008 32.1379C155.979 32.1575 155.959 32.187 155.951 32.2206C155.943 32.2543 155.947 32.2898 155.964 32.3202C155.98 32.3507 156.007 32.374 156.04 32.3857L156.818 32.5725C156.829 32.5751 156.84 32.5765 156.851 32.5765Z" fill="#0F1011"/>
<path d="M159.295 37.2376C159.363 37.4555 159.411 37.5505 159.607 37.4339C160.38 36.9762 161.912 35.9805 162.504 32.2497C163.035 28.9069 160.967 27.5283 159.318 27.0362C157.897 26.6122 154.937 26.9117 153.34 27.7779C152.156 28.4204 153.022 30.1434 153.022 30.1434C153.615 30.1706 153.485 28.6012 154.884 28.6012C155.966 28.6012 156.919 30.1971 157.931 30.2394C158.858 30.2783 159.048 30.8418 159.017 31.2016C158.816 33.3931 159.053 36.4676 159.295 37.2376Z" fill="#0F1011"/>
<path d="M157.757 33.8432C157.743 34.008 157.762 34.1739 157.813 34.3314C157.864 34.4889 157.945 34.6348 158.053 34.761C158.16 34.8871 158.291 34.9909 158.439 35.0665C158.586 35.142 158.747 35.1879 158.912 35.2014C159.078 35.2149 159.244 35.1958 159.402 35.1452C159.56 35.0947 159.706 35.0135 159.833 34.9065C159.959 34.7995 160.063 34.6687 160.139 34.5216C160.215 34.3745 160.261 34.2139 160.274 34.049C160.291 33.8836 160.274 33.7166 160.224 33.5579C160.174 33.3993 160.093 33.2522 159.986 33.1254C159.878 32.9987 159.745 32.8949 159.596 32.8202C159.448 32.7455 159.285 32.7015 159.119 32.6907C158.219 32.6614 157.814 33.1498 157.757 33.8432Z" fill="#E98862"/>
<g opacity="0.2">
<path d="M154.885 34.7636C154.909 34.7634 154.933 34.7545 154.951 34.7385C154.97 34.7225 154.982 34.7004 154.986 34.6763C154.989 34.6521 154.984 34.6275 154.971 34.6067C154.958 34.586 154.938 34.5705 154.915 34.5631L154.309 34.3777L154.733 33.4355C154.744 33.4107 154.745 33.3825 154.735 33.3571C154.726 33.3317 154.706 33.3112 154.681 33.3C154.656 33.2889 154.628 33.288 154.603 33.2977C154.577 33.3074 154.557 33.3267 154.545 33.3515L154.074 34.3988C154.068 34.412 154.065 34.4264 154.064 34.441C154.064 34.4556 154.067 34.47 154.074 34.4833C154.08 34.4966 154.088 34.5085 154.099 34.5181C154.11 34.5277 154.123 34.5349 154.137 34.5391L154.855 34.7596C154.864 34.7625 154.874 34.7638 154.885 34.7636Z" fill="black"/>
</g>
<path d="M156.069 35.4537C156.069 35.4537 154.969 35.5694 154.198 35.3008C154.198 35.3008 154.204 36.0224 155.074 36.0942C155.945 36.166 156.069 35.4537 156.069 35.4537Z" fill="white"/>
<path d="M153.243 27.8906C152.178 28.6027 152.387 29.9666 152.587 31.1502H153.907L154.46 29.2345L155.135 31.1502L160.28 31.3276L159.66 28.7831L153.243 27.8906Z" fill="#0F1011"/>
<path d="M162.919 38.3589C164.509 38.3589 165.799 37.0732 165.799 35.4871C165.799 33.901 164.509 32.6152 162.919 32.6152C161.328 32.6152 160.039 33.901 160.039 35.4871C160.039 37.0732 161.328 38.3589 162.919 38.3589Z" fill="#0F1011"/>
<path d="M148.657 64.079C149.518 66.0536 165.994 66.8739 166.22 63.4002C166.365 61.1899 164.554 59.1251 164.554 54.817C164.554 50.5088 167.795 46.1824 164.557 42.9527C163.617 42.0157 163.037 40.3711 161.059 40.3691C160.911 41.5194 153.908 41.5234 153.854 40.3958C153.587 40.3998 153.379 40.4038 153.25 40.41C146.428 40.7033 149.942 48.4639 150.008 54.152C150.089 60.808 147.769 62.0449 148.657 64.079Z" fill="white"/>
<path d="M153.837 40.3606C153.89 41.4885 154.505 43.1471 156.403 43.2724C158.932 43.4384 160.894 41.4842 161.042 40.334H161.035C158.545 40.334 155.289 40.338 153.837 40.3606Z" fill="#E98862"/>
<path d="M149.685 41.6513C150.53 40.8878 151.61 40.4343 152.749 40.3657C152.749 40.3657 154.808 40.3555 154.803 40.3457C154.964 40.7168 154.729 48.0678 154.524 52.1031C154.299 56.4714 154.53 61.9258 154.321 65.0621C154.307 65.2681 154.251 65.4689 154.155 65.6519C154.059 65.8349 153.926 65.9961 153.765 66.1253C153.603 66.2545 153.417 66.3488 153.217 66.4024C153.017 66.456 152.808 66.4676 152.603 66.4365C150.389 66.0985 148.662 65.5229 148.41 64.9458C147.522 62.9117 149.572 60.791 149.492 54.1352C149.492 54.0967 149.49 54.0576 149.489 54.0189L149.475 54.0991C149.455 52.3078 149.149 50.3063 148.937 48.3961" fill="#367CFF"/>
<path d="M127.276 52.3742C127.276 52.3742 128.857 53.1855 130.561 53.1855L131.111 50.4662C131.111 50.4662 129.492 49.0085 128.909 49.1594C128.427 49.2837 128.765 49.7478 129.198 50.1792" fill="#E98862"/>
<path d="M127.276 52.3742C127.276 52.3742 128.857 53.1855 130.561 53.1855L131.111 50.4662C131.111 50.4662 129.492 49.0085 128.909 49.1594C128.427 49.2837 128.765 49.7478 129.198 50.1792" fill="#E98862"/>
<path opacity="0.15" d="M127.276 52.3742C127.276 52.3742 128.857 53.1855 130.561 53.1855L131.111 50.4662C131.111 50.4662 129.492 49.0085 128.909 49.1594C128.427 49.2837 128.765 49.7478 129.198 50.1792" fill="black"/>
<path d="M128.597 53.4322L127.562 52.7274C127.314 52.5587 126.976 52.6222 126.807 52.8694L125.265 55.1218C125.096 55.3689 125.159 55.7061 125.407 55.8748L126.442 56.5796C126.69 56.7483 127.028 56.6848 127.197 56.4376L128.739 54.1852C128.909 53.938 128.845 53.6009 128.597 53.4322Z" fill="#0CBC8B"/>
<path d="M129.121 53.272L127.861 52.9192C127.716 52.8789 127.561 52.8977 127.43 52.9714C127.298 53.045 127.202 53.1676 127.161 53.3121L127.017 53.8253C126.996 53.897 126.99 53.9721 126.999 54.0461C127.008 54.1201 127.031 54.1917 127.068 54.2567C127.104 54.3217 127.154 54.3788 127.212 54.4249C127.271 54.4709 127.339 54.5049 127.411 54.5249L127.726 54.6131L128.353 54.7895L128.669 54.8777C128.814 54.9182 128.97 54.8996 129.101 54.826C129.233 54.7523 129.33 54.6296 129.37 54.4848L129.515 53.9696C129.556 53.825 129.537 53.6703 129.463 53.5396C129.389 53.4088 129.266 53.3125 129.121 53.272ZM128.991 53.693C128.979 53.7337 128.955 53.7696 128.921 53.795C128.887 53.8203 128.846 53.8338 128.804 53.8333C128.787 53.8333 128.77 53.8313 128.753 53.8273L127.885 53.5847C127.84 53.5721 127.802 53.5438 127.776 53.505C127.751 53.4662 127.74 53.4195 127.746 53.3736C127.753 53.3277 127.776 53.2856 127.811 53.2551C127.846 53.2247 127.891 53.2079 127.937 53.2079C127.954 53.2079 127.971 53.2099 127.987 53.2139L128.858 53.4584C128.882 53.465 128.905 53.4764 128.924 53.4918C128.944 53.5072 128.961 53.5263 128.973 53.5482C128.985 53.57 128.993 53.594 128.996 53.6189C128.999 53.6438 128.997 53.6689 128.99 53.693H128.991Z" fill="#1F2A37"/>
<path d="M128.136 55.8182L128.329 55.128L128.264 55.1098L128.579 53.9856L127.953 53.8105L127.057 56.9989C127.046 57.04 127.042 57.083 127.047 57.1254C127.052 57.1678 127.066 57.2088 127.086 57.2461C127.107 57.2833 127.135 57.3161 127.169 57.3425C127.203 57.3689 127.241 57.3884 127.283 57.3999C127.324 57.4114 127.367 57.4147 127.409 57.4096C127.452 57.4045 127.493 57.391 127.53 57.3701C127.568 57.3491 127.6 57.3209 127.627 57.2873C127.653 57.2536 127.673 57.2151 127.684 57.1739L127.799 56.7638L127.865 56.782L128.028 56.2041L127.962 56.1856L128.07 55.7997L128.136 55.8182Z" fill="#1F2A37"/>
<path d="M129.403 52.5376C129.575 51.9128 129.355 51.3077 128.912 51.1861C128.469 51.0645 127.97 51.4724 127.797 52.0972C127.625 52.722 127.845 53.3271 128.288 53.4487C128.731 53.5703 129.23 53.1624 129.403 52.5376Z" stroke="#1F2A37" stroke-miterlimit="10"/>
<path d="M143.278 56.86C143.113 56.86 142.95 56.8408 142.79 56.8028L129.89 53.7436L130.866 49.6481L142.351 52.3716L149.706 41.582L153.197 43.9481L145.023 55.9376C144.83 56.2217 144.57 56.4542 144.266 56.615C143.961 56.7758 143.622 56.8599 143.278 56.86Z" fill="#367CFF"/>
<path d="M129.584 50.5279C129.604 50.4362 129.606 50.3413 129.589 50.2489C129.573 50.1565 129.537 50.0684 129.486 49.9897C129.434 49.911 129.368 49.8434 129.29 49.7908C129.212 49.7382 129.124 49.7016 129.032 49.6833C128.534 49.5807 127.807 49.5003 127.493 49.8126C126.995 50.3094 126.66 51.869 126.995 52.2031C127.33 52.5373 128.856 53.0124 129.1 52.2541C129.26 51.7545 129.469 51.0132 129.584 50.5279Z" fill="#E98862"/>
<path d="M164.862 54.9509C164.862 59.2591 166.816 61.1885 166.672 63.399C166.583 64.7796 165.875 66.5263 160.539 66.9003C160.107 66.9307 159.68 66.7945 159.346 66.5199C159.012 66.2454 158.796 65.8533 158.743 65.4247C157.72 56.9451 159.582 45.6512 160.105 41.8424C160.413 40.217 160.485 40.316 161.258 40.3154C163.236 40.3175 164.659 40.9748 165.598 41.9117C168.837 45.1414 164.862 50.6449 164.862 54.9509Z" fill="#367CFF"/>
<path d="M162.444 61.6329L162.581 62.6496L161.461 62.8004C161.374 62.8121 161.29 62.8409 161.214 62.885C161.138 62.9291 161.071 62.9877 161.018 63.0575C160.965 63.1273 160.926 63.2069 160.903 63.2917C160.881 63.3765 160.875 63.465 160.887 63.5519L161.693 69.5113C161.717 69.687 161.81 69.846 161.951 69.9534C162.092 70.0608 162.271 70.1079 162.447 70.0842L163.567 69.9335L163.704 70.9507C163.716 71.0376 163.745 71.1214 163.789 71.1973C163.833 71.2732 163.892 71.3396 163.962 71.3928C164.032 71.446 164.112 71.4849 164.197 71.5074C164.282 71.5298 164.37 71.5353 164.458 71.5236L177.225 69.806C177.401 69.7823 177.561 69.6898 177.669 69.5488C177.776 69.4079 177.823 69.2301 177.8 69.0545L176.539 59.7371C176.516 59.5615 176.423 59.4025 176.282 59.295C176.14 59.1876 175.962 59.1405 175.786 59.1642L163.018 60.8818C162.842 60.9054 162.683 60.9978 162.575 61.1387C162.467 61.2796 162.42 61.4573 162.444 61.6329Z" fill="#C1D8ED"/>
<path d="M171.558 67.246L168.695 66.9082L168.639 68.0294C168.639 68.6406 168.279 70.3568 168.799 70.5027C168.997 70.5582 169.253 70.2936 169.388 69.8528C169.548 70.14 169.627 70.4648 169.617 70.793C169.554 71.5307 172.175 71.2128 172.173 70.4867C172.144 69.3805 171.936 68.2863 171.558 67.246Z" fill="#E98862"/>
<path d="M167.739 68.7334L172.174 68.0773L170.296 55.4571C170.279 55.342 170.253 55.2285 170.218 55.1175L166.458 43.1348L162.18 44.4699L165.887 56.286L167.739 68.7334Z" fill="#367CFF"/>
<path d="M161.876 45.1857L161.366 43.5187L162.349 42.8772L161.791 40.3291C161.059 40.291 160.506 40.2938 160.294 40.3018C159.809 41.9198 159.042 49.088 158.853 51.8009L161.876 45.1857Z" fill="#367CFF"/>
<g opacity="0.24">
<path d="M161.876 45.1857L161.366 43.5187L162.348 42.8772L161.791 40.3291C161.059 40.291 160.506 40.2938 160.294 40.3018C159.809 41.9198 159.041 49.088 158.852 51.8009L161.876 45.1857Z" fill="white"/>
</g>
<path d="M153.363 43.5196L152.397 44.9815L154.545 51.7039C154.545 51.7039 155.039 42.233 154.84 40.334C154.84 40.334 154.323 40.3454 153.986 40.3406C153.564 40.3348 153.185 40.346 153.185 40.346L152.381 42.8779L153.363 43.5196Z" fill="#367CFF"/>
<g opacity="0.24">
<path d="M153.363 43.5196L152.397 44.9815L154.545 51.7039C154.545 51.7039 155.039 42.233 154.84 40.334C154.84 40.334 154.323 40.3454 153.986 40.3406C153.564 40.3348 153.185 40.346 153.185 40.346L152.381 42.8779L153.363 43.5196Z" fill="white"/>
</g>
<circle cx="13" cy="14" r="7" fill="#F9D949"/>
</g>
<defs>
<clipPath id="clip0_4958_18299">
<rect width="326" height="112" rx="7" fill="white"/>
</clipPath>
</defs>
</svg>
