<svg width="299" height="16" viewBox="0 0 299 16" fill="none" xmlns="http://www.w3.org/2000/svg">
<path d="M3.432 4.432C4.552 4.432 5.368 4.652 5.88 5.092C6.392 5.532 6.648 6.152 6.648 6.952C6.648 7.304 6.588 7.644 6.468 7.972C6.356 8.292 6.168 8.58 5.904 8.836C5.64 9.092 5.288 9.296 4.848 9.448C4.408 9.592 3.868 9.664 3.228 9.664H2.244V13H1.164V4.432H3.432ZM3.336 5.356H2.244V8.74H3.108C3.652 8.74 4.104 8.684 4.464 8.572C4.824 8.452 5.092 8.264 5.268 8.008C5.444 7.752 5.532 7.416 5.532 7C5.532 6.448 5.356 6.036 5.004 5.764C4.652 5.492 4.096 5.356 3.336 5.356ZM14.1176 9.772C14.1176 10.308 14.0456 10.784 13.9016 11.2C13.7656 11.608 13.5656 11.956 13.3016 12.244C13.0456 12.532 12.7296 12.752 12.3536 12.904C11.9856 13.048 11.5736 13.12 11.1176 13.12C10.6936 13.12 10.3016 13.048 9.94162 12.904C9.58162 12.752 9.26962 12.532 9.00562 12.244C8.74162 11.956 8.53362 11.608 8.38162 11.2C8.23762 10.784 8.16562 10.308 8.16562 9.772C8.16562 9.06 8.28562 8.46 8.52562 7.972C8.76562 7.476 9.10962 7.1 9.55762 6.844C10.0056 6.58 10.5376 6.448 11.1536 6.448C11.7376 6.448 12.2496 6.58 12.6896 6.844C13.1376 7.1 13.4856 7.476 13.7336 7.972C13.9896 8.46 14.1176 9.06 14.1176 9.772ZM9.25762 9.772C9.25762 10.276 9.32162 10.716 9.44962 11.092C9.58562 11.46 9.79362 11.744 10.0736 11.944C10.3536 12.144 10.7096 12.244 11.1416 12.244C11.5736 12.244 11.9296 12.144 12.2096 11.944C12.4896 11.744 12.6936 11.46 12.8216 11.092C12.9576 10.716 13.0256 10.276 13.0256 9.772C13.0256 9.26 12.9576 8.824 12.8216 8.464C12.6856 8.104 12.4776 7.828 12.1976 7.636C11.9256 7.436 11.5696 7.336 11.1296 7.336C10.4736 7.336 9.99762 7.552 9.70162 7.984C9.40562 8.416 9.25762 9.012 9.25762 9.772ZM19.9489 9.364C19.9009 9.196 19.8529 9.032 19.8049 8.872C19.7569 8.704 19.7129 8.548 19.6729 8.404C19.6409 8.252 19.6089 8.112 19.5769 7.984C19.5449 7.856 19.5209 7.748 19.5049 7.66H19.4569C19.4409 7.748 19.4169 7.856 19.3849 7.984C19.3609 8.112 19.3289 8.252 19.2889 8.404C19.2569 8.556 19.2169 8.716 19.1689 8.884C19.1289 9.044 19.0809 9.208 19.0249 9.376L17.8729 12.988H16.6729L14.9089 6.556H16.0009L16.8889 9.988C16.9529 10.22 17.0129 10.456 17.0689 10.696C17.1249 10.928 17.1729 11.152 17.2129 11.368C17.2609 11.576 17.2929 11.756 17.3089 11.908H17.3569C17.3809 11.812 17.4089 11.692 17.4409 11.548C17.4729 11.404 17.5049 11.252 17.5369 11.092C17.5769 10.932 17.6169 10.772 17.6569 10.612C17.7049 10.452 17.7489 10.308 17.7889 10.18L18.9289 6.556H20.0809L21.1849 10.18C21.2409 10.364 21.2969 10.56 21.3529 10.768C21.4169 10.976 21.4729 11.18 21.5209 11.38C21.5689 11.572 21.6009 11.744 21.6169 11.896H21.6649C21.6809 11.76 21.7089 11.592 21.7489 11.392C21.7969 11.184 21.8489 10.96 21.9049 10.72C21.9689 10.472 22.0329 10.228 22.0969 9.988L22.9969 6.556H24.0769L22.2889 12.988H21.0529L19.9489 9.364ZM27.9545 6.448C28.5065 6.448 28.9785 6.568 29.3705 6.808C29.7705 7.048 30.0745 7.388 30.2825 7.828C30.4985 8.26 30.6065 8.768 30.6065 9.352V9.988H26.2025C26.2185 10.716 26.4025 11.272 26.7545 11.656C27.1145 12.032 27.6145 12.22 28.2545 12.22C28.6625 12.22 29.0225 12.184 29.3345 12.112C29.6545 12.032 29.9825 11.92 30.3185 11.776V12.7C29.9905 12.844 29.6665 12.948 29.3465 13.012C29.0265 13.084 28.6465 13.12 28.2065 13.12C27.5985 13.12 27.0585 12.996 26.5865 12.748C26.1225 12.5 25.7585 12.132 25.4945 11.644C25.2385 11.148 25.1105 10.544 25.1105 9.832C25.1105 9.128 25.2265 8.524 25.4585 8.02C25.6985 7.516 26.0305 7.128 26.4545 6.856C26.8865 6.584 27.3865 6.448 27.9545 6.448ZM27.9425 7.312C27.4385 7.312 27.0385 7.476 26.7425 7.804C26.4545 8.124 26.2825 8.572 26.2265 9.148H29.5025C29.5025 8.78 29.4465 8.46 29.3345 8.188C29.2225 7.916 29.0505 7.704 28.8185 7.552C28.5945 7.392 28.3025 7.312 27.9425 7.312ZM35.4839 6.448C35.6039 6.448 35.7319 6.456 35.8679 6.472C36.0119 6.48 36.1359 6.496 36.2399 6.52L36.1079 7.492C36.0039 7.468 35.8879 7.448 35.7599 7.432C35.6399 7.416 35.5239 7.408 35.4119 7.408C35.1639 7.408 34.9279 7.46 34.7039 7.564C34.4799 7.668 34.2799 7.816 34.1039 8.008C33.9279 8.192 33.7879 8.416 33.6839 8.68C33.5879 8.944 33.5399 9.24 33.5399 9.568V13H32.4839V6.568H33.3479L33.4679 7.744H33.5159C33.6519 7.504 33.8159 7.288 34.0079 7.096C34.1999 6.896 34.4199 6.74 34.6679 6.628C34.9159 6.508 35.1879 6.448 35.4839 6.448ZM39.9306 6.448C40.4826 6.448 40.9546 6.568 41.3466 6.808C41.7466 7.048 42.0506 7.388 42.2586 7.828C42.4746 8.26 42.5826 8.768 42.5826 9.352V9.988H38.1786C38.1946 10.716 38.3786 11.272 38.7306 11.656C39.0906 12.032 39.5906 12.22 40.2306 12.22C40.6386 12.22 40.9986 12.184 41.3106 12.112C41.6306 12.032 41.9586 11.92 42.2946 11.776V12.7C41.9666 12.844 41.6426 12.948 41.3226 13.012C41.0026 13.084 40.6226 13.12 40.1826 13.12C39.5746 13.12 39.0346 12.996 38.5626 12.748C38.0986 12.5 37.7346 12.132 37.4706 11.644C37.2146 11.148 37.0866 10.544 37.0866 9.832C37.0866 9.128 37.2026 8.524 37.4346 8.02C37.6746 7.516 38.0066 7.128 38.4306 6.856C38.8626 6.584 39.3626 6.448 39.9306 6.448ZM39.9186 7.312C39.4146 7.312 39.0146 7.476 38.7186 7.804C38.4306 8.124 38.2586 8.572 38.2026 9.148H41.4786C41.4786 8.78 41.4226 8.46 41.3106 8.188C41.1986 7.916 41.0266 7.704 40.7946 7.552C40.5706 7.392 40.2786 7.312 39.9186 7.312ZM46.74 13.12C45.94 13.12 45.3 12.844 44.82 12.292C44.34 11.732 44.1 10.9 44.1 9.796C44.1 8.692 44.34 7.86 44.82 7.3C45.308 6.732 45.952 6.448 46.752 6.448C47.088 6.448 47.38 6.492 47.628 6.58C47.876 6.66 48.092 6.772 48.276 6.916C48.46 7.06 48.616 7.22 48.744 7.396H48.816C48.808 7.292 48.792 7.14 48.768 6.94C48.752 6.732 48.744 6.568 48.744 6.448V3.88H49.8V13H48.948L48.792 12.136H48.744C48.616 12.32 48.46 12.488 48.276 12.64C48.092 12.784 47.872 12.9 47.616 12.988C47.368 13.076 47.076 13.12 46.74 13.12ZM46.908 12.244C47.588 12.244 48.064 12.06 48.336 11.692C48.616 11.316 48.756 10.752 48.756 10V9.808C48.756 9.008 48.624 8.396 48.36 7.972C48.096 7.54 47.608 7.324 46.896 7.324C46.328 7.324 45.9 7.552 45.612 8.008C45.332 8.456 45.192 9.06 45.192 9.82C45.192 10.588 45.332 11.184 45.612 11.608C45.9 12.032 46.332 12.244 46.908 12.244ZM56.496 6.1C56.496 6.372 56.488 6.628 56.472 6.868C56.464 7.1 56.452 7.284 56.436 7.42H56.496C56.68 7.148 56.932 6.92 57.252 6.736C57.572 6.552 57.984 6.46 58.488 6.46C59.288 6.46 59.928 6.74 60.408 7.3C60.896 7.852 61.14 8.68 61.14 9.784C61.14 10.52 61.028 11.136 60.804 11.632C60.588 12.128 60.28 12.5 59.88 12.748C59.48 12.996 59.016 13.12 58.488 13.12C57.984 13.12 57.572 13.028 57.252 12.844C56.932 12.66 56.68 12.44 56.496 12.184H56.412L56.196 13H55.44V3.88H56.496V6.1ZM58.308 7.336C57.852 7.336 57.492 7.424 57.228 7.6C56.964 7.768 56.776 8.032 56.664 8.392C56.552 8.744 56.496 9.196 56.496 9.748V9.796C56.496 10.588 56.624 11.196 56.88 11.62C57.144 12.036 57.628 12.244 58.332 12.244C58.908 12.244 59.336 12.032 59.616 11.608C59.904 11.184 60.048 10.572 60.048 9.772C60.048 8.964 59.904 8.356 59.616 7.948C59.336 7.54 58.9 7.336 58.308 7.336ZM61.8204 6.568H62.9484L64.3404 10.228C64.4204 10.444 64.4924 10.652 64.5564 10.852C64.6284 11.052 64.6924 11.248 64.7484 11.44C64.8044 11.624 64.8484 11.804 64.8804 11.98H64.9284C64.9764 11.78 65.0524 11.52 65.1564 11.2C65.2604 10.872 65.3684 10.544 65.4804 10.216L66.7884 6.568H67.9284L65.1564 13.888C65.0044 14.288 64.8244 14.636 64.6164 14.932C64.4164 15.236 64.1684 15.468 63.8724 15.628C63.5844 15.796 63.2324 15.88 62.8164 15.88C62.6244 15.88 62.4564 15.868 62.3124 15.844C62.1684 15.828 62.0444 15.808 61.9404 15.784V14.944C62.0284 14.96 62.1324 14.976 62.2524 14.992C62.3804 15.008 62.5124 15.016 62.6484 15.016C62.8964 15.016 63.1084 14.968 63.2844 14.872C63.4684 14.784 63.6244 14.652 63.7524 14.476C63.8804 14.308 63.9884 14.108 64.0764 13.876L64.4124 13.024L61.8204 6.568Z" fill="#0F2940" fill-opacity="0.87"/>
<path d="M188.665 4.3C189.097 4.3 189.465 4.376 189.769 4.528C190.081 4.672 190.321 4.88 190.489 5.152C190.657 5.424 190.741 5.756 190.741 6.148C190.741 6.652 190.577 7.08 190.249 7.432C189.929 7.784 189.521 8.104 189.025 8.392L191.341 10.624C191.549 10.376 191.717 10.092 191.845 9.772C191.981 9.444 192.093 9.092 192.181 8.716H193.249C193.121 9.228 192.961 9.704 192.769 10.144C192.577 10.584 192.329 10.968 192.025 11.296L193.777 13H192.349L191.305 11.992C191.113 12.16 190.913 12.316 190.705 12.46C190.505 12.596 190.285 12.712 190.045 12.808C189.805 12.904 189.545 12.98 189.265 13.036C188.993 13.092 188.689 13.12 188.353 13.12C187.801 13.12 187.321 13.032 186.913 12.856C186.513 12.672 186.201 12.404 185.977 12.052C185.761 11.7 185.653 11.272 185.653 10.768C185.653 10.36 185.725 10.008 185.869 9.712C186.021 9.416 186.237 9.152 186.517 8.92C186.797 8.688 187.125 8.464 187.501 8.248C187.333 8.056 187.169 7.856 187.009 7.648C186.849 7.44 186.717 7.216 186.613 6.976C186.509 6.728 186.457 6.46 186.457 6.172C186.457 5.78 186.545 5.444 186.721 5.164C186.897 4.884 187.149 4.672 187.477 4.528C187.813 4.376 188.209 4.3 188.665 4.3ZM188.137 8.908C187.849 9.076 187.601 9.248 187.393 9.424C187.193 9.592 187.037 9.78 186.925 9.988C186.813 10.196 186.757 10.444 186.757 10.732C186.757 11.172 186.905 11.524 187.201 11.788C187.497 12.052 187.893 12.184 188.389 12.184C188.901 12.184 189.341 12.1 189.709 11.932C190.077 11.764 190.385 11.564 190.633 11.332L188.137 8.908ZM188.629 5.164C188.293 5.164 188.017 5.252 187.801 5.428C187.593 5.604 187.489 5.848 187.489 6.16C187.489 6.448 187.565 6.716 187.717 6.964C187.869 7.204 188.089 7.472 188.377 7.768C188.849 7.496 189.185 7.24 189.385 7C189.593 6.752 189.697 6.468 189.697 6.148C189.697 5.86 189.601 5.624 189.409 5.44C189.217 5.256 188.957 5.164 188.629 5.164Z" fill="#0F2940" fill-opacity="0.87"/>
<path d="M85.2438 4.24659V5.76602H83.9298V8.70127C83.9298 9.29983 83.9414 9.64516 83.9644 9.73724C83.9875 9.82933 84.0451 9.92142 84.1373 9.97897C84.2295 10.0365 84.3332 10.0711 84.46 10.0711C84.6444 10.0711 84.898 10.0135 85.2322 9.88688L85.3936 11.3718C84.9441 11.5675 84.4485 11.6595 83.8837 11.6595C83.538 11.6595 83.2268 11.602 82.9502 11.4869C82.6735 11.3718 82.4661 11.2221 82.3393 11.038C82.2125 10.8538 82.1203 10.6006 82.0742 10.2898C82.0396 10.0711 82.0166 9.61062 82.0166 8.93149V5.76602H81.1406V4.24659H82.0166V2.80774L83.9298 1.67969V4.24659" fill="#0F2940"/>
<path d="M89.4055 1.49609V5.20257C90.0278 4.46588 90.777 4.09753 91.6414 4.09753C92.0909 4.09753 92.4828 4.17811 92.8401 4.33926C93.1974 4.50041 93.4625 4.70761 93.6469 4.97235C93.8313 5.22559 93.9581 5.50185 94.0157 5.81264C94.0849 6.12343 94.1195 6.59537 94.1195 7.25149V11.499H92.2062V7.67739C92.2062 6.91768 92.1716 6.43422 92.0909 6.23854C92.0218 6.03135 91.8835 5.87019 91.6991 5.75509C91.5147 5.62847 91.2841 5.57091 90.996 5.57091C90.6733 5.57091 90.3851 5.65149 90.1316 5.80113C89.878 5.95077 89.6936 6.1925 89.5783 6.50329C89.4631 6.81408 89.4055 7.27451 89.4055 7.88458V11.5105H87.4922V1.49609" fill="#0F2940"/>
<path d="M96.5391 7.7809C96.5391 7.14781 96.7004 6.52623 97.0116 5.92766C97.3228 5.3291 97.7723 4.88018 98.3486 4.55788C98.9249 4.24709 99.5703 4.08594 100.273 4.08594C101.368 4.08594 102.267 4.44277 102.97 5.15644C103.673 5.87011 104.019 6.76795 104.019 7.86148C104.019 8.955 103.662 9.86436 102.959 10.5895C102.256 11.3147 101.357 11.6716 100.285 11.6716C99.6164 11.6716 98.9825 11.5219 98.3832 11.2226C97.7838 10.9233 97.3228 10.4859 97.0116 9.89889C96.7004 9.32335 96.5391 8.60968 96.5391 7.7809ZM98.51 7.8845C98.51 8.59817 98.6828 9.15069 99.0171 9.53054C99.3629 9.9104 99.7778 10.1061 100.273 10.1061C100.769 10.1061 101.195 9.9104 101.53 9.53054C101.864 9.15069 102.037 8.59817 102.037 7.86148C102.037 7.14781 101.864 6.6068 101.53 6.22695C101.195 5.84709 100.769 5.65141 100.273 5.65141C99.7778 5.65141 99.3513 5.84709 99.0171 6.22695C98.6828 6.61831 98.51 7.15932 98.51 7.8845Z" fill="#0F2940"/>
<path d="M111.246 11.4883V10.4063C110.981 10.7977 110.636 11.097 110.209 11.3272C109.783 11.5574 109.322 11.6725 108.849 11.6725C108.365 11.6725 107.927 11.5689 107.535 11.3502C107.143 11.1315 106.867 10.8322 106.694 10.4524C106.521 10.061 106.429 9.5315 106.429 8.84085V4.24805H108.342V7.58618C108.342 8.61064 108.377 9.23222 108.446 9.46244C108.515 9.69265 108.642 9.87682 108.826 10.0034C109.01 10.1416 109.253 10.2106 109.541 10.2106C109.863 10.2106 110.163 10.1186 110.428 9.94589C110.693 9.76172 110.866 9.54301 110.958 9.27826C111.051 9.01352 111.108 8.3574 111.108 7.32143V4.25956H113.021V11.4998" fill="#0F2940"/>
<path d="M115.741 11.948L117.931 12.2128C117.966 12.466 118.058 12.6502 118.185 12.7423C118.369 12.8804 118.657 12.9495 119.049 12.9495C119.545 12.9495 119.925 12.8804 120.178 12.7192C120.351 12.6156 120.478 12.4545 120.559 12.2358C120.616 12.0746 120.651 11.7869 120.651 11.361L120.663 10.302C120.086 11.0962 119.36 11.4876 118.484 11.4876C117.516 11.4876 116.732 11.0732 116.168 10.2559C115.718 9.61132 115.499 8.79406 115.499 7.82715C115.499 6.60701 115.787 5.68614 116.375 5.05305C116.963 4.40845 117.689 4.09766 118.565 4.09766C119.464 4.09766 120.202 4.48902 120.789 5.27175V4.2473H122.576V10.7394C122.576 11.5912 122.507 12.2358 122.368 12.6502C122.23 13.0761 122.034 13.3984 121.781 13.6516C121.527 13.8933 121.181 14.0775 120.755 14.2156C120.328 14.3538 119.787 14.4228 119.141 14.4228C117.908 14.4228 117.043 14.2156 116.525 13.7897C116.006 13.3638 115.753 12.8343 115.753 12.1897C115.741 12.1207 115.741 12.0401 115.741 11.948ZM117.458 7.72355C117.458 8.49478 117.608 9.0473 117.908 9.40413C118.208 9.76097 118.576 9.94514 119.014 9.94514C119.475 9.94514 119.879 9.76096 120.202 9.39262C120.524 9.02427 120.686 8.48327 120.686 7.7696C120.686 7.0214 120.536 6.46888 120.225 6.10053C119.913 5.7437 119.521 5.55952 119.049 5.55952C118.588 5.55952 118.208 5.7437 117.919 6.08902C117.608 6.44586 117.458 6.99838 117.458 7.72355Z" fill="#0F2940"/>
<path d="M127.279 1.49609V5.20257C127.901 4.46588 128.65 4.09753 129.503 4.09753C129.952 4.09753 130.344 4.17811 130.702 4.33926C131.059 4.50041 131.324 4.70761 131.508 4.97235C131.693 5.22559 131.82 5.50185 131.877 5.81264C131.946 6.12343 131.981 6.59537 131.981 7.25149V11.499H130.068V7.67739C130.068 6.91768 130.033 6.43422 129.964 6.23854C129.883 6.03135 129.757 5.87019 129.572 5.75509C129.388 5.62847 129.157 5.57091 128.869 5.57091C128.546 5.57091 128.258 5.65149 128.005 5.80113C127.751 5.95077 127.567 6.1925 127.451 6.50329C127.336 6.81408 127.279 7.27451 127.279 7.88458V11.5105H125.365V1.49609" fill="#0F2940"/>
<path d="M138.171 4.24659V5.76602H136.857V8.70127C136.857 9.29983 136.868 9.64516 136.891 9.73724C136.914 9.82933 136.972 9.92142 137.064 9.97897C137.156 10.0365 137.26 10.0711 137.387 10.0711C137.571 10.0711 137.825 10.0135 138.159 9.88688L138.32 11.3718C137.871 11.5675 137.375 11.6595 136.811 11.6595C136.465 11.6595 136.154 11.602 135.877 11.4869C135.6 11.3718 135.393 11.2221 135.266 11.038C135.139 10.8538 135.047 10.6006 135.001 10.2898C134.966 10.0711 134.943 9.61062 134.943 8.93149V5.76602H134.067V4.24659H134.943V2.80774L136.857 1.67969V4.24659" fill="#0F2940"/>
<path d="M142.274 11.4874H140.36V4.24709H142.135V5.27155C142.435 4.78809 142.712 4.46579 142.965 4.31615C143.207 4.16651 143.484 4.08594 143.795 4.08594C144.233 4.08594 144.659 4.21256 145.063 4.44277L144.464 6.11184C144.141 5.90464 143.841 5.80104 143.564 5.80104C143.299 5.80104 143.069 5.87011 142.884 6.01975C142.7 6.16939 142.55 6.43414 142.447 6.814C142.343 7.20536 142.285 8.01112 142.285 9.24277" fill="#FBB615"/>
<path d="M148.244 6.48039L146.515 6.1696C146.711 5.46744 147.045 4.93794 147.529 4.60413C148.002 4.25881 148.716 4.09766 149.661 4.09766C150.514 4.09766 151.148 4.20125 151.574 4.39694C151.989 4.60413 152.289 4.85737 152.462 5.16816C152.635 5.47895 152.716 6.04298 152.716 6.88327L152.692 9.11636C152.692 9.74946 152.727 10.2214 152.785 10.5207C152.842 10.82 152.958 11.1423 153.13 11.4876H151.229C151.183 11.361 151.113 11.1768 151.044 10.9236C151.01 10.8084 150.987 10.7394 150.975 10.7048C150.652 11.0272 150.295 11.2689 149.926 11.43C149.557 11.5912 149.154 11.6718 148.739 11.6718C148.002 11.6718 147.414 11.4646 146.987 11.0617C146.561 10.6588 146.342 10.1523 146.342 9.53075C146.342 9.12787 146.434 8.75952 146.63 8.43722C146.826 8.11492 147.102 7.87319 147.448 7.70053C147.794 7.52787 148.313 7.37823 148.97 7.25161C149.869 7.07895 150.491 6.92931 150.825 6.77967V6.58399C150.825 6.21564 150.733 5.95089 150.549 5.78974C150.364 5.62859 150.019 5.54802 149.511 5.54802C149.166 5.54802 148.901 5.61708 148.716 5.75521C148.509 5.90485 148.359 6.13506 148.244 6.48039ZM150.814 8.03434C150.572 8.11492 150.18 8.21852 149.65 8.32211C149.119 8.43722 148.774 8.55233 148.601 8.65593C148.347 8.82859 148.22 9.05881 148.22 9.33507C148.22 9.59981 148.324 9.83003 148.52 10.0257C148.716 10.2214 148.97 10.3135 149.281 10.3135C149.627 10.3135 149.961 10.1984 150.272 9.97967C150.503 9.80701 150.652 9.59981 150.733 9.34658C150.779 9.18543 150.802 8.87463 150.802 8.4142V8.03434H150.814Z" fill="#FBB615"/>
<path d="M155.517 1.49609H157.43V3.26875H155.517V1.49609ZM155.517 4.24717H157.43V11.4875H155.517V4.24717Z" fill="#FBB615"/>
<path d="M166.927 11.4874H165.014V7.79241C165.014 7.00968 164.968 6.5032 164.887 6.27299C164.807 6.04277 164.668 5.87011 164.484 5.74349C164.299 5.61687 164.069 5.54781 163.815 5.54781C163.481 5.54781 163.181 5.63989 162.916 5.82407C162.651 6.00824 162.467 6.24997 162.375 6.54925C162.271 6.84853 162.225 7.40104 162.225 8.21831V11.4874H160.312V4.24709H162.086V5.30608C162.72 4.48882 163.516 4.08594 164.484 4.08594C164.91 4.08594 165.302 4.16651 165.648 4.31615C166.005 4.46579 166.27 4.66148 166.443 4.9032C166.628 5.14493 166.754 5.40968 166.824 5.70896C166.893 6.00824 166.927 6.43414 166.927 6.99817" fill="#FBB615"/>
<path d="M169.117 9.44997L171.042 9.1622C171.123 9.53054 171.284 9.81831 171.538 10.0025C171.791 10.1982 172.137 10.2903 172.586 10.2903C173.082 10.2903 173.451 10.1982 173.704 10.014C173.877 9.88738 173.958 9.71471 173.958 9.49601C173.958 9.35788 173.912 9.23126 173.82 9.13917C173.727 9.04709 173.508 8.96651 173.174 8.88594C171.63 8.54061 170.639 8.22982 170.235 7.95356C169.659 7.5622 169.371 7.02119 169.371 6.31903C169.371 5.68594 169.613 5.15644 170.12 4.73054C170.616 4.30464 171.388 4.08594 172.425 4.08594C173.416 4.08594 174.154 4.24709 174.638 4.56939C175.122 4.89169 175.456 5.37515 175.641 6.00824L173.843 6.34205C173.762 6.05428 173.612 5.83558 173.405 5.68594C173.186 5.5363 172.875 5.45572 172.471 5.45572C171.964 5.45572 171.595 5.52479 171.376 5.66292C171.226 5.76651 171.157 5.89313 171.157 6.05428C171.157 6.19241 171.215 6.30752 171.353 6.39961C171.526 6.52623 172.125 6.7104 173.151 6.94061C174.177 7.17083 174.892 7.4586 175.295 7.79241C175.698 8.12623 175.894 8.60968 175.894 9.21975C175.894 9.88738 175.618 10.4514 175.064 10.9349C174.511 11.4068 173.693 11.6485 172.598 11.6485C171.607 11.6485 170.823 11.4528 170.247 11.05C169.67 10.6816 169.29 10.1406 169.117 9.44997Z" fill="#FBB615"/>
<g clip-path="url(#clip0_4958_23910)">
<path d="M222.458 8.67117H218.83V12.2895H217.408V3.96094H218.83V7.32936H222.458V3.96094H223.871V12.2895H222.458V8.67117Z" fill="#0F2940"/>
<path d="M225.468 9.23659C225.468 7.247 226.576 6.0625 228.265 6.0625C229.724 6.0625 230.915 6.96938 230.915 8.9127C230.915 9.16256 230.905 9.4957 230.868 9.77332H226.843C226.889 10.6617 227.545 11.1984 228.265 11.1984C228.801 11.1984 229.225 10.9948 229.548 10.5692L230.425 11.476C229.955 12.0498 229.234 12.4292 228.265 12.4292C226.548 12.4292 225.468 11.2354 225.468 9.23659ZM229.539 8.62583C229.484 7.70044 228.902 7.29327 228.265 7.29327C227.517 7.29327 226.926 7.67268 226.853 8.62583H229.539Z" fill="#0F2940"/>
<path d="M232.401 4.34843L233.786 3.69141V12.279H232.401V4.34843Z" fill="#0F2940"/>
<path d="M235.503 4.54235C235.503 4.08891 235.872 3.71875 236.334 3.71875C236.795 3.71875 237.155 4.08891 237.155 4.54235C237.155 5.00504 236.795 5.3752 236.334 5.3752C235.872 5.3752 235.503 5.00504 235.503 4.54235ZM235.632 6.20805H237.017V12.2879H235.632V6.20805Z" fill="#0F2940"/>
<path d="M238.521 9.25366C238.521 7.26407 239.602 6.07031 241.3 6.07031C243.008 6.07031 244.088 7.27332 244.088 9.25366C244.088 11.2525 243.008 12.4277 241.3 12.4277C239.602 12.4277 238.521 11.2525 238.521 9.25366ZM242.694 9.25366C242.694 8.09692 242.159 7.38437 241.291 7.38437C240.451 7.38437 239.906 8.09692 239.906 9.25366C239.906 10.4104 240.451 11.0952 241.291 11.0952C242.159 11.0952 242.694 10.4011 242.694 9.25366Z" fill="#0F2940"/>
<path d="M245.113 11.3826L246.064 10.5775C246.313 10.8273 246.812 11.216 247.477 11.216C248.049 11.216 248.464 11.0587 248.464 10.6237C248.464 10.1981 247.975 10.0037 247.292 9.73537C245.972 9.29118 245.289 8.78222 245.289 7.76429C245.289 6.67233 246.249 6.08008 247.449 6.08008C248.492 6.08008 249.203 6.53352 249.618 7.02398L248.658 7.81056C248.363 7.52369 248.003 7.30159 247.449 7.30159C246.95 7.30159 246.627 7.47742 246.627 7.80131C246.627 8.17146 247.172 8.3843 247.818 8.59714C248.991 8.9858 249.812 9.48552 249.812 10.6423C249.812 11.8175 248.889 12.4468 247.486 12.4468C246.507 12.4283 245.566 12.0211 245.113 11.3826Z" fill="#0F2940"/>
<path d="M256.081 10.4664H252.794L252.139 12.2895H250.634L253.726 3.96094H255.139L258.222 12.2895H256.727L256.081 10.4664ZM254.714 6.68158C254.622 6.44098 254.502 6.08934 254.437 5.83948C254.364 6.08934 254.243 6.45024 254.16 6.68158L253.237 9.18014H255.619L254.714 6.68158Z" fill="#0F2940"/>
<path d="M259.22 9.23501C259.22 7.24542 260.272 6.06092 261.731 6.06092C262.368 6.06092 262.811 6.30152 263.097 6.63466V4.33044L264.482 3.70117V12.2888H263.097V11.8446C262.811 12.2148 262.377 12.4276 261.731 12.4276C260.208 12.4276 259.22 11.2616 259.22 9.23501ZM263.097 10.512V7.96722C262.922 7.70811 262.525 7.38423 261.943 7.38423C261.085 7.38423 260.605 8.04125 260.605 9.23501C260.605 10.3455 261.094 11.0858 261.943 11.0858C262.469 11.095 262.848 10.8915 263.097 10.512Z" fill="#0F2940"/>
<path d="M265.673 6.20898H267.085L268.424 10.0031C268.479 10.1974 268.544 10.364 268.59 10.5491C268.636 10.3547 268.682 10.1882 268.756 10.0031L270.077 6.20898H271.489L269.273 12.2888H267.898L265.673 6.20898Z" fill="#0F2940"/>
<path d="M272.561 4.54235C272.561 4.08891 272.93 3.71875 273.391 3.71875C273.853 3.71875 274.213 4.08891 274.213 4.54235C274.213 5.00504 273.853 5.3752 273.391 5.3752C272.921 5.3752 272.561 5.00504 272.561 4.54235ZM272.69 6.20805H274.075V12.2879H272.69V6.20805Z" fill="#0F2940"/>
<path d="M275.45 11.3826L276.401 10.5775C276.65 10.8273 277.149 11.216 277.814 11.216C278.386 11.216 278.801 11.0587 278.801 10.6237C278.801 10.1981 278.312 10.0037 277.629 9.73537C276.309 9.29118 275.626 8.78222 275.626 7.76429C275.626 6.67233 276.586 6.08008 277.786 6.08008C278.829 6.08008 279.54 6.53352 279.955 7.02398L278.995 7.81056C278.7 7.52369 278.34 7.30159 277.786 7.30159C277.287 7.30159 276.964 7.47742 276.964 7.80131C276.964 8.17146 277.509 8.3843 278.155 8.59714C279.328 8.9858 280.149 9.48552 280.149 10.6423C280.149 11.8175 279.226 12.4468 277.823 12.4468C276.835 12.4283 275.903 12.0211 275.45 11.3826Z" fill="#0F2940"/>
<path d="M281.284 9.25366C281.284 7.26407 282.364 6.07031 284.063 6.07031C285.771 6.07031 286.851 7.27332 286.851 9.25366C286.851 11.2525 285.771 12.4277 284.063 12.4277C282.364 12.4277 281.284 11.2525 281.284 9.25366ZM285.466 9.25366C285.466 8.09692 284.931 7.38437 284.063 7.38437C283.223 7.38437 282.678 8.09692 282.678 9.25366C282.678 10.4104 283.223 11.0952 284.063 11.0952C284.931 11.0952 285.466 10.4011 285.466 9.25366Z" fill="#0F2940"/>
<path d="M288.338 6.21056H289.723V6.83983C289.963 6.34012 290.36 6.0625 290.969 6.0625C291.421 6.0625 291.791 6.21982 292.095 6.47893L291.892 7.75596C291.643 7.58014 291.32 7.43208 290.858 7.43208C290.323 7.43208 289.723 7.7282 289.723 8.88494V12.2904H288.338V6.21056Z" fill="#0F2940"/>
<path d="M295.003 12.187L292.723 6.20898H294.126L295.538 9.94756C295.621 10.1511 295.668 10.3085 295.714 10.4935C295.76 10.2992 295.806 10.1511 295.88 9.94756L297.302 6.20898H298.705L295.501 14.593H294.071L295.003 12.187Z" fill="#0F2940"/>
<path d="M215.156 0L212.94 0.601504V16.0093L215.156 15.2689V0Z" fill="#EC6E29"/>
<path d="M204.17 0L201.954 0.601504V16.0093L204.17 15.2689V0Z" fill="#EC6E29"/>
<path fill-rule="evenodd" clip-rule="evenodd" d="M212.096 7.32006C212.096 7.32126 212.096 7.32246 212.097 7.32367L210.402 7.51817C210.398 7.48552 210.393 7.45307 210.388 7.42083L210.338 7.2033C210.231 6.84066 210.014 6.51683 209.715 6.27837C209.331 5.97271 208.842 5.83238 208.355 5.88827C207.868 5.94415 207.423 6.19166 207.118 6.57636C206.813 6.96106 206.673 7.45142 206.729 7.93958L205.034 8.13408C204.927 7.19531 205.196 6.2523 205.782 5.5125C206.369 4.7727 207.224 4.29671 208.161 4.18924C209.098 4.08177 210.038 4.35163 210.776 4.93945C210.982 5.10303 211.167 5.28751 211.329 5.48882L214.455 5.13013L214.846 7.00449L212.096 7.32006Z" fill="#EC6E29"/>
<path fill-rule="evenodd" clip-rule="evenodd" d="M205.044 8.64674C205.043 8.64554 205.043 8.64433 205.043 8.64313L206.738 8.44863C206.742 8.4813 206.746 8.51378 206.752 8.54605L206.802 8.76341C206.909 9.12609 207.125 9.44995 207.425 9.68842C207.808 9.99409 208.298 10.1344 208.785 10.0785C209.272 10.0226 209.717 9.77513 210.021 9.39043C210.326 9.00574 210.466 8.51537 210.411 8.02721L212.106 7.83271C212.213 8.77148 211.944 9.71449 211.357 10.4543C210.771 11.1941 209.915 11.6701 208.979 11.7776C208.042 11.885 207.101 11.6152 206.363 11.0273C206.158 10.8638 205.973 10.6793 205.81 10.478L202.685 10.8367L202.294 8.9623L205.044 8.64674Z" fill="#EC6E29"/>
</g>
<defs>
<clipPath id="clip0_4958_23910">
<rect width="97.0464" height="16" fill="white" transform="translate(201.954)"/>
</clipPath>
</defs>
</svg>
