<svg width="16" height="16" viewBox="0 0 16 16" fill="none" xmlns="http://www.w3.org/2000/svg">
<path d="M6.5 2.5H3.5C2.94772 2.5 2.5 2.94772 2.5 3.5V6.5C2.5 7.05228 2.94772 7.5 3.5 7.5H6.5C7.05228 7.5 7.5 7.05228 7.5 6.5V3.5C7.5 2.94772 7.05228 2.5 6.5 2.5Z" fill="url(#paint0_linear_4958_20988)"/>
<path d="M6.5 8.5H3.5C2.94772 8.5 2.5 8.94772 2.5 9.5V12.5C2.5 13.0523 2.94772 13.5 3.5 13.5H6.5C7.05228 13.5 7.5 13.0523 7.5 12.5V9.5C7.5 8.94772 7.05228 8.5 6.5 8.5Z" fill="url(#paint1_linear_4958_20988)"/>
<path d="M12.5 2.5H9.5C8.94772 2.5 8.5 2.94772 8.5 3.5V6.5C8.5 7.05228 8.94772 7.5 9.5 7.5H12.5C13.0523 7.5 13.5 7.05228 13.5 6.5V3.5C13.5 2.94772 13.0523 2.5 12.5 2.5Z" fill="url(#paint2_linear_4958_20988)"/>
<path d="M9 11.5C9.13261 11.5 9.25979 11.4473 9.35355 11.3536C9.44732 11.2598 9.5 11.1326 9.5 11V9C9.5 8.86739 9.44732 8.74021 9.35355 8.64645C9.25979 8.55268 9.13261 8.5 9 8.5C8.86739 8.5 8.74021 8.55268 8.64645 8.64645C8.55268 8.74021 8.5 8.86739 8.5 9V11C8.5 11.1326 8.55268 11.2598 8.64645 11.3536C8.74021 11.4473 8.86739 11.5 9 11.5Z" fill="url(#paint3_linear_4958_20988)"/>
<path d="M13 9.5H11.5V9C11.5 8.86739 11.4473 8.74021 11.3536 8.64645C11.2598 8.55268 11.1326 8.5 11 8.5C10.8674 8.5 10.7402 8.55268 10.6464 8.64645C10.5527 8.74021 10.5 8.86739 10.5 9V12.5H9C8.86739 12.5 8.74021 12.5527 8.64645 12.6464C8.55268 12.7402 8.5 12.8674 8.5 13C8.5 13.1326 8.55268 13.2598 8.64645 13.3536C8.74021 13.4473 8.86739 13.5 9 13.5H11C11.1326 13.5 11.2598 13.4473 11.3536 13.3536C11.4473 13.2598 11.5 13.1326 11.5 13V10.5H13C13.1326 10.5 13.2598 10.4473 13.3536 10.3536C13.4473 10.2598 13.5 10.1326 13.5 10C13.5 9.86739 13.4473 9.74021 13.3536 9.64645C13.2598 9.55268 13.1326 9.5 13 9.5Z" fill="url(#paint4_linear_4958_20988)"/>
<path d="M13 11.5C12.8674 11.5 12.7402 11.5527 12.6464 11.6464C12.5527 11.7402 12.5 11.8674 12.5 12V13C12.5 13.1326 12.5527 13.2598 12.6464 13.3536C12.7402 13.4473 12.8674 13.5 13 13.5C13.1326 13.5 13.2598 13.4473 13.3536 13.3536C13.4473 13.2598 13.5 13.1326 13.5 13V12C13.5 11.8674 13.4473 11.7402 13.3536 11.6464C13.2598 11.5527 13.1326 11.5 13 11.5Z" fill="url(#paint5_linear_4958_20988)"/>
<defs>
<linearGradient id="paint0_linear_4958_20988" x1="2.5" y1="2.2996" x2="7.29111" y2="7.69546" gradientUnits="userSpaceOnUse">
<stop stop-color="#2A56D8"/>
<stop offset="0.970218" stop-color="#119BF7"/>
</linearGradient>
<linearGradient id="paint1_linear_4958_20988" x1="2.5" y1="8.2996" x2="7.29111" y2="13.6955" gradientUnits="userSpaceOnUse">
<stop stop-color="#2A56D8"/>
<stop offset="0.970218" stop-color="#119BF7"/>
</linearGradient>
<linearGradient id="paint2_linear_4958_20988" x1="8.5" y1="2.2996" x2="13.2911" y2="7.69546" gradientUnits="userSpaceOnUse">
<stop stop-color="#2A56D8"/>
<stop offset="0.970218" stop-color="#119BF7"/>
</linearGradient>
<linearGradient id="paint3_linear_4958_20988" x1="8.5" y1="8.37976" x2="10.4051" y2="9.09496" gradientUnits="userSpaceOnUse">
<stop stop-color="#2A56D8"/>
<stop offset="0.970218" stop-color="#119BF7"/>
</linearGradient>
<linearGradient id="paint4_linear_4958_20988" x1="8.5" y1="8.2996" x2="13.2911" y2="13.6955" gradientUnits="userSpaceOnUse">
<stop stop-color="#2A56D8"/>
<stop offset="0.970218" stop-color="#119BF7"/>
</linearGradient>
<linearGradient id="paint5_linear_4958_20988" x1="12.5" y1="11.4198" x2="14.1503" y2="12.3491" gradientUnits="userSpaceOnUse">
<stop stop-color="#2A56D8"/>
<stop offset="0.970218" stop-color="#119BF7"/>
</linearGradient>
</defs>
</svg>
