<svg width="12" height="13" viewBox="0 0 12 13" fill="none" xmlns="http://www.w3.org/2000/svg">
<path d="M11 0.5H1C0.734784 0.5 0.48043 0.605357 0.292893 0.792893C0.105357 0.98043 0 1.23478 0 1.5V5.16875C0 10.7563 4.7375 12.6125 5.6875 12.925C5.89048 12.9918 6.10952 12.9918 6.3125 12.925C7.2625 12.6125 12 10.7563 12 5.16875V1.5C12 1.23478 11.8946 0.98043 11.7071 0.792893C11.5196 0.605357 11.2652 0.5 11 0.5ZM9.09375 4.8625L5.43125 8.3625C5.33656 8.45157 5.21124 8.5008 5.08125 8.5C4.95317 8.50049 4.82991 8.45118 4.7375 8.3625L2.90625 6.6125C2.85546 6.56819 2.81415 6.51406 2.78481 6.45337C2.75547 6.39269 2.7387 6.3267 2.73552 6.25937C2.73233 6.19204 2.74279 6.12476 2.76627 6.06157C2.78975 5.99839 2.82577 5.9406 2.87215 5.89169C2.91853 5.84278 2.97432 5.80375 3.03617 5.77695C3.09802 5.75015 3.16465 5.73614 3.23205 5.73574C3.29946 5.73535 3.36625 5.7486 3.4284 5.77467C3.49056 5.80075 3.5468 5.83913 3.59375 5.8875L5.08125 7.30625L8.40625 4.1375C8.50347 4.05268 8.62971 4.00872 8.75859 4.01482C8.88746 4.02092 9.00899 4.0766 9.09777 4.17022C9.18655 4.26384 9.2357 4.38815 9.23495 4.51717C9.2342 4.64618 9.18361 4.76992 9.09375 4.8625Z" fill="url(#paint0_linear_5361_655)"/>
<defs>
<linearGradient id="paint0_linear_5361_655" x1="-3.14615e-07" y1="4.02555e-07" x2="12" y2="13" gradientUnits="userSpaceOnUse">
<stop stop-color="#2A56D8"/>
<stop offset="0.970218" stop-color="#119BF7"/>
</linearGradient>
</defs>
</svg>
