<svg width="132" height="90" viewBox="0 0 132 90" fill="none" xmlns="http://www.w3.org/2000/svg">
<g clip-path="url(#clip0_4958_21623)">
<g clip-path="url(#clip1_4958_21623)">
<path d="M132 92H-71C-68.7757 86.2551 -64.6679 81.3825 -58.8773 79.937C-50.4064 77.8249 -41.4421 83.6316 -32.9901 81.4486C-28.1882 80.2095 -24.4079 76.5973 -20.4355 73.5992C-5.4492 62.2842 15.0878 58.9399 32.8211 64.929C42.0906 68.0579 50.5375 73.5297 60.0334 75.8569C72.312 78.8661 85.1527 76.3706 97.7793 75.9594C110.077 75.5578 127.698 80.6328 132 92Z" fill="#F3F5FD"/>
<path d="M78.4889 70.4336H61.8008V89.35H78.4889V70.4336Z" fill="#42474E"/>
<path d="M110.761 10H29.5285C27.7497 10 26.3076 11.444 26.3076 13.2253V76.4612C26.3076 78.2425 27.7497 79.6865 29.5285 79.6865H110.761C112.54 79.6865 113.982 78.2425 113.982 76.4612V13.2253C113.982 11.444 112.54 10 110.761 10Z" fill="#42474E"/>
<path d="M110.561 12.1992H29.7287C28.9422 12.1992 28.3047 12.8376 28.3047 13.6252V68.9438C28.3047 69.7313 28.9422 70.3697 29.7287 70.3697H110.561C111.348 70.3697 111.985 69.7313 111.985 68.9438V13.6252C111.985 12.8376 111.348 12.1992 110.561 12.1992Z" fill="white"/>
<path d="M83.7571 87.6562H56.5307C55.3326 87.6562 54.3613 88.6289 54.3613 89.8286C54.3613 91.0284 55.3326 92.001 56.5307 92.001H83.7571C84.9553 92.001 85.9265 91.0284 85.9265 89.8286C85.9265 88.6289 84.9553 87.6562 83.7571 87.6562Z" fill="#42474E"/>
<path d="M87.4932 23.6328H52.7959V49.8152H87.4932V23.6328Z" fill="#A8D3FB"/>
<path d="M77.6251 55.3301H62.6641V59.1118H77.6251V55.3301Z" fill="#A8D3FB"/>
<path d="M70.6286 30.8066H69.6602V42.6448H70.6286V30.8066Z" fill="white"/>
<path d="M76.0552 36.2402H64.2334V37.2099H76.0552V36.2402Z" fill="white"/>
<path d="M21.1426 48.1875L21.3627 48.3247H21.1426V48.1875Z" fill="#FD5D76"/>
<path d="M51.111 25.7109V48.326H21.1426V46.7628V25.7109H51.111Z" fill="#0CBC8B"/>
<path d="M24.7754 41.5111L30.0599 36.9062L36.0481 41.5111H24.7754Z" fill="white"/>
<path d="M30.998 41.5111L40.3997 34.75L47.4789 41.5111H30.998Z" fill="white"/>
<path d="M34.0611 34.8675C34.7064 34.8675 35.2295 34.3437 35.2295 33.6974C35.2295 33.0512 34.7064 32.5273 34.0611 32.5273C33.4157 32.5273 32.8926 33.0512 32.8926 33.6974C32.8926 34.3437 33.4157 34.8675 34.0611 34.8675Z" fill="white"/>
<path d="M117.497 91.58C119.87 91.0616 122.192 90.3171 124.46 87.8698C124.925 87.3683 125.378 86.7136 125.204 86.0506C125.072 85.5516 124.599 85.1985 124.097 85.0755C123.91 85.0317 123.719 85.01 123.527 85.0107C123.526 85.0107 123.525 85.0107 123.525 85.0107C123.229 85.0156 122.935 85.0476 122.645 85.1062L122.563 85.1223C121.182 85.3902 119.847 85.8606 118.603 86.5185C118.491 86.5777 118.361 86.5969 118.236 86.5731C118.111 86.5492 117.998 86.4837 117.915 86.3871C117.832 86.2906 117.784 86.1687 117.779 86.0414C117.774 85.914 117.812 85.7887 117.887 85.6859C118.024 85.4996 118.18 85.3277 118.352 85.1728C118.605 84.9496 118.878 84.7506 119.168 84.5783C119.555 84.3438 119.962 84.1408 120.363 83.9308C121.85 83.1527 123.273 82.2565 124.617 81.2509C125.577 80.5324 126.524 79.7249 127.044 78.6434C127.282 78.1459 127.422 77.5609 127.232 77.0427C126.919 76.1914 125.854 75.8693 124.951 75.9628C123.371 76.1269 122.03 77.1622 120.831 78.2054C119.836 79.0724 118.723 80.0314 117.405 79.9761C117.179 79.9778 116.958 79.9133 116.769 79.7905C116.414 79.5312 116.363 78.9967 116.532 78.5904C116.701 78.184 117.039 77.8767 117.364 77.5819C119.257 75.8698 121.128 74.0794 122.449 71.8953C123.769 69.7112 124.498 67.061 123.924 64.5721C123.756 63.845 123.47 63.1259 122.977 62.5654C122.484 62.0049 121.758 61.6175 121.012 61.6526C119.996 61.6988 119.166 62.4832 118.582 63.316C116.573 66.1747 116.364 69.8706 115.576 73.275C115.355 74.228 115.07 75.2004 114.428 75.9454C114.369 76.0172 114.295 76.0754 114.211 76.1161C113.715 76.3494 113.339 75.7607 113.201 75.2769C112.66 73.3626 112.667 71.2271 111.545 69.5848C111.117 68.9597 110.482 68.4131 109.727 68.3535C108.806 68.2807 107.951 68.9833 107.606 69.8428C107.262 70.7023 107.341 71.6744 107.553 72.5751C107.949 74.2458 108.782 75.7876 109.801 77.1678C110.338 77.8964 110.952 78.6387 111.055 79.5378C111.084 79.8428 111.035 80.1502 110.912 80.4307C110.789 80.7113 110.597 80.9557 110.353 81.1408C110.239 81.224 110.11 81.2835 109.973 81.3157C109.836 81.3479 109.693 81.3523 109.555 81.3285C109.255 81.2748 108.994 81.0969 108.744 80.924C108.638 80.8514 108.533 80.7779 108.426 80.7055C108.008 80.4167 107.589 80.1275 107.17 79.8378C106.106 79.102 104.81 78.3323 103.596 78.7823C102.977 79.0127 102.54 79.5329 102.302 80.1524C102.089 80.7148 102.036 81.3257 102.151 81.9162C102.396 83.1452 104.299 86.6701 105.128 87.6084C106.095 88.7041 109.38 93.3543 117.497 91.58Z" fill="#8DDBE0"/>
</g>
</g>
<defs>
<clipPath id="clip0_4958_21623">
<path d="M0 7C0 3.13401 3.13401 0 7 0H125C128.866 0 132 3.13401 132 7V90H7C3.13401 90 0 86.866 0 83V7Z" fill="white"/>
</clipPath>
<clipPath id="clip1_4958_21623">
<rect width="132" height="82" fill="white" transform="translate(0 10)"/>
</clipPath>
</defs>
</svg>
