<svg width="12" height="13" viewBox="0 0 12 13" fill="none" xmlns="http://www.w3.org/2000/svg">
<path d="M2.9125 4.31336C2.87624 4.22207 2.86698 4.12229 2.88582 4.02589C2.90465 3.92949 2.9508 3.84053 3.01875 3.76961L5.64375 1.14461C5.73855 1.05072 5.86658 0.998047 6 0.998047C6.13342 0.998047 6.26145 1.05072 6.35625 1.14461L8.98125 3.76961C9.0492 3.84053 9.09535 3.92949 9.11418 4.02589C9.13302 4.12229 9.12376 4.22207 9.0875 4.31336C9.05022 4.40553 8.9863 4.48449 8.90392 4.54016C8.82153 4.59582 8.72443 4.62566 8.625 4.62586H6.5V8.50086C6.5 8.63347 6.44732 8.76064 6.35355 8.85441C6.25979 8.94818 6.13261 9.00086 6 9.00086C5.86739 9.00086 5.74021 8.94818 5.64645 8.85441C5.55268 8.76064 5.5 8.63347 5.5 8.50086V4.62586H3.375C3.27557 4.62566 3.17847 4.59582 3.09608 4.54016C3.0137 4.48449 2.94978 4.40553 2.9125 4.31336ZM11.5 8.00086C11.3674 8.00086 11.2402 8.05354 11.1464 8.14731C11.0527 8.24107 11 8.36825 11 8.50086V12.0009H1V8.50086C1 8.36825 0.947321 8.24107 0.853553 8.14731C0.759785 8.05354 0.632608 8.00086 0.5 8.00086C0.367392 8.00086 0.240215 8.05354 0.146447 8.14731C0.0526785 8.24107 0 8.36825 0 8.50086V12.0009C0 12.2661 0.105357 12.5204 0.292893 12.708C0.48043 12.8955 0.734784 13.0009 1 13.0009H11C11.2652 13.0009 11.5196 12.8955 11.7071 12.708C11.8946 12.5204 12 12.2661 12 12.0009V8.50086C12 8.36825 11.9473 8.24107 11.8536 8.14731C11.7598 8.05354 11.6326 8.00086 11.5 8.00086Z" fill="#0151CA"/>
</svg>
