<svg width="14" height="13" viewBox="0 0 14 13" fill="none" xmlns="http://www.w3.org/2000/svg">
<path d="M13.4941 12.2495C12.5611 10.6423 11.0677 9.43603 9.3003 8.86196C10.1475 8.35818 10.8058 7.5902 11.1742 6.67598C11.5426 5.76176 11.6006 4.75189 11.3394 3.80149C11.0782 2.85109 10.5121 2.01275 9.72822 1.41525C8.94433 0.817748 7.98595 0.494141 7.0003 0.494141C6.01466 0.494141 5.05628 0.817748 4.27239 1.41525C3.48849 2.01275 2.92246 2.85109 2.66123 3.80149C2.4 4.75189 2.45803 5.76176 2.82641 6.67598C3.19478 7.5902 3.85313 8.35818 4.7003 8.86196C2.93286 9.43603 1.43951 10.6423 0.506554 12.2495C0.460749 12.3248 0.436523 12.4113 0.436523 12.4995C0.436523 12.5876 0.460749 12.6741 0.506554 12.7495C0.549289 12.8261 0.611909 12.8897 0.68781 12.9337C0.76371 12.9777 0.850078 13.0004 0.937804 12.9995H13.0628C13.1505 13.0004 13.2369 12.9777 13.3128 12.9337C13.3887 12.8897 13.4513 12.8261 13.4941 12.7495C13.5399 12.6741 13.5641 12.5876 13.5641 12.4995C13.5641 12.4113 13.5399 12.3248 13.4941 12.2495Z" fill="url(#paint0_linear_5361_841)"/>
<defs>
<linearGradient id="paint0_linear_5361_841" x1="0.436523" y1="-0.00707198" x2="12.337" y2="14.0624" gradientUnits="userSpaceOnUse">
<stop stop-color="#2A56D8"/>
<stop offset="0.970218" stop-color="#119BF7"/>
</linearGradient>
</defs>
</svg>
