<svg width="16" height="16" viewBox="0 0 16 16" fill="none" xmlns="http://www.w3.org/2000/svg">
<g clip-path="url(#clip0_4958_19872)">
<path d="M0.341719 7.9055C0.341344 9.24981 0.695344 10.5624 1.36847 11.7194L0.277344 15.6724L4.35434 14.6117C5.48199 15.2208 6.74543 15.54 8.02934 15.54H8.03272C12.2712 15.54 15.7213 12.1178 15.7232 7.91151C15.724 5.87325 14.9247 3.9566 13.4726 2.51462C12.0207 1.07275 10.0898 0.278274 8.03241 0.277344C3.79347 0.277344 0.343531 3.69936 0.341781 7.9055" fill="url(#paint0_linear_4958_19872)"/>
<path d="M0.066875 7.90177C0.0664375 9.29445 0.433125 10.654 1.13025 11.8524L0 15.9471L4.22319 14.8484C5.38681 15.4779 6.69694 15.8098 8.03006 15.8103H8.0335C12.424 15.8103 15.9981 12.265 16 7.90809C16.0007 5.79659 15.1727 3.81104 13.6687 2.3174C12.1646 0.823938 10.1646 0.000868217 8.0335 0C3.64225 0 0.068625 3.54481 0.066875 7.90177ZM2.58188 11.646L2.42419 11.3976C1.76131 10.3518 1.41144 9.14326 1.41194 7.90226C1.41338 4.28087 4.38363 1.33457 8.036 1.33457C9.80475 1.33532 11.467 2.01947 12.7172 3.26078C13.9674 4.5022 14.6554 6.15243 14.6549 7.9076C14.6533 11.529 11.683 14.4757 8.0335 14.4757H8.03088C6.84256 14.475 5.67712 14.1584 4.66075 13.56L4.41888 13.4177L1.91275 14.0696L2.58188 11.646V11.646Z" fill="url(#paint1_linear_4958_19872)"/>
<path d="M6.04125 4.59782C5.89213 4.26895 5.73519 4.26232 5.59337 4.25655C5.47725 4.25159 5.3445 4.25196 5.21187 4.25196C5.07912 4.25196 4.86344 4.30151 4.68112 4.49903C4.49862 4.69673 3.98438 5.1745 3.98438 6.14622C3.98438 7.11801 4.69769 8.05711 4.79713 8.18901C4.89669 8.32067 6.17419 10.3786 8.19744 11.1703C9.87894 11.8282 10.2211 11.6974 10.5861 11.6644C10.9511 11.6315 11.7638 11.1867 11.9296 10.7255C12.0956 10.2644 12.0956 9.86908 12.0458 9.78647C11.9961 9.70418 11.8633 9.65475 11.6642 9.55602C11.4651 9.45723 10.4865 8.9794 10.3041 8.91348C10.1216 8.84762 9.98887 8.81475 9.85612 9.01252C9.72337 9.20998 9.34219 9.65475 9.226 9.78647C9.10994 9.9185 8.99375 9.93494 8.79475 9.83615C8.59556 9.73704 7.9545 9.52873 7.19394 8.85593C6.60219 8.33239 6.20269 7.68588 6.08656 7.48811C5.97044 7.29066 6.07413 7.18362 6.17394 7.0852C6.26338 6.9967 6.37306 6.85456 6.47269 6.73928C6.57194 6.62393 6.60506 6.54163 6.67144 6.40991C6.73787 6.27807 6.70462 6.16272 6.65494 6.06393C6.60506 5.96514 6.21825 4.98833 6.04125 4.59782Z" fill="white"/>
</g>
<defs>
<linearGradient id="paint0_linear_4958_19872" x1="772.568" y1="1539.78" x2="772.568" y2="0.277344" gradientUnits="userSpaceOnUse">
<stop stop-color="#1FAF38"/>
<stop offset="1" stop-color="#60D669"/>
</linearGradient>
<linearGradient id="paint1_linear_4958_19872" x1="800" y1="1594.71" x2="800" y2="0" gradientUnits="userSpaceOnUse">
<stop stop-color="#F9F9F9"/>
<stop offset="1" stop-color="white"/>
</linearGradient>
<clipPath id="clip0_4958_19872">
<rect width="16" height="16" fill="white"/>
</clipPath>
</defs>
</svg>
