<svg width="23" height="22" viewBox="0 0 23 22" fill="none" xmlns="http://www.w3.org/2000/svg">
<g filter="url(#filter0_d_1079_5498)">
<path d="M7.89058 8.34919C7.89058 8.34919 9.70946 8.00164 12.3225 5.63373C14.9353 3.26582 16.2227 0.0596247 16.5335 0.0841694C16.8444 0.108714 18.2218 -0.482155 20.6478 5.20125C23.0737 10.8847 22.0182 12.1587 21.504 12.1337C20.9899 12.1085 17.524 11.0385 15.3349 11.2242C13.1458 11.4099 10.3087 12.4648 10.3087 12.4648L7.89058 8.34919Z" fill="white"/>
<path d="M3.96472 11.3013L4.54805 12.4881L4.80953 13.0199C5.16779 13.7492 6.03589 14.0709 6.7849 13.7522L10.6973 12.5154L8.58722 7.31343L4.65795 9.26163C3.90386 9.63553 3.59399 10.5468 3.96472 11.3013Z" fill="#17282F"/>
<path d="M6.14411 13.2336L7.31027 15.6822L7.93264 15.5285L11.8713 18.9141L13.0605 16.7456C13.0605 16.7456 10.7071 15.6545 10.2906 14.7945C9.87406 13.9346 10.3887 13.7567 10.3887 13.7567L9.30336 12.4539L6.14411 13.2336Z" fill="#17282F"/>
<path d="M20.4366 5.29732C21.7263 8.37523 22.2221 11.0997 21.5441 11.3824C20.8659 11.665 19.271 9.39891 17.9813 6.32084C16.6918 3.24277 16.196 0.518468 16.874 0.235713C17.552 -0.0468779 19.147 2.21925 20.4366 5.29732Z" fill="#17282F"/>
<path d="M3.58321 12.9844L4.64258 12.6853L4.02792 11.4343L3.22642 11.9003L3.58321 12.9844Z" fill="white"/>
<path d="M9.67578 12.9018L6.80278 14.6172L6.47027 13.9191L9.67578 12.9018Z" fill="white"/>
<path d="M4.74352 11.7381C4.75796 11.7725 5.2878 11.584 5.92691 11.3174C6.56634 11.0507 7.07273 10.8068 7.05829 10.7726C7.04402 10.7382 6.51434 10.9265 5.87491 11.1933C5.23581 11.46 4.72925 11.7038 4.74352 11.7381Z" fill="white"/>
<path d="M4.44132 10.9921C4.4569 11.026 4.93672 10.8401 5.51316 10.5768C6.08993 10.3135 6.54465 10.0728 6.5289 10.039C6.51348 10.0053 6.03383 10.1911 5.45706 10.4544C4.88062 10.7177 4.4259 10.9584 4.44132 10.9921Z" fill="white"/>
<path d="M5.13022 12.5177C5.1353 12.5357 5.26079 12.5105 5.46158 12.4549C5.56181 12.427 5.68073 12.3917 5.81229 12.3505C5.94303 12.3073 6.07935 12.2431 6.22535 12.1821C6.80737 11.9324 7.25339 11.6845 7.23994 11.6532C7.22386 11.6161 6.74913 11.811 6.17253 12.0584C6.02785 12.1188 5.89349 12.1862 5.76718 12.2346C5.64038 12.2817 5.5267 12.3256 5.43156 12.3645C5.24143 12.4424 5.1253 12.4999 5.13022 12.5177Z" fill="white"/>
<path d="M17.6504 4.54206C17.6504 4.54206 19.249 3.61492 20.0483 5.75637C20.8475 7.89781 19.1848 8.19922 19.1848 8.19922C18.538 7.13382 18.0228 5.91918 17.6504 4.54206Z" fill="white"/>
<path d="M16.0508 1.97792C16.0414 1.97923 16.0598 2.12356 16.1008 2.38422C16.1431 2.64423 16.2027 3.02173 16.2903 3.48579C16.3503 3.71487 16.4158 3.96474 16.4862 4.23293C16.5217 4.3671 16.5587 4.50603 16.5964 4.64904C16.6156 4.72055 16.6348 4.79304 16.6545 4.86651C16.6758 4.93949 16.7045 5.01132 16.7296 5.08512C16.8346 5.37966 16.9446 5.68859 17.0585 6.00865C17.0872 6.08883 17.1161 6.1695 17.1453 6.25083C17.1736 6.33265 17.2147 6.41004 17.2491 6.49071C17.3213 6.65074 17.3946 6.81323 17.4688 6.97751C17.5432 7.1418 17.6169 7.30429 17.6894 7.46432C17.7273 7.54352 17.7583 7.62533 17.8009 7.7006C17.8429 7.77636 17.8844 7.85147 17.9258 7.92592C18.0908 8.22308 18.2504 8.50992 18.4023 8.78335C18.4412 8.85109 18.4761 8.91982 18.517 8.98429C18.5593 9.04778 18.6011 9.11029 18.6423 9.17198C18.7248 9.29519 18.8049 9.4148 18.8825 9.53049C19.0376 9.76056 19.1825 9.9754 19.315 10.1719C19.6051 10.5435 19.8488 10.8371 20.0163 11.0408C20.1848 11.2437 20.2812 11.353 20.2886 11.3475C20.296 11.3417 20.2133 11.2213 20.0576 11.0086C19.8961 10.7919 19.6692 10.4874 19.3905 10.1137C19.2632 9.91568 19.1241 9.69952 18.975 9.46782C18.9 9.35197 18.8226 9.23219 18.7427 9.10898C18.7027 9.04745 18.6621 8.98478 18.621 8.92146C18.5814 8.85731 18.5475 8.78826 18.5096 8.72052C18.3608 8.44774 18.2048 8.16155 18.0429 7.86505C18.0024 7.79109 17.9615 7.71631 17.9202 7.64104C17.878 7.5661 17.8475 7.48461 17.8101 7.4059C17.7383 7.24685 17.6654 7.08535 17.5918 6.92221C17.518 6.75907 17.4448 6.59789 17.3728 6.43901C17.3383 6.35915 17.2973 6.28225 17.2691 6.20125C17.2398 6.12058 17.2107 6.04056 17.1818 5.9612C17.066 5.64425 16.9543 5.33826 16.8479 5.0465C16.8219 4.97336 16.7926 4.90234 16.7704 4.83018C16.7501 4.75737 16.7299 4.68553 16.7101 4.61484C16.6702 4.47347 16.6313 4.33601 16.5939 4.20315C16.5183 3.93806 16.4479 3.69065 16.3833 3.46419C16.2868 3.00946 16.2084 2.63916 16.1527 2.37538C16.0957 2.11832 16.0598 1.97661 16.0508 1.97792Z" fill="#17282F"/>
</g>
<defs>
<filter id="filter0_d_1079_5498" x="0.22644" y="0.0761719" width="21.9532" height="21.8379" filterUnits="userSpaceOnUse" color-interpolation-filters="sRGB">
<feFlood flood-opacity="0" result="BackgroundImageFix"/>
<feColorMatrix in="SourceAlpha" type="matrix" values="0 0 0 0 0 0 0 0 0 0 0 0 0 0 0 0 0 0 127 0" result="hardAlpha"/>
<feOffset dx="-2" dy="2"/>
<feGaussianBlur stdDeviation="0.5"/>
<feComposite in2="hardAlpha" operator="out"/>
<feColorMatrix type="matrix" values="0 0 0 0 0 0 0 0 0 0 0 0 0 0 0 0 0 0 0.25 0"/>
<feBlend mode="normal" in2="BackgroundImageFix" result="effect1_dropShadow_1079_5498"/>
<feBlend mode="normal" in="SourceGraphic" in2="effect1_dropShadow_1079_5498" result="shape"/>
</filter>
</defs>
</svg>
