<svg width="79" height="37" viewBox="0 0 79 37" fill="none" xmlns="http://www.w3.org/2000/svg">
<path d="M3.56765 12.706H3.62812C3.62812 12.5234 3.64429 12.3308 3.62422 12.1494C3.61279 12.0461 3.57179 11.9559 3.56822 11.85C3.55341 11.4125 3.56765 10.9714 3.56765 10.5334C3.56765 10.2537 3.54158 9.95678 3.57155 9.67886C3.59891 9.42519 3.6566 9.17109 3.68469 8.91752C3.72003 8.59848 3.749 8.2848 3.82317 7.97129C4.00524 7.20147 4.26457 6.39645 4.69313 5.74313C6.02697 3.70974 8.54177 3.27056 10.6757 3.55055C10.8045 3.56747 10.936 3.54258 11.0649 3.55904C11.3905 3.60065 11.7158 3.68002 12.0387 3.74378C15.1747 4.36297 18.1601 5.80676 20.8997 7.56261C22.0906 8.32589 23.2939 9.0939 24.4157 9.98118C25.4375 10.7894 26.4748 11.5785 27.4614 12.4355C27.7695 12.7032 28.0923 12.9647 28.3899 13.2453C28.5685 13.4138 28.7532 13.6455 28.9654 13.7594C28.8919 13.5971 28.7451 13.4847 28.6334 13.353C28.5642 13.2714 28.5218 13.1704 28.4509 13.0904C28.2597 12.8748 28.0248 12.6914 27.8266 12.4756C26.8289 11.3895 25.7636 10.3435 24.626 9.4398C24.1527 9.06381 23.6995 8.65076 23.2284 8.26943C22.5041 7.68316 21.7324 7.13306 20.9689 6.60664C19.0487 5.28257 16.9826 4.14219 14.8626 3.24898C13.9504 2.86467 13.0023 2.57061 12.0552 2.31889C11.7918 2.24891 11.5146 2.22448 11.2526 2.15725C10.4766 1.9581 9.71923 1.90889 8.91933 1.90889C8.58441 1.90889 8.22648 1.86951 7.89404 1.91313C6.50614 2.09524 5.08405 2.63112 4.16576 3.85224C3.52365 4.70611 3.2083 5.78638 3.03124 6.85221C3.00649 7.00119 3.03568 7.15621 3.01951 7.30618C2.96592 7.80308 2.91077 8.34528 2.96683 8.85169C2.97578 8.93254 3.01078 9.00535 3.01951 9.08633C3.05939 9.4562 3.03069 9.8313 3.09171 10.1987C3.17277 10.6866 3.23143 11.1941 3.33952 11.6762C3.4142 12.0091 3.54727 12.364 3.56765 12.706ZM19.3506 8.03166V30.7452C19.6202 30.6004 19.8539 30.2411 20.0661 30.01L21.5376 28.408C21.7789 28.1453 22.0129 27.8704 22.2637 27.6186C22.3456 27.5362 22.4448 27.4834 22.5253 27.3984C23.5135 26.354 24.4742 25.2767 25.4481 24.2164L26.5567 23.0094C26.729 22.8218 26.9827 22.6228 27.0908 22.384C26.9149 22.4784 26.7753 22.6837 26.6373 22.8339L25.8109 23.7336L23.5331 26.2134C23.1614 26.6181 22.7996 27.1179 22.3741 27.4534V10.6651C22.1219 10.5944 21.9212 10.2794 21.7166 10.1128C21.1117 9.62029 20.5381 9.07859 19.9476 8.56553C19.7532 8.39666 19.5745 8.15188 19.3506 8.03166Z" fill="#84CBF1"/>
<path d="M14.9971 9.2168V9.28263H15.0575V9.2168H14.9971Z" fill="#6689CD"/>
<path d="M9.00981 28.9026V26.4995V25.8741C9.00984 25.7705 8.99814 25.6548 9.04845 25.562C9.12549 25.4197 9.2636 25.3363 9.38034 25.2413C9.53781 25.1131 9.69878 24.9499 9.84591 24.8081C10.2574 24.4114 10.6703 24.0214 11.095 23.6428C11.3389 23.4254 11.5513 23.154 11.8059 22.9517C12.0916 22.7248 12.3417 22.452 12.6089 22.1999C12.7148 22.1 12.8752 22.0372 12.925 21.8803C12.9728 21.7297 12.9404 21.522 12.9404 21.3643V20.2451V16.5583V15.439C12.9404 15.2836 12.9056 15.0676 12.9659 14.9231C13.0172 14.8003 13.1464 14.699 13.2327 14.6051L13.7971 13.9906L15.712 11.9058L16.3772 11.1816C16.445 11.1078 16.5873 11.0003 16.5415 10.8792C16.4854 10.7307 16.2989 10.5916 16.1958 10.4794L15.3693 9.57962C15.2606 9.46121 15.1043 9.20748 14.9287 9.32546C14.8142 9.40235 14.7183 9.54229 14.6235 9.64546L13.9987 10.3258L12.0636 12.4325L5.87538 19.1698L3.73876 21.496L3.21466 22.0666C3.14412 22.1434 3.03125 22.232 3.03125 22.3519C3.03125 22.5226 3.27413 22.7019 3.37593 22.8127L4.42408 23.9539L7.58874 27.3993L8.51597 28.4088C8.66542 28.5715 8.81932 28.8003 9.00981 28.9026Z" fill="#042751"/>
<path d="M16.5693 10.9287V10.9945H16.6298V10.9287H16.5693Z" fill="#B6C8ED"/>
<path d="M16.5082 10.9951C16.2694 11.3541 15.9193 11.6582 15.6314 11.9717L13.8979 13.859L13.273 14.5393C13.1582 14.6643 13.0127 14.7857 12.9404 14.9453C13.0645 14.8787 13.1557 14.7548 13.2529 14.649L13.777 14.0785L15.5709 12.1253L16.2361 11.4011C16.3509 11.2761 16.4964 11.1547 16.5687 10.9951H16.5082Z" fill="#6689CD"/>
<path d="M3.62793 12.7725V12.97H3.6884V12.7725H3.62793Z" fill="#91B3FA"/>
<path d="M22.374 17.249V27.4537H22.4345V20.0471V18.1378C22.4345 17.9197 22.3705 17.5596 22.495 17.3807V17.3149L22.374 17.249Z" fill="#6689CD"/>
<path d="M22.4346 17.3809V27.388C22.6032 27.2975 22.7357 27.104 22.8679 26.96L23.6944 26.0603L25.9318 23.6243C26.3035 23.2196 26.6654 22.7199 27.0908 22.3844V22.3186C26.6728 21.9889 26.3172 21.4983 25.952 21.1006L23.7347 18.6866L22.8679 17.743C22.7419 17.6057 22.6188 17.4101 22.4346 17.3809Z" fill="#042751"/>
<path d="M12.8799 21.9238V21.9897H12.9404V21.9238H12.8799Z" fill="#91B3FA"/>
<path d="M12.6387 22.1211V22.1869H12.6991V22.1211H12.6387Z" fill="#6689CD"/>
<path d="M12.578 22.1865L12.5176 22.3182C12.5817 22.2826 12.6058 22.2563 12.6385 22.1865H12.578Z" fill="#B6C8ED"/>
<path d="M2.96289 22.3184V22.3842H3.02336V22.3184H2.96289Z" fill="#6689CD"/>
<path d="M12.457 22.3184V22.3842H12.5175V22.3184H12.457Z" fill="#91B3FA"/>
<path d="M12.2148 22.5156V22.5815H12.2753V22.5156H12.2148Z" fill="#6689CD"/>
<path d="M12.1542 22.582L12.0938 22.7137C12.1579 22.6781 12.182 22.6519 12.2147 22.582H12.1542Z" fill="#B6C8ED"/>
<path d="M15.1182 22.582C14.9114 22.8928 14.6116 23.1555 14.3623 23.4269L12.911 25.007C12.6865 25.2515 12.3613 25.5066 12.1938 25.8001C12.1219 25.926 12.1551 26.1269 12.1551 26.2689V27.3552V30.9103V31.9308C12.1551 32.0653 12.1257 32.2501 12.1806 32.3746C12.2266 32.4786 12.3332 32.5635 12.4071 32.644L12.8707 33.1488C13.2212 33.5303 13.5567 33.9664 13.9401 34.3081C14.1664 34.5099 14.3648 34.7348 14.5844 34.9467C14.7486 35.1048 14.9255 35.2213 15.0577 35.4201H15.1182C15.2617 35.1199 15.1787 34.634 15.1787 34.3009V31.7662V22.582H15.1182ZM12.0342 22.7137V22.7795H12.0947V22.7137H12.0342Z" fill="#84CBF1"/>
<path d="M11.792 22.9111V22.977H11.8525V22.9111H11.792Z" fill="#6689CD"/>
<path d="M11.7314 22.9766L11.6709 23.1082C11.735 23.0727 11.7592 23.0464 11.7918 22.9766H11.7314Z" fill="#B6C8ED"/>
<path d="M11.6104 23.1084V23.1742H11.6708V23.1084H11.6104Z" fill="#91B3FA"/>
<path d="M11.3682 23.3057V23.3715H11.4286V23.3057H11.3682Z" fill="#6689CD"/>
<path d="M11.3085 23.3721L11.248 23.5037C11.3122 23.4682 11.3363 23.4419 11.369 23.3721H11.3085Z" fill="#B6C8ED"/>
<path d="M11.1875 23.5039V23.5697H11.248V23.5039H11.1875Z" fill="#91B3FA"/>
<path d="M10.9453 23.7012V23.767H11.0058V23.7012H10.9453Z" fill="#6689CD"/>
<path d="M10.8847 23.7666L10.8242 23.8983C10.8883 23.8627 10.9125 23.8364 10.9452 23.7666H10.8847Z" fill="#B6C8ED"/>
<path d="M10.7637 23.8984V23.9643H10.8241V23.8984H10.7637Z" fill="#91B3FA"/>
<path d="M10.5215 24.0957V24.1615H10.582V24.0957H10.5215Z" fill="#6689CD"/>
<path d="M10.4618 24.1621L10.4014 24.2938C10.4655 24.2582 10.4896 24.2319 10.5223 24.1621H10.4618Z" fill="#B6C8ED"/>
<path d="M10.3408 24.2939V24.3598H10.4013V24.2939H10.3408Z" fill="#91B3FA"/>
<path d="M10.0986 24.4912V24.557H10.1591V24.4912H10.0986Z" fill="#6689CD"/>
<path d="M10.038 24.5566L9.97754 24.6883C10.0417 24.6527 10.0658 24.6265 10.0985 24.5566H10.038Z" fill="#B6C8ED"/>
<path d="M9.91699 24.6885V24.7543H9.97746V24.6885H9.91699Z" fill="#91B3FA"/>
<path d="M9.67578 24.8857V24.9516H9.73625V24.8857H9.67578Z" fill="#6689CD"/>
<path d="M9.61516 24.9521L9.55469 25.0838C9.61882 25.0482 9.64294 25.022 9.67563 24.9521H9.61516Z" fill="#B6C8ED"/>
<path d="M9.49414 25.084V25.1498H9.55461V25.084H9.49414Z" fill="#91B3FA"/>
<path d="M9.25195 25.2812V25.3471H9.31242V25.2812H9.25195Z" fill="#6689CD"/>
<path d="M9.19133 25.3467L9.13086 25.4784C9.19499 25.4428 9.21912 25.4165 9.2518 25.3467H9.19133Z" fill="#B6C8ED"/>
<path d="M9.07031 25.4785V25.5444H9.13078V25.4785H9.07031Z" fill="#91B3FA"/>
<path d="M9.00977 25.5449V28.9684H9.07024V25.5449H9.00977Z" fill="#6689CD"/>
<path d="M41.8419 14.7698C41.7821 15.4769 41.55 16.1054 41.1455 16.6553C40.7455 17.2052 40.2169 17.6281 39.5596 17.9238C38.9068 18.2196 38.1989 18.3605 37.4358 18.3467C36.3877 18.3236 35.5626 17.9839 34.9604 17.3277C34.3582 16.6715 34.0296 15.7819 33.9744 14.6589C33.933 13.9103 34.0135 13.0946 34.2157 12.2119C34.4226 11.3293 34.7559 10.5621 35.2156 9.91053C35.6798 9.25431 36.2246 8.76445 36.8497 8.44096C37.4795 8.11285 38.1667 7.95573 38.9114 7.96959C40.0055 7.98808 40.8697 8.3185 41.504 8.96086C42.143 9.60322 42.49 10.4882 42.5452 11.6158L40.1939 11.6089C40.2031 10.9942 40.0928 10.5552 39.863 10.2918C39.6331 10.0284 39.27 9.88743 38.7735 9.86894C37.5324 9.82735 36.7762 10.7978 36.505 12.7803C36.3809 13.6769 36.3188 14.3169 36.3188 14.7005C36.2958 15.8373 36.7141 16.4219 37.5737 16.4543C38.1299 16.4728 38.5735 16.3364 38.9045 16.0453C39.2355 15.7495 39.4469 15.3336 39.5389 14.7975L41.8419 14.7698Z" fill="#042751"/>
<path d="M45.8541 18.208H43.4959L45.2404 8.11516H47.5917L45.8541 18.208Z" fill="#042751"/>
<path d="M48.3907 18.208L50.1283 8.11516L53.0795 8.1221C53.9483 8.1221 54.7068 8.35316 55.3549 8.81529C56.0031 9.27279 56.4628 9.89898 56.734 10.6938C56.9684 11.3917 57.0397 12.1449 56.9478 12.9536L56.8995 13.3765C56.7754 14.2823 56.4766 15.1025 56.0031 15.8373C55.5296 16.5721 54.9205 17.1498 54.1759 17.5703C53.4312 17.9862 52.6267 18.1988 51.7625 18.208H48.3907ZM52.1693 9.99371L51.073 16.3364L51.7625 16.3434C52.5716 16.3434 53.2197 16.0291 53.707 15.4006C54.1988 14.7721 54.4907 13.8109 54.5827 12.5169L54.5965 12.2882C54.6286 11.5488 54.5137 10.9873 54.2517 10.6037C53.9897 10.2202 53.5967 10.0191 53.0726 10.0006L52.1693 9.99371Z" fill="#042751"/>
<path d="M66.5727 14.7698C66.5129 15.4769 66.2808 16.1054 65.8763 16.6553C65.4764 17.2052 64.9477 17.6281 64.2904 17.9238C63.6376 18.2196 62.9297 18.3605 62.1666 18.3467C61.1186 18.3236 60.2934 17.9839 59.6912 17.3277C59.089 16.6715 58.7604 15.7819 58.7052 14.6589C58.6638 13.9103 58.7443 13.0946 58.9465 12.2119C59.1534 11.3293 59.4867 10.5621 59.9464 9.91053C60.4106 9.25431 60.9554 8.76445 61.5805 8.44096C62.2103 8.11285 62.8975 7.95573 63.6422 7.96959C64.7363 7.98808 65.6005 8.3185 66.2348 8.96086C66.8738 9.60322 67.2209 10.4882 67.276 11.6158L64.9247 11.6089C64.9339 10.9942 64.8236 10.5552 64.5938 10.2918C64.3639 10.0284 64.0008 9.88743 63.5043 9.86894C62.2632 9.82735 61.507 10.7978 61.2358 12.7803C61.1117 13.6769 61.0496 14.3169 61.0496 14.7005C61.0266 15.8373 61.4449 16.4219 62.3045 16.4543C62.8608 16.4728 63.3043 16.3364 63.6353 16.0453C63.9663 15.7495 64.1777 15.3336 64.2697 14.7975L66.5727 14.7698Z" fill="#042751"/>
<path d="M72.2122 18.3467C71.1687 18.3236 70.3321 17.977 69.7023 17.3069C69.0726 16.6368 68.7163 15.7403 68.6336 14.6173C68.5876 14.0628 68.6313 13.4112 68.7646 12.6625C68.8979 11.9092 69.1346 11.216 69.4748 10.5829C69.8149 9.94981 70.2402 9.42299 70.7504 9.00245C71.6054 8.29539 72.5891 7.95342 73.7016 7.97652C74.3865 7.99039 74.9841 8.14982 75.4943 8.45483C76.0092 8.75521 76.4206 9.18961 76.7286 9.75803C77.0366 10.3264 77.2159 10.9734 77.2664 11.699C77.3032 12.2119 77.271 12.7965 77.1699 13.4527C77.0734 14.1043 76.8918 14.7282 76.6252 15.3244C76.3631 15.9159 76.023 16.4381 75.6047 16.891C75.1864 17.3439 74.6922 17.7043 74.1222 17.9724C73.5568 18.2358 72.9201 18.3605 72.2122 18.3467ZM74.9013 11.6782C74.8554 10.5229 74.4095 9.92208 73.5637 9.87587C72.9109 9.84352 72.3708 10.1046 71.9433 10.6592C71.5158 11.2091 71.2331 12.0225 71.0952 13.0992C71.0078 13.7647 70.9757 14.28 70.9986 14.645C71.0446 15.8188 71.4951 16.4219 72.3501 16.4543C72.9109 16.482 73.3936 16.281 73.7981 15.8512C74.2026 15.4168 74.4945 14.7883 74.6738 13.9657C74.8531 13.1385 74.9289 12.376 74.9013 11.6782Z" fill="#042751"/>
<path d="M35.1046 28.8992L35.1784 29.4081L35.2865 28.9495L36.0458 26.2567H36.4729L37.2138 28.9495L37.3192 29.416L37.4009 28.8965L37.9968 26.2567H38.5056L37.5749 30.1157H37.1136L36.3226 27.3036L36.262 27.0094L36.2014 27.3036L35.3814 30.1157H34.9201L33.992 26.2567H34.4982L35.1046 28.8992Z" fill="#042751"/>
<path d="M41.5095 28.332H39.846V29.6996H41.7785V30.1157H39.3398V26.2567H41.7521V26.6755H39.846V27.9159H41.5095V28.332Z" fill="#042751"/>
<path d="M44.9416 26.2567L46.1966 29.4054L47.4515 26.2567H48.108V30.1157H47.6018V28.6129L47.6492 26.9909L46.389 30.1157H46.0015L44.7439 26.9988L44.794 28.6129V30.1157H44.2878V26.2567H44.9416Z" fill="#042751"/>
<path d="M51.4388 29.1086H49.8306L49.4694 30.1157H48.9474L50.4133 26.2567H50.8562L52.3247 30.1157H51.8053L51.4388 29.1086ZM49.9835 28.6898H51.2886L50.6347 26.8849L49.9835 28.6898Z" fill="#042751"/>
<path d="M54.0869 28.3214L53.6176 28.8117V30.1157H53.1114V26.2567H53.6176V28.165L55.3233 26.2567H55.935L54.4243 27.9609L56.0536 30.1157H55.4473L54.0869 28.3214Z" fill="#042751"/>
<path d="M58.9363 28.332H57.2727V29.6996H59.2052V30.1157H56.7665V26.2567H59.1788V26.6755H57.2727V27.9159H58.9363V28.332Z" fill="#042751"/>
<path d="M64.5382 28.8912C64.4907 29.2994 64.3404 29.6148 64.0873 29.8374C63.836 30.0583 63.5012 30.1687 63.0829 30.1687C62.6294 30.1687 62.2656 30.0053 61.9914 29.6784C61.7189 29.3515 61.5827 28.9142 61.5827 28.3664V27.9954C61.5827 27.6367 61.646 27.3213 61.7726 27.0492C61.9009 26.7771 62.0819 26.5686 62.3157 26.4237C62.5494 26.277 62.8201 26.2037 63.1277 26.2037C63.5354 26.2037 63.8624 26.3185 64.1084 26.5482C64.3545 26.7762 64.4977 27.0925 64.5382 27.4971H64.0293C63.9854 27.1897 63.8896 26.967 63.742 26.8292C63.5961 26.6914 63.3913 26.6225 63.1277 26.6225C62.8043 26.6225 62.5503 26.7426 62.3658 26.9829C62.183 27.2232 62.0916 27.5651 62.0916 28.0086V28.3824C62.0916 28.8011 62.1786 29.1342 62.3526 29.3816C62.5266 29.6289 62.77 29.7526 63.0829 29.7526C63.3641 29.7526 63.5794 29.689 63.7288 29.5618C63.8799 29.4328 63.9801 29.2093 64.0293 28.8912H64.5382Z" fill="#042751"/>
<path d="M66.0446 30.1157H65.5384V26.2567H66.0446V30.1157Z" fill="#042751"/>
<path d="M69.8158 26.6755H68.5819V30.1157H68.0784V26.6755H66.8471V26.2567H69.8158V26.6755Z" fill="#042751"/>
<path d="M71.1983 30.1157H70.6921V26.2567H71.1983V30.1157Z" fill="#042751"/>
<path d="M74.5661 28.332H72.9025V29.6996H74.835V30.1157H72.3963V26.2567H74.8086V26.6755H72.9025V27.9159H74.5661V28.332Z" fill="#042751"/>
<path d="M76.8661 28.3956C76.4319 28.2701 76.1156 28.1164 75.917 27.9344C75.7201 27.7507 75.6217 27.5245 75.6217 27.2559C75.6217 26.952 75.7421 26.7011 75.9829 26.5032C76.2254 26.3035 76.54 26.2037 76.9267 26.2037C77.1904 26.2037 77.425 26.2549 77.6306 26.3574C77.838 26.4599 77.998 26.6013 78.1105 26.7815C78.2247 26.9617 78.2818 27.1587 78.2818 27.3725H77.773C77.773 27.1393 77.6992 26.9564 77.5515 26.8239C77.4039 26.6896 77.1956 26.6225 76.9267 26.6225C76.6771 26.6225 76.482 26.6781 76.3414 26.7894C76.2026 26.899 76.1331 27.0518 76.1331 27.248C76.1331 27.4052 76.1991 27.5386 76.3309 27.6482C76.4645 27.756 76.6903 27.8549 77.0084 27.945C77.3283 28.0351 77.5779 28.135 77.7572 28.2445C77.9382 28.3523 78.0718 28.4787 78.1579 28.6235C78.2458 28.7684 78.2897 28.9389 78.2897 29.1351C78.2897 29.4478 78.1685 29.6987 77.9259 29.8878C77.6834 30.0751 77.3591 30.1687 76.9531 30.1687C76.6894 30.1687 76.4434 30.1184 76.2149 30.0177C75.9864 29.9152 75.8097 29.7756 75.685 29.5989C75.5619 29.4222 75.5004 29.2217 75.5004 28.9973H76.0092C76.0092 29.2305 76.0945 29.4151 76.265 29.5512C76.4372 29.6855 76.6666 29.7526 76.9531 29.7526C77.2202 29.7526 77.425 29.6979 77.5674 29.5883C77.7097 29.4788 77.7809 29.3294 77.7809 29.1404C77.7809 28.9513 77.715 28.8055 77.5832 28.7031C77.4514 28.5988 77.2123 28.4963 76.8661 28.3956Z" fill="#042751"/>
</svg>
