<svg width="61" height="61" viewBox="0 0 61 61" fill="none" xmlns="http://www.w3.org/2000/svg">
<g clip-path="url(#clip0_5713_20286)">
<path d="M43.3175 7.35156H17.2919C17.012 7.35156 16.7852 7.57697 16.7852 7.85504V52.5618C16.7852 52.8399 17.012 53.0653 17.2919 53.0653H43.3175C43.5974 53.0653 43.8243 52.8399 43.8243 52.5618V7.85504C43.8243 7.57697 43.5974 7.35156 43.3175 7.35156Z" fill="#212121"/>
<path d="M42.4049 11.582H18.5469V46.2342H42.4049V11.582Z" fill="#95A6C2"/>
<path d="M32.4296 48.8047H28.6323C28.4923 48.8047 28.3789 48.9174 28.3789 49.0564V50.3593C28.3789 50.4983 28.4923 50.611 28.6323 50.611H32.4296C32.5696 50.611 32.683 50.4983 32.683 50.3593V49.0564C32.683 48.9174 32.5696 48.8047 32.4296 48.8047Z" fill="#424242"/>
<path d="M43.9907 12.5742H43.6211V22.7892H43.9907V12.5742Z" fill="#212121"/>
<path d="M44.0219 28.6016H43.6523V31.8128H44.0219V28.6016Z" fill="#212121"/>
<path d="M21.7415 9.88017C21.8648 10.0048 22.0664 10.0066 22.1919 9.8841C22.3174 9.76162 22.3191 9.56129 22.1959 9.43664C22.0726 9.31199 21.8709 9.31023 21.7455 9.4327C21.62 9.55518 21.6182 9.75552 21.7415 9.88017Z" fill="#424242"/>
<path d="M21.7938 9.8305C21.8892 9.92698 22.0453 9.92834 22.1424 9.83354C22.2395 9.73874 22.2408 9.58368 22.1454 9.4872C22.05 9.39071 21.8939 9.38935 21.7968 9.48415C21.6997 9.57895 21.6983 9.73402 21.7938 9.8305Z" fill="#595959"/>
<path fill-rule="evenodd" clip-rule="evenodd" d="M22.1441 9.48733C22.2395 9.58381 22.2381 9.73887 22.141 9.83366C22.123 9.85121 22.1031 9.86548 22.0818 9.87644C22.0131 9.84002 21.9537 9.77432 21.9205 9.68894C21.8836 9.59382 21.8874 9.49502 21.9233 9.41815C22.0011 9.40387 22.0844 9.42702 22.1441 9.48733V9.48733Z" fill="#636363"/>
<path d="M29.6749 9.70032C29.7153 9.70032 29.7481 9.66772 29.7481 9.62751C29.7481 9.58729 29.7153 9.55469 29.6749 9.55469C29.6344 9.55469 29.6016 9.58729 29.6016 9.62751C29.6016 9.66772 29.6344 9.70032 29.6749 9.70032Z" fill="#121212"/>
<path d="M30.0381 9.70032C30.0786 9.70032 30.1114 9.66772 30.1114 9.62751C30.1114 9.58729 30.0786 9.55469 30.0381 9.55469C29.9977 9.55469 29.9648 9.58729 29.9648 9.62751C29.9648 9.66772 29.9977 9.70032 30.0381 9.70032Z" fill="#121212"/>
<path d="M30.4024 9.70032C30.4429 9.70032 30.4757 9.66772 30.4757 9.62751C30.4757 9.58729 30.4429 9.55469 30.4024 9.55469C30.3619 9.55469 30.3291 9.58729 30.3291 9.62751C30.3291 9.66772 30.3619 9.70032 30.4024 9.70032Z" fill="#121212"/>
<path d="M30.7657 9.70032C30.8062 9.70032 30.839 9.66772 30.839 9.62751C30.839 9.58729 30.8062 9.55469 30.7657 9.55469C30.7252 9.55469 30.6924 9.58729 30.6924 9.62751C30.6924 9.66772 30.7252 9.70032 30.7657 9.70032Z" fill="#121212"/>
<path d="M31.128 9.70032C31.1685 9.70032 31.2013 9.66772 31.2013 9.62751C31.2013 9.58729 31.1685 9.55469 31.128 9.55469C31.0875 9.55469 31.0547 9.58729 31.0547 9.62751C31.0547 9.66772 31.0875 9.70032 31.128 9.70032Z" fill="#121212"/>
<path d="M30.042 9.34095C30.0825 9.34095 30.1153 9.30834 30.1153 9.26813C30.1153 9.22791 30.0825 9.19531 30.042 9.19531C30.0016 9.19531 29.9688 9.22791 29.9688 9.26813C29.9688 9.30834 30.0016 9.34095 30.042 9.34095Z" fill="#121212"/>
<path d="M30.4053 9.34095C30.4458 9.34095 30.4786 9.30834 30.4786 9.26813C30.4786 9.22791 30.4458 9.19531 30.4053 9.19531C30.3648 9.19531 30.332 9.22791 30.332 9.26813C30.332 9.30834 30.3648 9.34095 30.4053 9.34095Z" fill="#121212"/>
<path d="M30.7686 9.34095C30.8091 9.34095 30.8419 9.30834 30.8419 9.26813C30.8419 9.22791 30.8091 9.19531 30.7686 9.19531C30.7281 9.19531 30.6953 9.22791 30.6953 9.26813C30.6953 9.30834 30.7281 9.34095 30.7686 9.34095Z" fill="#121212"/>
<path d="M30.042 10.0636C30.0825 10.0636 30.1153 10.031 30.1153 9.99079C30.1153 9.95057 30.0825 9.91797 30.042 9.91797C30.0016 9.91797 29.9688 9.95057 29.9688 9.99079C29.9688 10.031 30.0016 10.0636 30.042 10.0636Z" fill="#121212"/>
<path d="M30.4053 10.0636C30.4458 10.0636 30.4786 10.031 30.4786 9.99079C30.4786 9.95057 30.4458 9.91797 30.4053 9.91797C30.3648 9.91797 30.332 9.95057 30.332 9.99079C30.332 10.031 30.3648 10.0636 30.4053 10.0636Z" fill="#121212"/>
<path d="M30.7686 10.0636C30.8091 10.0636 30.8419 10.031 30.8419 9.99079C30.8419 9.95057 30.8091 9.91797 30.7686 9.91797C30.7281 9.91797 30.6953 9.95057 30.6953 9.99079C30.6953 10.031 30.7281 10.0636 30.7686 10.0636Z" fill="#121212"/>
<line x1="0.449219" y1="53.1328" x2="59.6815" y2="53.1328" stroke="#EEEEEE" stroke-width="2"/>
</g>
<path d="M39.6588 40.9628H21.2109V16.75H33.8938L39.6588 22.5149V40.9628Z" fill="white"/>
<path d="M39.1588 40.4628H21.7109V17.25H33.6867L39.1588 22.7221V40.4628Z" stroke="#007AE7" stroke-opacity="0.2"/>
<path d="M38.7936 23.09H33.3169V17.6133L38.7936 23.09Z" fill="#007AE7" fill-opacity="0.2"/>
<path d="M25.8208 27.125H35.6212V28.278H25.8208V27.125Z" fill="#0038C0"/>
<path d="M25.8208 29.4297H33.3152V30.5827H25.8208V29.4297Z" fill="#0038C0"/>
<path d="M25.8208 31.7383H35.6212V32.8913H25.8208V31.7383Z" fill="#0038C0"/>
<path d="M25.8208 34.043H33.3152V35.196H25.8208V34.043Z" fill="#0038C0"/>
<defs>
<clipPath id="clip0_5713_20286">
<rect width="60.8106" height="60.4164" fill="white"/>
</clipPath>
</defs>
</svg>
