<svg width="146" height="69" viewBox="0 0 146 69" fill="none" xmlns="http://www.w3.org/2000/svg">
<path d="M6.65347 23.6958H6.76624C6.76624 23.3552 6.7964 22.996 6.75897 22.6577C6.73765 22.4652 6.66119 22.297 6.65454 22.0995C6.62691 21.2834 6.65347 20.4608 6.65347 19.6442C6.65347 19.1225 6.60486 18.5688 6.66074 18.0505C6.71177 17.5775 6.81935 17.1036 6.87174 16.6307C6.93765 16.0358 6.99167 15.4508 7.12998 14.8661C7.46953 13.4305 7.95314 11.9293 8.75235 10.7109C11.2398 6.91891 15.9295 6.09991 19.909 6.62204C20.1492 6.6536 20.3945 6.60719 20.6348 6.63788C21.2421 6.71547 21.8487 6.86348 22.4509 6.98239C28.299 8.1371 33.8664 10.8296 38.9754 14.104C41.1963 15.5274 43.4403 16.9596 45.5322 18.6143C47.4378 20.1216 49.3722 21.593 51.2121 23.1913C51.7866 23.6905 52.3887 24.1782 52.9436 24.7015C53.2767 25.0158 53.6212 25.4477 54.0169 25.6602C53.8798 25.3575 53.606 25.1479 53.3977 24.9023C53.2687 24.7501 53.1896 24.5617 53.0574 24.4125C52.7008 24.0105 52.2627 23.6685 51.8931 23.2661C50.0327 21.2406 48.0459 19.2901 45.9244 17.6047C45.0418 16.9035 44.1967 16.1332 43.3182 15.4221C41.9674 14.3288 40.5283 13.303 39.1045 12.3212C35.5236 9.85203 31.6706 7.72537 27.717 6.05966C26.0158 5.34298 24.2478 4.79459 22.4816 4.32517C21.9905 4.19466 21.4734 4.14911 20.9849 4.02372C19.5378 3.65234 18.1254 3.56057 16.6336 3.56057C16.0091 3.56057 15.3416 3.48713 14.7216 3.56848C12.1334 3.90808 9.48135 4.90744 7.76888 7.18466C6.57143 8.777 5.98333 10.7916 5.65314 12.7792C5.607 13.057 5.66143 13.3461 5.63127 13.6258C5.53134 14.5524 5.42849 15.5636 5.53303 16.508C5.54972 16.6587 5.61498 16.7945 5.63127 16.9455C5.70564 17.6353 5.65213 18.3348 5.76591 19.0199C5.91708 19.9299 6.02647 20.8763 6.22804 21.7752C6.36731 22.3962 6.61546 23.058 6.65347 23.6958ZM36.0865 14.9787V57.3364C36.5893 57.0664 37.0251 56.3963 37.4209 55.9654L40.165 52.9778C40.6149 52.488 41.0515 51.9754 41.519 51.5056C41.6718 51.3521 41.8568 51.2536 42.0069 51.095C43.8498 49.1473 45.6413 47.1384 47.4575 45.1611L49.5249 42.9102C49.8464 42.5602 50.3193 42.1893 50.5211 41.7438C50.193 41.92 49.9326 42.3027 49.6753 42.5828L48.1341 44.2607L43.8864 48.8853C43.1933 49.64 42.5184 50.572 41.725 51.1976V19.8897C41.2546 19.7579 40.8805 19.1705 40.4989 18.8598C39.3707 17.9413 38.3011 16.9311 37.1998 15.9743C36.8373 15.6594 36.504 15.2029 36.0865 14.9787Z" fill="#84CBF1"/>
<path d="M27.9668 17.1886V17.3114H28.0796V17.1886H27.9668Z" fill="#6689CD"/>
<path d="M16.8025 53.8986V49.4173V48.2509C16.8026 48.0578 16.7808 47.842 16.8746 47.6689C17.0183 47.4035 17.2758 47.2481 17.4935 47.0709C17.7872 46.8318 18.0874 46.5274 18.3617 46.263C19.1291 45.5232 19.899 44.796 20.6911 44.0899C21.1459 43.6845 21.5421 43.1783 22.0169 42.8011C22.5496 42.378 23.016 41.8691 23.5144 41.399C23.7118 41.2128 24.011 41.0957 24.1038 40.803C24.1929 40.5223 24.1326 40.1348 24.1326 39.8408V37.7536V30.8782V28.791C24.1326 28.5012 24.0676 28.0983 24.1801 27.8288C24.2757 27.5999 24.5168 27.4109 24.6777 27.2358L25.7301 26.0899L29.3012 22.202L30.5417 20.8515C30.6681 20.7139 30.9335 20.5133 30.8482 20.2874C30.7436 20.0105 30.3956 19.7511 30.2034 19.5418L28.6622 17.8639C28.4594 17.6431 28.1679 17.1699 27.8404 17.39C27.6269 17.5334 27.448 17.7943 27.2714 17.9867L26.1061 19.2554L22.4974 23.1842L10.9572 35.7482L6.97273 40.0863L5.99535 41.1504C5.86381 41.2937 5.65332 41.459 5.65332 41.6824C5.65332 42.0009 6.10626 42.3352 6.29611 42.5419L8.25076 44.67L14.1524 51.0952L15.8816 52.9778C16.1603 53.2812 16.4473 53.7079 16.8025 53.8986Z" fill="white"/>
<path d="M30.8989 20.3807V20.5035H31.0117V20.3807H30.8989Z" fill="#B6C8ED"/>
<path d="M30.7863 20.5035C30.3409 21.1729 29.6881 21.7401 29.1511 22.3247L25.9184 25.8443L24.753 27.113C24.539 27.346 24.2676 27.5725 24.1328 27.8701C24.3643 27.7458 24.5342 27.5149 24.7154 27.3176L25.6928 26.2536L29.0383 22.6112L30.2788 21.2606C30.4929 21.0275 30.7643 20.8011 30.899 20.5035H30.7863Z" fill="#6689CD"/>
<path d="M6.76611 23.8185V24.1868H6.87888V23.8185H6.76611Z" fill="#91B3FA"/>
<path d="M41.7251 32.1672V51.1975H41.8379V37.3852V33.8247C41.8379 33.418 41.7186 32.7464 41.9506 32.4128V32.29L41.7251 32.1672Z" fill="#6689CD"/>
<path d="M41.8379 32.4128V51.0748C42.1524 50.9059 42.3995 50.5451 42.6461 50.2767L44.1873 48.5988L48.3598 44.0561C49.0529 43.3014 49.7278 42.3694 50.5212 41.7438V41.621C49.7416 41.0062 49.0785 40.0913 48.3973 39.3497L44.2625 34.8479L42.6461 33.0881C42.4109 32.8321 42.1814 32.4674 41.8379 32.4128Z" fill="white"/>
<path d="M24.02 40.8844V41.0072H24.1328V40.8844H24.02Z" fill="#91B3FA"/>
<path d="M23.5688 41.2527V41.3755H23.6816V41.2527H23.5688Z" fill="#6689CD"/>
<path d="M23.456 41.3755L23.3433 41.621C23.4629 41.5547 23.5079 41.5057 23.5688 41.3755H23.456Z" fill="#B6C8ED"/>
<path d="M5.52588 41.621V41.7437H5.63865V41.621H5.52588Z" fill="#6689CD"/>
<path d="M23.2305 41.621V41.7437H23.3432V41.621H23.2305Z" fill="#91B3FA"/>
<path d="M22.7798 41.9894V42.1122H22.8926V41.9894H22.7798Z" fill="#6689CD"/>
<path d="M22.667 42.1121L22.5542 42.3576C22.6738 42.2913 22.7188 42.2423 22.7797 42.1121H22.667Z" fill="#B6C8ED"/>
<path d="M28.1927 42.1121C27.8071 42.6917 27.2479 43.1816 26.783 43.6877L24.0766 46.6343C23.6579 47.0902 23.0515 47.5661 22.739 48.1133C22.605 48.3481 22.6669 48.7227 22.6669 48.9875V51.0133V57.6432V59.5462C22.6669 59.7971 22.612 60.1418 22.7145 60.3739C22.8002 60.5679 22.999 60.7262 23.1368 60.8763L24.0014 61.8176C24.655 62.5291 25.2807 63.3425 25.9957 63.9797C26.4178 64.356 26.7877 64.7752 27.1973 65.1706C27.5034 65.4652 27.8333 65.6826 28.0799 66.0533H28.1927C28.4603 65.4935 28.3054 64.5874 28.3054 63.9662V59.2393V42.1121H28.1927ZM22.4414 42.3576V42.4804H22.5542V42.3576H22.4414Z" fill="#84CBF1"/>
<path d="M21.9902 42.726V42.8487H22.103V42.726H21.9902Z" fill="#6689CD"/>
<path d="M21.8774 42.8488L21.7646 43.0943C21.8842 43.0279 21.9292 42.979 21.9902 42.8488H21.8774Z" fill="#B6C8ED"/>
<path d="M21.6519 43.0944V43.2171H21.7646V43.0944H21.6519Z" fill="#91B3FA"/>
<path d="M21.2007 43.4626V43.5854H21.3135V43.4626H21.2007Z" fill="#6689CD"/>
<path d="M21.0879 43.5854L20.9751 43.831C21.0947 43.7646 21.1397 43.7157 21.2006 43.5854H21.0879Z" fill="#B6C8ED"/>
<path d="M20.8623 43.8309V43.9537H20.9751V43.8309H20.8623Z" fill="#91B3FA"/>
<path d="M20.4116 44.1993V44.3221H20.5244V44.1993H20.4116Z" fill="#6689CD"/>
<path d="M20.2988 44.322L20.186 44.5676C20.3056 44.5012 20.3506 44.4522 20.4116 44.322H20.2988Z" fill="#B6C8ED"/>
<path d="M20.0732 44.5676V44.6904H20.186V44.5676H20.0732Z" fill="#91B3FA"/>
<path d="M19.6221 44.9359V45.0587H19.7348V44.9359H19.6221Z" fill="#6689CD"/>
<path d="M19.5093 45.0587L19.3965 45.3043C19.5161 45.2379 19.5611 45.1889 19.622 45.0587H19.5093Z" fill="#B6C8ED"/>
<path d="M19.2837 45.3043V45.4271H19.3965V45.3043H19.2837Z" fill="#91B3FA"/>
<path d="M18.8325 45.6726V45.7953H18.9453V45.6726H18.8325Z" fill="#6689CD"/>
<path d="M18.7197 45.7954L18.6069 46.041C18.7265 45.9746 18.7715 45.9256 18.8325 45.7954H18.7197Z" fill="#B6C8ED"/>
<path d="M18.4941 46.0409V46.1637H18.6069V46.0409H18.4941Z" fill="#91B3FA"/>
<path d="M18.0435 46.4093V46.5321H18.1562V46.4093H18.0435Z" fill="#6689CD"/>
<path d="M17.9306 46.532L17.8179 46.7775C17.9375 46.7112 17.9825 46.6622 18.0434 46.532H17.9306Z" fill="#B6C8ED"/>
<path d="M17.7051 46.7776V46.9004H17.8179V46.7776H17.7051Z" fill="#91B3FA"/>
<path d="M17.2539 47.1459V47.2686H17.3667V47.1459H17.2539Z" fill="#6689CD"/>
<path d="M17.1411 47.2687L17.0283 47.5143C17.1479 47.4479 17.1929 47.3989 17.2539 47.2687H17.1411Z" fill="#B6C8ED"/>
<path d="M16.9155 47.5143V47.6371H17.0283V47.5143H16.9155Z" fill="#91B3FA"/>
<path d="M16.8027 47.637V54.0213H16.9155V47.637H16.8027Z" fill="#6689CD"/>
<path d="M78.0298 27.5446C77.9184 28.8632 77.4855 30.0353 76.7311 31.0608C75.9853 32.0864 74.9995 32.8749 73.7736 33.4265C72.5563 33.978 71.2361 34.2409 69.8131 34.215C67.8586 34.1719 66.3198 33.5385 65.1968 32.3147C64.0738 31.091 63.4609 29.432 63.358 27.3378C63.2809 25.9417 63.4309 24.4206 63.8081 22.7745C64.1938 21.1285 64.8154 19.6979 65.6726 18.4827C66.5384 17.259 67.5543 16.3455 68.7201 15.7422C69.8945 15.1303 71.1761 14.8373 72.5649 14.8631C74.6051 14.8976 76.2168 15.5138 77.3998 16.7117C78.5913 17.9096 79.2386 19.56 79.3414 21.6628L74.9566 21.6499C74.9737 20.5037 74.768 19.685 74.3394 19.1937C73.9108 18.7025 73.2335 18.4396 72.3077 18.4052C69.9931 18.3276 68.583 20.1374 68.0772 23.8346C67.8457 25.5065 67.73 26.7001 67.73 27.4154C67.6871 29.5354 68.4672 30.6256 70.0703 30.6859C71.1076 30.7204 71.9348 30.4662 72.552 29.9232C73.1692 29.3717 73.5636 28.596 73.735 27.5963L78.0298 27.5446Z" fill="white"/>
<path d="M85.5121 33.9565H81.1144L84.3676 15.1346H88.7525L85.5121 33.9565Z" fill="white"/>
<path d="M90.2425 33.9565L93.4829 15.1346L98.9865 15.1475C100.607 15.1475 102.021 15.5784 103.23 16.4403C104.439 17.2934 105.296 18.4612 105.802 19.9435C106.239 21.2448 106.372 22.6496 106.2 24.1577L106.11 24.9463C105.879 26.6354 105.322 28.1651 104.439 29.5354C103.556 30.9057 102.42 31.9829 101.031 32.7672C99.6423 33.5428 98.1421 33.9392 96.5305 33.9565H90.2425ZM97.2891 18.6379L95.2446 30.4662L96.5305 30.4791C98.0392 30.4791 99.2479 29.8931 100.157 28.721C101.074 27.5489 101.618 25.7564 101.79 23.3433L101.815 22.9167C101.875 21.5378 101.661 20.4907 101.172 19.7754C100.684 19.0601 99.9509 18.6853 98.9736 18.6508L97.2891 18.6379Z" fill="white"/>
<path d="M124.149 27.5446C124.038 28.8632 123.605 30.0353 122.851 31.0608C122.105 32.0864 121.119 32.8749 119.893 33.4265C118.676 33.978 117.356 34.2409 115.933 34.215C113.978 34.1719 112.439 33.5385 111.316 32.3147C110.193 31.091 109.581 29.432 109.478 27.3378C109.4 25.9417 109.551 24.4206 109.928 22.7745C110.313 21.1285 110.935 19.6979 111.792 18.4827C112.658 17.259 113.674 16.3455 114.84 15.7422C116.014 15.1303 117.296 14.8373 118.684 14.8631C120.725 14.8976 122.336 15.5138 123.519 16.7117C124.711 17.9096 125.358 19.56 125.461 21.6628L121.076 21.6499C121.093 20.5037 120.888 19.685 120.459 19.1937C120.03 18.7025 119.353 18.4396 118.427 18.4052C116.113 18.3276 114.703 20.1374 114.197 23.8346C113.965 25.5065 113.85 26.7001 113.85 27.4154C113.807 29.5354 114.587 30.6256 116.19 30.6859C117.227 30.7204 118.054 30.4662 118.672 29.9232C119.289 29.3717 119.683 28.596 119.855 27.5963L124.149 27.5446Z" fill="white"/>
<path d="M134.666 34.215C132.72 34.1719 131.16 33.5256 129.986 32.276C128.811 31.0263 128.147 29.3544 127.993 27.2602C127.907 26.2261 127.988 25.0109 128.237 23.6148C128.486 22.21 128.927 20.9173 129.561 19.7367C130.196 18.556 130.989 17.5735 131.94 16.7893C133.535 15.4707 135.369 14.833 137.444 14.8761C138.721 14.9019 139.836 15.1992 140.787 15.768C141.747 16.3282 142.514 17.1383 143.089 18.1983C143.663 19.2584 143.997 20.4649 144.092 21.8179C144.16 22.7745 144.1 23.8647 143.912 25.0885C143.732 26.3036 143.393 27.4671 142.896 28.5788C142.407 29.6819 141.773 30.6558 140.993 31.5003C140.213 32.3449 139.291 33.0171 138.228 33.517C137.174 34.0082 135.987 34.2409 134.666 34.215ZM139.681 21.7791C139.596 19.6246 138.764 18.5043 137.187 18.4181C135.969 18.3578 134.962 18.8447 134.165 19.8789C133.368 20.9044 132.84 22.4212 132.583 24.4292C132.42 25.6702 132.36 26.6311 132.403 27.3119C132.489 29.5009 133.329 30.6256 134.924 30.6859C135.969 30.7376 136.869 30.3627 137.624 29.5613C138.378 28.7512 138.923 27.5791 139.257 26.0451C139.591 24.5025 139.733 23.0805 139.681 21.7791Z" fill="white"/>
<path d="M65.4657 53.894L65.6034 54.843L65.805 53.9879L67.2209 48.9661H68.0174L69.399 53.9879L69.5956 54.8578L69.7481 53.8891L70.8592 48.9661H71.8081L70.0726 56.1627H69.2122L67.7372 50.9185L67.6241 50.3699L67.511 50.9185L65.982 56.1627H65.1216L63.3909 48.9661H64.3349L65.4657 53.894Z" fill="white"/>
<path d="M77.41 52.8363H74.3077V55.3867H77.9115V56.1627H73.3637V48.9661H77.8624V49.7471H74.3077V52.0603H77.41V52.8363Z" fill="white"/>
<path d="M83.8104 48.9661L86.1507 54.8381L88.491 48.9661H89.7152V56.1627H88.7713V53.3602L88.8598 50.3353L86.5096 56.1627H85.7869L83.4417 50.3501L83.5351 53.3602V56.1627H82.5911V48.9661H83.8104Z" fill="white"/>
<path d="M95.9268 54.2845H92.9277L92.2542 56.1627H91.2807L94.0143 48.9661H94.8403L97.5788 56.1627H96.6102L95.9268 54.2845ZM93.2129 53.5035H95.6466L94.4273 50.1375L93.2129 53.5035Z" fill="white"/>
<path d="M100.865 52.8165L99.9899 53.7309V56.1627H99.0459V48.9661H99.9899V52.5249L103.171 48.9661H104.312L101.494 52.1443L104.533 56.1627H103.402L100.865 52.8165Z" fill="white"/>
<path d="M109.909 52.8363H106.806V55.3867H110.41V56.1627H105.862V48.9661H110.361V49.7471H106.806V52.0603H109.909V52.8363Z" fill="white"/>
<path d="M120.355 53.8792C120.267 54.6404 119.987 55.2285 119.515 55.6437C119.046 56.0556 118.421 56.2616 117.641 56.2616C116.796 56.2616 116.117 55.9568 115.606 55.3472C115.098 54.7376 114.844 53.922 114.844 52.9005V52.2085C114.844 51.5396 114.962 50.9514 115.198 50.444C115.437 49.9365 115.775 49.5477 116.211 49.2775C116.647 49.004 117.151 48.8673 117.725 48.8673C118.485 48.8673 119.095 49.0815 119.554 49.5098C120.013 49.9349 120.28 50.5247 120.355 51.2793H119.406C119.324 50.706 119.146 50.2908 118.871 50.0337C118.598 49.7767 118.217 49.6482 117.725 49.6482C117.122 49.6482 116.648 49.8723 116.304 50.3204C115.963 50.7686 115.793 51.4062 115.793 52.2333V52.9302C115.793 53.7111 115.955 54.3323 116.279 54.7936C116.604 55.2549 117.058 55.4856 117.641 55.4856C118.166 55.4856 118.567 55.3669 118.846 55.1297C119.128 54.8891 119.315 54.4723 119.406 53.8792H120.355Z" fill="white"/>
<path d="M123.165 56.1627H122.221V48.9661H123.165V56.1627Z" fill="white"/>
<path d="M130.197 49.7471H127.896V56.1627H126.957V49.7471H124.661V48.9661H130.197V49.7471Z" fill="white"/>
<path d="M132.776 56.1627H131.832V48.9661H132.776V56.1627Z" fill="white"/>
<path d="M139.056 52.8363H135.954V55.3867H139.557V56.1627H135.01V48.9661H139.508V49.7471H135.954V52.0603H139.056V52.8363Z" fill="white"/>
<path d="M143.345 52.9549C142.536 52.7209 141.946 52.4343 141.575 52.0949C141.208 51.7522 141.025 51.3304 141.025 50.8295C141.025 50.2628 141.249 49.7949 141.698 49.4258C142.15 49.0534 142.737 48.8673 143.458 48.8673C143.95 48.8673 144.388 48.9628 144.771 49.1539C145.158 49.3451 145.456 49.6087 145.666 49.9448C145.879 50.2809 145.985 50.6483 145.985 51.047H145.036C145.036 50.612 144.899 50.271 144.624 50.0239C144.348 49.7734 143.96 49.6482 143.458 49.6482C142.993 49.6482 142.629 49.752 142.367 49.9596C142.108 50.1639 141.978 50.4489 141.978 50.8147C141.978 51.108 142.101 51.3567 142.347 51.561C142.596 51.7621 143.017 51.9466 143.611 52.1146C144.207 52.2827 144.673 52.4689 145.007 52.6732C145.345 52.8742 145.594 53.1098 145.754 53.38C145.918 53.6502 146 53.9682 146 54.3339C146 54.9172 145.774 55.3851 145.322 55.7376C144.869 56.0869 144.265 56.2616 143.507 56.2616C143.016 56.2616 142.557 56.1677 142.131 55.9798C141.705 55.7887 141.375 55.5284 141.143 55.1989C140.913 54.8694 140.798 54.4954 140.798 54.0769H141.747C141.747 54.5118 141.906 54.8562 142.224 55.1099C142.545 55.3603 142.973 55.4856 143.507 55.4856C144.006 55.4856 144.388 55.3834 144.653 55.1791C144.919 54.9748 145.051 54.6964 145.051 54.3438C145.051 53.9912 144.928 53.7194 144.683 53.5282C144.437 53.3338 143.991 53.1427 143.345 52.9549Z" fill="white"/>
</svg>
