<svg width="82" height="76" viewBox="0 0 82 76" fill="none" xmlns="http://www.w3.org/2000/svg">
<path d="M41.1 38C42.2 38 43.2563 38.1875 44.2375 38.5375C42.9217 39.0059 41.7268 39.7617 40.7398 40.7499C39.7527 41.738 38.9983 42.9337 38.5312 44.25H9.875C9.0462 44.25 8.25134 44.5792 7.66529 45.1653C7.07924 45.7513 6.75 46.5462 6.75 47.375V52.2187C6.75 59.375 12.55 63 25.875 63C31.075 63 35.0812 62.4563 38 61.3563V67.8563C34.6 68.7875 30.5437 69.25 25.875 69.25C9.5375 69.25 0.5 63.6062 0.5 52.2187V47.375C0.5 44.8886 1.48772 42.504 3.24587 40.7459C5.00403 38.9877 7.3886 38 9.875 38H41.1ZM25.5 0.5C29.644 0.5 33.6183 2.1462 36.5485 5.07646C39.4788 8.00671 41.125 11.981 41.125 16.125C41.125 20.269 39.4788 24.2433 36.5485 27.1735C33.6183 30.1038 29.644 31.75 25.5 31.75C21.356 31.75 17.3817 30.1038 14.4515 27.1735C11.5212 24.2433 9.875 20.269 9.875 16.125C9.875 11.981 11.5212 8.00671 14.4515 5.07646C17.3817 2.1462 21.356 0.5 25.5 0.5ZM25.5 6.75C23.0136 6.75 20.629 7.73772 18.8709 9.49587C17.1127 11.254 16.125 13.6386 16.125 16.125C16.125 18.6114 17.1127 20.996 18.8709 22.7541C20.629 24.5123 23.0136 25.5 25.5 25.5C27.9864 25.5 30.371 24.5123 32.1291 22.7541C33.8873 20.996 34.875 18.6114 34.875 16.125C34.875 13.6386 33.8873 11.254 32.1291 9.49587C30.371 7.73772 27.9864 6.75 25.5 6.75ZM56.75 6.75C60.0652 6.75 63.2446 8.06696 65.5888 10.4112C67.933 12.7554 69.25 15.9348 69.25 19.25C69.25 22.5652 67.933 25.7446 65.5888 28.0888C63.2446 30.433 60.0652 31.75 56.75 31.75C53.4348 31.75 50.2554 30.433 47.9112 28.0888C45.567 25.7446 44.25 22.5652 44.25 19.25C44.25 15.9348 45.567 12.7554 47.9112 10.4112C50.2554 8.06696 53.4348 6.75 56.75 6.75ZM56.75 13C55.0924 13 53.5027 13.6585 52.3306 14.8306C51.1585 16.0027 50.5 17.5924 50.5 19.25C50.5 20.9076 51.1585 22.4973 52.3306 23.6694C53.5027 24.8415 55.0924 25.5 56.75 25.5C58.4076 25.5 59.9973 24.8415 61.1694 23.6694C62.3415 22.4973 63 20.9076 63 19.25C63 17.5924 62.3415 16.0027 61.1694 14.8306C59.9973 13.6585 58.4076 13 56.75 13ZM47.375 44.25C46.5462 44.25 45.7513 44.5792 45.1653 45.1653C44.5792 45.7513 44.25 46.5462 44.25 47.375C44.25 48.2038 44.5792 48.9987 45.1653 49.5847C45.7513 50.1708 46.5462 50.5 47.375 50.5H78.625C79.4538 50.5 80.2487 50.1708 80.8347 49.5847C81.4208 48.9987 81.75 48.2038 81.75 47.375C81.75 46.5462 81.4208 45.7513 80.8347 45.1653C80.2487 44.5792 79.4538 44.25 78.625 44.25H47.375ZM47.375 56.75C46.5462 56.75 45.7513 57.0792 45.1653 57.6653C44.5792 58.2513 44.25 59.0462 44.25 59.875C44.25 60.7038 44.5792 61.4987 45.1653 62.0847C45.7513 62.6708 46.5462 63 47.375 63H78.625C79.4538 63 80.2487 62.6708 80.8347 62.0847C81.4208 61.4987 81.75 60.7038 81.75 59.875C81.75 59.0462 81.4208 58.2513 80.8347 57.6653C80.2487 57.0792 79.4538 56.75 78.625 56.75H47.375ZM47.375 69.25C46.5462 69.25 45.7513 69.5792 45.1653 70.1653C44.5792 70.7513 44.25 71.5462 44.25 72.375C44.25 73.2038 44.5792 73.9987 45.1653 74.5847C45.7513 75.1708 46.5462 75.5 47.375 75.5H78.625C79.4538 75.5 80.2487 75.1708 80.8347 74.5847C81.4208 73.9987 81.75 73.2038 81.75 72.375C81.75 71.5462 81.4208 70.7513 80.8347 70.1653C80.2487 69.5792 79.4538 69.25 78.625 69.25H47.375Z" fill="#DBDBDB"/>
</svg>
