<svg width="107" height="84" viewBox="0 0 107 84" fill="none" xmlns="http://www.w3.org/2000/svg">
<g clip-path="url(#clip0_3955:6131)">
<path d="M60.2284 10.2212H24.0437C23.6546 10.2212 23.3391 10.5346 23.3391 10.9212V73.0793C23.3391 73.4659 23.6546 73.7793 24.0437 73.7793H60.2284C60.6175 73.7793 60.933 73.4659 60.933 73.0793V10.9212C60.933 10.5346 60.6175 10.2212 60.2284 10.2212Z" fill="#212121"/>
<path d="M58.9588 16.106H25.7877V64.2846H58.9588V16.106Z" fill="#D0DCEF"/>
<path fill-rule="evenodd" clip-rule="evenodd" d="M50.6643 33.9854H59.0546V63.8021L49.8575 48.7334L50.6643 33.9854Z" fill="#A7A9AC"/>
<path d="M45.0923 67.855H39.8126C39.618 67.855 39.4603 68.0117 39.4603 68.205V70.0164C39.4603 70.2097 39.618 70.3664 39.8126 70.3664H45.0923C45.2868 70.3664 45.4445 70.2097 45.4445 70.0164V68.205C45.4445 68.0117 45.2868 67.855 45.0923 67.855Z" fill="#424242"/>
<path d="M61.1624 17.4795H60.6486V31.6819H61.1624V17.4795Z" fill="#212121"/>
<path d="M61.2093 39.7681H60.6954V44.2328H61.2093V39.7681Z" fill="#212121"/>
<path d="M30.2293 13.7386C30.4007 13.9119 30.6811 13.9143 30.8555 13.744C31.0299 13.5738 31.0324 13.2952 30.861 13.1219C30.6896 12.9486 30.4092 12.9462 30.2348 13.1164C30.0604 13.2867 30.0579 13.5653 30.2293 13.7386Z" fill="#424242"/>
<path d="M30.3011 13.6694C30.4337 13.8036 30.6507 13.8055 30.7858 13.6737C30.9208 13.5418 30.9227 13.3262 30.79 13.1921C30.6574 13.058 30.4404 13.0561 30.3053 13.1879C30.1703 13.3197 30.1684 13.5353 30.3011 13.6694Z" fill="#595959"/>
<path fill-rule="evenodd" clip-rule="evenodd" d="M30.7898 13.1917C30.9225 13.3258 30.9206 13.5414 30.7856 13.6732C30.7606 13.6976 30.7328 13.7175 30.7032 13.7327C30.6078 13.6821 30.5251 13.5907 30.479 13.472C30.4277 13.3398 30.4329 13.2024 30.4828 13.0955C30.591 13.0757 30.7069 13.1079 30.7898 13.1917V13.1917Z" fill="#636363"/>
<path d="M41.2634 13.4881C41.3197 13.4881 41.3653 13.4428 41.3653 13.3869C41.3653 13.331 41.3197 13.2856 41.2634 13.2856C41.2071 13.2856 41.1615 13.331 41.1615 13.3869C41.1615 13.4428 41.2071 13.4881 41.2634 13.4881Z" fill="#121212"/>
<path d="M41.7685 13.4881C41.8248 13.4881 41.8704 13.4428 41.8704 13.3869C41.8704 13.331 41.8248 13.2856 41.7685 13.2856C41.7122 13.2856 41.6666 13.331 41.6666 13.3869C41.6666 13.4428 41.7122 13.4881 41.7685 13.4881Z" fill="#121212"/>
<path d="M42.2743 13.4881C42.3305 13.4881 42.3762 13.4428 42.3762 13.3869C42.3762 13.331 42.3305 13.2856 42.2743 13.2856C42.218 13.2856 42.1724 13.331 42.1724 13.3869C42.1724 13.4428 42.218 13.4881 42.2743 13.4881Z" fill="#121212"/>
<path d="M42.7796 13.4881C42.8359 13.4881 42.8815 13.4428 42.8815 13.3869C42.8815 13.331 42.8359 13.2856 42.7796 13.2856C42.7234 13.2856 42.6777 13.331 42.6777 13.3869C42.6777 13.4428 42.7234 13.4881 42.7796 13.4881Z" fill="#121212"/>
<path d="M43.2855 13.4881C43.3418 13.4881 43.3874 13.4428 43.3874 13.3869C43.3874 13.331 43.3418 13.2856 43.2855 13.2856C43.2292 13.2856 43.1836 13.331 43.1836 13.3869C43.1836 13.4428 43.2292 13.4881 43.2855 13.4881Z" fill="#121212"/>
<path d="M41.7684 12.9857C41.8247 12.9857 41.8703 12.9404 41.8703 12.8844C41.8703 12.8285 41.8247 12.7832 41.7684 12.7832C41.7121 12.7832 41.6665 12.8285 41.6665 12.8844C41.6665 12.9404 41.7121 12.9857 41.7684 12.9857Z" fill="#121212"/>
<path d="M42.2744 12.9857C42.3307 12.9857 42.3763 12.9404 42.3763 12.8844C42.3763 12.8285 42.3307 12.7832 42.2744 12.7832C42.2181 12.7832 42.1725 12.8285 42.1725 12.8844C42.1725 12.9404 42.2181 12.9857 42.2744 12.9857Z" fill="#121212"/>
<path d="M42.7795 12.9857C42.8358 12.9857 42.8814 12.9404 42.8814 12.8844C42.8814 12.8285 42.8358 12.7832 42.7795 12.7832C42.7232 12.7832 42.6776 12.8285 42.6776 12.8844C42.6776 12.9404 42.7232 12.9857 42.7795 12.9857Z" fill="#121212"/>
<path d="M41.7684 13.9901C41.8247 13.9901 41.8703 13.9448 41.8703 13.8888C41.8703 13.8329 41.8247 13.7876 41.7684 13.7876C41.7121 13.7876 41.6665 13.8329 41.6665 13.8888C41.6665 13.9448 41.7121 13.9901 41.7684 13.9901Z" fill="#121212"/>
<path d="M42.2744 13.9901C42.3307 13.9901 42.3763 13.9448 42.3763 13.8888C42.3763 13.8329 42.3307 13.7876 42.2744 13.7876C42.2181 13.7876 42.1725 13.8329 42.1725 13.8888C42.1725 13.9448 42.2181 13.9901 42.2744 13.9901Z" fill="#121212"/>
<path d="M42.7795 13.9901C42.8358 13.9901 42.8814 13.9448 42.8814 13.8888C42.8814 13.8329 42.8358 13.7876 42.7795 13.7876C42.7232 13.7876 42.6776 13.8329 42.6776 13.8888C42.6776 13.9448 42.7232 13.9901 42.7795 13.9901Z" fill="#121212"/>
<line x1="0.623901" y1="74.2656" x2="82.9775" y2="74.2656" stroke="#EEEEEE" stroke-width="2"/>
</g>
<g clip-path="url(#clip1_3955:6131)">
<path d="M96.0788 3.99268H55.3165C52.514 3.99268 50.2466 5.78945 50.2466 7.9855L50.2465 47.3813L60.4118 35.9352H96.0788C98.8812 35.9352 101.174 34.1385 101.174 31.9424V7.9855C101.174 5.78945 98.8812 3.99268 96.0788 3.99268Z" fill="#007AE7"/>
<path d="M75.6052 17.0938L75.3479 19.6583L77.8178 18.937L77.9979 20.1658L75.6309 20.3662L77.1617 22.4766L76.0555 23.1044L74.962 20.7669L73.9715 23.1044L72.8266 22.4766L74.3317 20.3662L71.9905 20.1658L72.1706 18.937L74.6147 19.6583L74.3446 17.0938H75.6052Z" fill="white"/>
<path d="M83.2158 17.0938L82.9585 19.6583L85.4284 18.937L85.6085 20.1658L83.2415 20.3662L84.7723 22.4766L83.6661 23.1044L82.5726 20.7669L81.5821 23.1044L80.4372 22.4766L81.9423 20.3662L79.6011 20.1658L79.7812 18.937L82.2253 19.6583L81.9552 17.0938H83.2158Z" fill="white"/>
<path d="M90.8236 17.0938L90.5663 19.6583L93.0362 18.937L93.2163 20.1658L90.8493 20.3662L92.3801 22.4766L91.2738 23.1044L90.1804 20.7669L89.1899 23.1044L88.045 22.4766L89.5501 20.3662L87.2089 20.1658L87.389 18.937L89.8331 19.6583L89.5629 17.0938H90.8236Z" fill="white"/>
</g>
<path d="M66.8134 18.1303H67.8488C67.9861 18.1303 68.1178 18.1849 68.2149 18.282C68.312 18.3792 68.3665 18.5109 68.3665 18.6483V24.8641C68.3665 25.0015 68.312 25.1333 68.2149 25.2304C68.1178 25.3276 67.9861 25.3821 67.8488 25.3821H59.5654C59.4281 25.3821 59.2965 25.3276 59.1994 25.2304C59.1023 25.1333 59.0477 25.0015 59.0477 24.8641V18.6483C59.0477 18.5109 59.1023 18.3792 59.1994 18.282C59.2965 18.1849 59.4281 18.1303 59.5654 18.1303H60.6009V17.6123C60.6009 16.788 60.9281 15.9975 61.5107 15.4147C62.0932 14.8318 62.8833 14.5044 63.7071 14.5044C64.531 14.5044 65.3211 14.8318 65.9036 15.4147C66.4861 15.9975 66.8134 16.788 66.8134 17.6123V18.1303ZM60.0832 19.1663V24.3462H67.3311V19.1663H60.0832ZM63.1894 21.2382H64.2248V22.2742H63.1894V21.2382ZM61.1186 21.2382H62.154V22.2742H61.1186V21.2382ZM65.2603 21.2382H66.2957V22.2742H65.2603V21.2382ZM65.778 18.1303V17.6123C65.778 17.0628 65.5598 16.5358 65.1714 16.1472C64.7831 15.7587 64.2564 15.5404 63.7071 15.5404C63.1579 15.5404 62.6312 15.7587 62.2428 16.1472C61.8545 16.5358 61.6363 17.0628 61.6363 17.6123V18.1303H65.778Z" fill="white"/>
<defs>
<clipPath id="clip0_3955:6131">
<rect width="84.548" height="84" fill="white"/>
</clipPath>
<clipPath id="clip1_3955:6131">
<rect width="61.1436" height="47.9138" fill="white" transform="translate(45.0688)"/>
</clipPath>
</defs>
</svg>
