<svg width="103" height="116" viewBox="0 0 103 116" fill="none" xmlns="http://www.w3.org/2000/svg">
<path d="M76.4465 35.9135H10.9212C6.91689 35.9135 3.64062 39.1898 3.64062 43.1941V86.8777C3.64062 90.882 6.91689 94.1583 10.9212 94.1583H36.4033V101.439H29.1227V108.719H58.245V101.439H50.9645V94.1583H76.4465C80.4508 94.1583 83.7271 90.882 83.7271 86.8777V43.1941C83.7271 39.1898 80.4508 35.9135 76.4465 35.9135ZM76.4465 86.8777H10.9212V43.1941H76.4465V86.8777Z" fill="#212121"/>
<rect x="11.0127" y="43.3165" width="66.076" height="44.0506" fill="#D0DCEF"/>
<path fill-rule="evenodd" clip-rule="evenodd" d="M63.0214 60.9367H77.0867V86.6329L61.6689 73.6467L63.0214 60.9367Z" fill="#A7A9AC"/>
<rect x="37.5737" y="14.9303" width="48.1842" height="40.7191" fill="white"/>
<path d="M85.22 6.72995H38.1103C36.3254 6.72995 34.6136 7.439 33.3515 8.70111C32.0894 9.96322 31.3804 11.675 31.3804 13.4599V57.2046C31.3804 58.9895 32.0894 60.7013 33.3515 61.9634C34.6136 63.2255 36.3254 63.9346 38.1103 63.9346H51.5702L61.6652 74.0295L71.7601 63.9346H85.22C87.0049 63.9346 88.7167 63.2255 89.9788 61.9634C91.2409 60.7013 91.95 58.9895 91.95 57.2046V13.4599C91.95 11.675 91.2409 9.96322 89.9788 8.70111C88.7167 7.439 87.0049 6.72995 85.22 6.72995ZM61.6652 16.8249C67.4765 16.8249 71.7601 21.1051 71.7601 26.9198C71.7601 32.7345 67.4765 37.0148 61.6652 37.0148C55.8572 37.0148 51.5702 32.7345 51.5702 26.9198C51.5702 21.1051 55.8572 16.8249 61.6652 16.8249ZM45.4359 53.8397C47.3135 48.0418 53.8349 43.7447 61.6652 43.7447C69.4955 43.7447 76.0202 48.0418 77.8945 53.8397H45.4359Z" fill="#007AE7"/>
</svg>
