<svg width="119" height="134" viewBox="0 0 119 134" fill="none" xmlns="http://www.w3.org/2000/svg">
<path d="M104.123 24.5586H14.8735C9.41929 24.5586 4.95679 29.0358 4.95679 34.5079V94.2034C4.95679 99.6755 9.41929 104.153 14.8735 104.153H49.5818V114.102H39.6651V124.051H79.3318V114.102H69.4151V104.153H104.123C109.578 104.153 114.04 99.6755 114.04 94.2034V34.5079C114.04 29.0358 109.578 24.5586 104.123 24.5586ZM104.123 94.2034H14.8735V34.5079H104.123V94.2034Z" fill="#212121"/>
<rect x="14.9998" y="34.6748" width="90" height="60.1972" fill="#BFD7FF"/>
<path d="M93.2916 94.7962H26.1023V6.32031H72.2949L93.2916 27.386V94.7962Z" fill="white"/>
<path d="M92.7916 94.2962H26.6023V6.82031H72.0873L92.7916 27.5926V94.2962Z" stroke="#007AE7" stroke-opacity="0.2"/>
<path d="M90.1426 29.4919H70.1958V9.47949L90.1426 29.4919Z" fill="#007AE7" fill-opacity="0.2"/>
<path d="M42.897 44.2373H78.5913V48.4504H42.897V44.2373Z" fill="#007AE7"/>
<path d="M42.897 52.6631H70.1926V56.8762H42.897V52.6631Z" fill="#007AE7"/>
<path d="M42.897 61.0898H78.5913V65.303H42.897V61.0898Z" fill="#007AE7"/>
<path d="M42.897 69.5156H70.1926V73.7288H42.897V69.5156Z" fill="#007AE7"/>
</svg>
