<svg width="123" height="123" viewBox="0 0 123 123" fill="none" xmlns="http://www.w3.org/2000/svg">
<path d="M61.5 0.15625C49.3674 0.15625 37.5072 3.754 27.4193 10.4945C17.3313 17.2351 9.46876 26.8157 4.82579 38.0248C0.182829 49.2339 -1.03198 61.5681 1.33498 73.4676C3.70194 85.3671 9.54437 96.2975 18.1234 104.877C26.7025 113.456 37.6329 119.298 49.5325 121.665C61.432 124.032 73.7662 122.817 84.9753 118.174C96.1844 113.531 105.765 105.669 112.505 95.5808C119.246 85.4928 122.844 73.6326 122.844 61.5C122.825 45.2364 116.356 29.6442 104.856 18.1441C93.3558 6.64398 77.7636 0.174983 61.5 0.15625ZM90.7156 50.7589L56.1083 83.7902C55.2284 84.6274 54.0604 85.0943 52.8458 85.0943C51.6313 85.0943 50.4633 84.6274 49.5834 83.7902L32.2845 67.2746C31.3787 66.4093 30.8538 65.2197 30.8251 63.9674C30.7965 62.7151 31.2665 61.5027 32.1317 60.597C32.997 59.6912 34.1866 59.1662 35.4389 59.1376C36.6912 59.1089 37.9036 59.5789 38.8093 60.4442L52.8458 73.8502L84.1901 43.9291C85.0973 43.0721 86.3067 42.6089 87.5543 42.6408C88.8019 42.6727 89.9861 43.1971 90.8483 44.0994C91.7104 45.0017 92.1804 46.2085 92.1556 47.4562C92.1307 48.704 91.613 49.8911 90.7156 50.7584V50.7589Z" fill="#007AE7"/>
</svg>
