<svg width="158" height="123" viewBox="0 0 158 123" fill="none" xmlns="http://www.w3.org/2000/svg">
<path d="M106.691 11.0159H15.4783C9.90425 11.0159 5.34363 15.5766 5.34363 21.1506V81.9589C5.34363 87.533 9.90425 92.0936 15.4783 92.0936H50.9498V102.228H40.8151V112.363H81.354V102.228H71.2193V92.0936H106.691C112.265 92.0936 116.825 87.533 116.825 81.9589V21.1506C116.825 15.5766 112.265 11.0159 106.691 11.0159ZM106.691 81.9589H15.4783V21.1506H106.691V81.9589Z" fill="#212121"/>
<rect x="15.6057" y="21.3209" width="91.9789" height="61.3193" fill="#D0DCEF"/>
<path fill-rule="evenodd" clip-rule="evenodd" d="M88.0036 45.8485H107.583V81.6181L83.7992 62.6409L88.0036 45.8485Z" fill="#A7A9AC"/>
<path d="M144.55 5.29697H90.4438C86.724 5.29697 83.7143 7.68064 83.7143 10.594L83.7141 62.8582L97.207 47.6733H144.55C148.269 47.6733 151.313 45.2897 151.313 42.3763V10.594C151.313 7.68064 148.269 5.29697 144.55 5.29697Z" fill="#007AE7"/>
<path d="M117.374 22.6771L117.033 26.0793L120.311 25.1224L120.55 26.7526L117.408 27.0184L119.44 29.8182L117.972 30.651L116.52 27.55L115.206 30.651L113.686 29.8182L115.684 27.0184L112.576 26.7526L112.815 25.1224L116.059 26.0793L115.701 22.6771H117.374Z" fill="white"/>
<path d="M127.476 22.6771L127.135 26.0793L130.413 25.1224L130.652 26.7526L127.51 27.0184L129.542 29.8182L128.074 30.651L126.623 27.55L125.308 30.651L123.788 29.8182L125.786 27.0184L122.678 26.7526L122.917 25.1224L126.161 26.0793L125.803 22.6771H127.476Z" fill="white"/>
<path d="M137.574 22.6771L137.233 26.0793L140.511 25.1224L140.75 26.7526L137.609 27.0184L139.64 29.8182L138.172 30.651L136.721 27.55L135.406 30.651L133.886 29.8182L135.884 27.0184L132.776 26.7526L133.015 25.1224L136.26 26.0793L135.901 22.6771H137.574Z" fill="white"/>
<path d="M105.704 24.0515H107.078C107.261 24.0515 107.436 24.1239 107.564 24.2528C107.693 24.3816 107.766 24.5564 107.766 24.7387V32.9849C107.766 33.1671 107.693 33.3419 107.564 33.4708C107.436 33.5997 107.261 33.6721 107.078 33.6721H96.0835C95.9013 33.6721 95.7265 33.5997 95.5976 33.4708C95.4688 33.3419 95.3964 33.1671 95.3964 32.9849V24.7387C95.3964 24.5564 95.4688 24.3816 95.5976 24.2528C95.7265 24.1239 95.9013 24.0515 96.0835 24.0515H97.4579V23.3643C97.4579 22.2708 97.8923 21.2221 98.6655 20.4488C99.4388 19.6756 100.488 19.2412 101.581 19.2412C102.675 19.2412 103.723 19.6756 104.496 20.4488C105.27 21.2221 105.704 22.2708 105.704 23.3643V24.0515ZM96.7707 25.4259V32.2977H106.391V25.4259H96.7707ZM100.894 28.1746H102.268V29.549H100.894V28.1746ZM98.1451 28.1746H99.5195V29.549H98.1451V28.1746ZM103.643 28.1746H105.017V29.549H103.643V28.1746ZM104.33 24.0515V23.3643C104.33 22.6353 104.04 21.9362 103.525 21.4207C103.009 20.9052 102.31 20.6156 101.581 20.6156C100.852 20.6156 100.153 20.9052 99.6374 21.4207C99.1219 21.9362 98.8323 22.6353 98.8323 23.3643V24.0515H104.33Z" fill="white"/>
</svg>
