<svg width="226" height="202" viewBox="0 0 226 202" fill="none" xmlns="http://www.w3.org/2000/svg">
<g clip-path="url(#clip0_3766:2940)">
<path d="M131.76 40.5962H52.5995C51.7482 40.5962 51.0581 41.2818 51.0581 42.1276V178.109C51.0581 178.954 51.7482 179.64 52.5995 179.64H131.76C132.611 179.64 133.301 178.954 133.301 178.109V42.1276C133.301 41.2818 132.611 40.5962 131.76 40.5962Z" fill="#212121"/>
<path d="M128.982 53.4706H56.4149V158.869H128.982V53.4706Z" fill="#D0DCEF"/>
<path fill-rule="evenodd" clip-rule="evenodd" d="M110.836 92.5833H129.191V157.812L109.071 124.847L110.836 92.5833Z" fill="#A7A9AC"/>
<path d="M98.6467 166.679H87.0966C86.671 166.679 86.3259 167.022 86.3259 167.445V171.408C86.3259 171.831 86.671 172.173 87.0966 172.173H98.6467C99.0723 172.173 99.4174 171.831 99.4174 171.408V167.445C99.4174 167.022 99.0723 166.679 98.6467 166.679Z" fill="#424242"/>
<path d="M133.803 56.4748H132.678V87.545H133.803V56.4748Z" fill="#212121"/>
<path d="M133.905 105.234H132.781V115.002H133.905V105.234Z" fill="#212121"/>
<path d="M66.1316 48.2917C66.5066 48.6708 67.1199 48.6762 67.5015 48.3037C67.8831 47.9311 67.8885 47.3218 67.5135 46.9427C67.1386 46.5635 66.5252 46.5582 66.1436 46.9307C65.762 47.3032 65.7566 47.9126 66.1316 48.2917Z" fill="#424242"/>
<path d="M66.2885 48.1393C66.5787 48.4327 67.0535 48.4369 67.3488 48.1485C67.6442 47.8602 67.6484 47.3885 67.3581 47.0951C67.0679 46.8016 66.5932 46.7975 66.2978 47.0858C66.0024 47.3742 65.9983 47.8458 66.2885 48.1393Z" fill="#595959"/>
<path fill-rule="evenodd" clip-rule="evenodd" d="M67.3581 47.0951C67.6482 47.3885 67.6441 47.8601 67.3487 48.1485C67.2941 48.2018 67.2332 48.2452 67.1685 48.2786C66.9598 48.1678 66.7789 47.968 66.6781 47.7083C66.5657 47.419 66.5772 47.1184 66.6864 46.8846C66.9231 46.8412 67.1766 46.9116 67.3581 47.0951V47.0951Z" fill="#636363"/>
<path d="M90.2704 47.7426C90.3935 47.7426 90.4933 47.6434 90.4933 47.5211C90.4933 47.3988 90.3935 47.2996 90.2704 47.2996C90.1473 47.2996 90.0475 47.3988 90.0475 47.5211C90.0475 47.6434 90.1473 47.7426 90.2704 47.7426Z" fill="#121212"/>
<path d="M91.3757 47.7426C91.4989 47.7426 91.5987 47.6434 91.5987 47.5211C91.5987 47.3988 91.4989 47.2996 91.3757 47.2996C91.2526 47.2996 91.1528 47.3988 91.1528 47.5211C91.1528 47.6434 91.2526 47.7426 91.3757 47.7426Z" fill="#121212"/>
<path d="M92.4822 47.7426C92.6053 47.7426 92.7051 47.6434 92.7051 47.5211C92.7051 47.3988 92.6053 47.2996 92.4822 47.2996C92.3591 47.2996 92.2593 47.3988 92.2593 47.5211C92.2593 47.6434 92.3591 47.7426 92.4822 47.7426Z" fill="#121212"/>
<path d="M93.5874 47.7426C93.7106 47.7426 93.8104 47.6434 93.8104 47.5211C93.8104 47.3988 93.7106 47.2996 93.5874 47.2996C93.4643 47.2996 93.3645 47.3988 93.3645 47.5211C93.3645 47.6434 93.4643 47.7426 93.5874 47.7426Z" fill="#121212"/>
<path d="M94.6939 47.7426C94.817 47.7426 94.9168 47.6434 94.9168 47.5211C94.9168 47.3988 94.817 47.2996 94.6939 47.2996C94.5708 47.2996 94.4709 47.3988 94.4709 47.5211C94.4709 47.6434 94.5708 47.7426 94.6939 47.7426Z" fill="#121212"/>
<path d="M91.3753 46.644C91.4984 46.644 91.5982 46.5448 91.5982 46.4225C91.5982 46.3002 91.4984 46.201 91.3753 46.201C91.2521 46.201 91.1523 46.3002 91.1523 46.4225C91.1523 46.5448 91.2521 46.644 91.3753 46.644Z" fill="#121212"/>
<path d="M92.4822 46.644C92.6053 46.644 92.7051 46.5448 92.7051 46.4225C92.7051 46.3002 92.6053 46.201 92.4822 46.201C92.3591 46.201 92.2593 46.3002 92.2593 46.4225C92.2593 46.5448 92.3591 46.644 92.4822 46.644Z" fill="#121212"/>
<path d="M93.5872 46.644C93.7103 46.644 93.8101 46.5448 93.8101 46.4225C93.8101 46.3002 93.7103 46.201 93.5872 46.201C93.4641 46.201 93.3643 46.3002 93.3643 46.4225C93.3643 46.5448 93.4641 46.644 93.5872 46.644Z" fill="#121212"/>
<path d="M91.3753 48.8412C91.4984 48.8412 91.5982 48.7421 91.5982 48.6197C91.5982 48.4974 91.4984 48.3983 91.3753 48.3983C91.2521 48.3983 91.1523 48.4974 91.1523 48.6197C91.1523 48.7421 91.2521 48.8412 91.3753 48.8412Z" fill="#121212"/>
<path d="M92.4822 48.8412C92.6053 48.8412 92.7051 48.7421 92.7051 48.6197C92.7051 48.4974 92.6053 48.3983 92.4822 48.3983C92.3591 48.3983 92.2593 48.4974 92.2593 48.6197C92.2593 48.7421 92.3591 48.8412 92.4822 48.8412Z" fill="#121212"/>
<path d="M93.5872 48.8412C93.7103 48.8412 93.8101 48.7421 93.8101 48.6197C93.8101 48.4974 93.7103 48.3983 93.5872 48.3983C93.4641 48.3983 93.3643 48.4974 93.3643 48.6197C93.3643 48.7421 93.4641 48.8412 93.5872 48.8412Z" fill="#121212"/>
<line x1="1.36487" y1="181.892" x2="181.527" y2="181.892" stroke="#EEEEEE" stroke-width="2"/>
</g>
<g clip-path="url(#clip1_3766:2940)">
<path d="M204.023 10.5208H119.307C113.483 10.5208 108.771 15.2552 108.771 21.0416L108.77 124.847L129.897 94.6875H204.023C209.847 94.6875 214.612 89.9531 214.612 84.1667V21.0416C214.612 15.2552 209.847 10.5208 204.023 10.5208ZM145.781 57.8646H135.191V47.3437H145.781V57.8646ZM166.96 57.8646H156.37V47.3437H166.96V57.8646ZM188.139 57.8646H177.549V47.3437H188.139V57.8646Z" fill="#007AE7"/>
</g>
<defs>
<clipPath id="clip0_3766:2940">
<rect width="184.963" height="183.764" fill="white" transform="translate(0 18.2361)"/>
</clipPath>
<clipPath id="clip1_3766:2940">
<rect width="127.074" height="126.25" fill="white" transform="translate(98.1282)"/>
</clipPath>
</defs>
</svg>
